<svg width="25" height="25" viewBox="0 0 25 25" xmlns="http://www.w3.org/2000/svg">
    <path d="M 5.5,12 C 5.5,11.5359 5.68437,11.0908 6.01256,10.7626 6.34075,10.4344 6.78587,10.25 7.25,10.25 c 0.46413,0 0.90925,0.1844 1.23744,0.5126 C 8.81563,11.0908 9,11.5359 9,12 9,12.4641 8.81563,12.9092 8.48744,13.2374 8.15925,13.5656 7.71413,13.75 7.25,13.75 6.78587,13.75 6.34075,13.5656 6.01256,13.2374 5.68437,12.9092 5.5,12.4641 5.5,12 Z m 5,0 c 0,-0.4641 0.1844,-0.9092 0.5126,-1.2374 0.3282,-0.3282 0.7733,-0.5126 1.2374,-0.5126 0.4641,0 0.9092,0.1844 1.2374,0.5126 C 13.8156,11.0908 14,11.5359 14,12 c 0,0.4641 -0.1844,0.9092 -0.5126,1.2374 -0.3282,0.3282 -0.7733,0.5126 -1.2374,0.5126 -0.4641,0 -0.9092,-0.1844 -1.2374,-0.5126 C 10.6844,12.9092 10.5,12.4641 10.5,12 Z m 6.75,-1.75 c 0.4641,0 0.9092,0.1844 1.2374,0.5126 C 18.8156,11.0908 19,11.5359 19,12 c 0,0.4641 -0.1844,0.9092 -0.5126,1.2374 -0.3282,0.3282 -0.7733,0.5126 -1.2374,0.5126 -0.4641,0 -0.9092,-0.1844 -1.2374,-0.5126 C 15.6844,12.9092 15.5,12.4641 15.5,12 c 0,-0.4641 0.1844,-0.9092 0.5126,-1.2374 C 16.3408,10.4344 16.7859,10.25 17.25,10.25 Z" />
</svg>
