<svg width="42" height="18" viewBox="0 0 42 18" fill="none" xmlns="http://www.w3.org/2000/svg">
<rect width="42" height="18" rx="9" fill="#008400"/>
<rect x="0.5" y="0.5" width="41" height="17" rx="8.5" stroke="black" stroke-opacity="0.15"/>
<path d="M13.0259 12.528C12.6899 12.96 12.3179 13.264 11.9099 13.44C11.5019 13.608 11.0899 13.692 10.6739 13.692C10.0179 13.692 9.42586 13.58 8.89786 13.356C8.37786 13.124 7.93786 12.808 7.57786 12.408C7.21786 12.008 6.94186 11.54 6.74986 11.004C6.55786 10.46 6.46186 9.876 6.46186 9.252C6.46186 8.612 6.55786 8.02 6.74986 7.476C6.94186 6.924 7.21786 6.444 7.57786 6.036C7.93786 5.628 8.37786 5.308 8.89786 5.076C9.42586 4.844 10.0179 4.728 10.6739 4.728C11.1139 4.728 11.5379 4.796 11.9459 4.932C12.3619 5.06 12.7339 5.252 13.0619 5.508C13.3979 5.764 13.6739 6.08 13.8899 6.456C14.1059 6.832 14.2379 7.264 14.2859 7.752H12.4859C12.3739 7.272 12.1579 6.912 11.8379 6.672C11.5179 6.432 11.1299 6.312 10.6739 6.312C10.2499 6.312 9.88986 6.396 9.59386 6.564C9.29786 6.724 9.05786 6.944 8.87386 7.224C8.68986 7.496 8.55386 7.808 8.46586 8.16C8.38586 8.512 8.34586 8.876 8.34586 9.252C8.34586 9.612 8.38586 9.964 8.46586 10.308C8.55386 10.644 8.68986 10.948 8.87386 11.22C9.05786 11.492 9.29786 11.712 9.59386 11.88C9.88986 12.04 10.2499 12.12 10.6739 12.12C11.2979 12.12 11.7779 11.964 12.1139 11.652C12.4579 11.332 12.6579 10.872 12.7139 10.272H10.8179V8.868H14.4179V13.5H13.2179L13.0259 12.528ZM16.3143 4.932H18.1983V11.916H22.3743V13.5H16.3143V4.932ZM26.4186 9.204C26.4186 9.572 26.2946 9.88 26.0466 10.128C25.8066 10.376 25.4986 10.5 25.1226 10.5C24.7466 10.5 24.4346 10.376 24.1866 10.128C23.9466 9.88 23.8266 9.572 23.8266 9.204C23.8266 8.828 23.9466 8.52 24.1866 8.28C24.4346 8.032 24.7466 7.908 25.1226 7.908C25.4986 7.908 25.8066 8.032 26.0466 8.28C26.2946 8.52 26.4186 8.828 26.4186 9.204ZM30.2569 8.4H32.1649C32.5009 8.4 32.7769 8.32 32.9929 8.16C33.2089 8 33.3169 7.74 33.3169 7.38C33.3169 7.18 33.2809 7.016 33.2089 6.888C33.1369 6.76 33.0409 6.66 32.9209 6.588C32.8009 6.516 32.6609 6.468 32.5009 6.444C32.3489 6.412 32.1889 6.396 32.0209 6.396H30.2569V8.4ZM28.3729 4.932H32.4049C32.8129 4.932 33.1849 4.968 33.5209 5.04C33.8569 5.112 34.1449 5.232 34.3849 5.4C34.6249 5.56 34.8089 5.776 34.9369 6.048C35.0729 6.32 35.1409 6.656 35.1409 7.056C35.1409 7.488 35.0409 7.848 34.8409 8.136C34.6489 8.424 34.3609 8.66 33.9769 8.844C34.5049 8.996 34.8969 9.264 35.1529 9.648C35.4169 10.024 35.5489 10.48 35.5489 11.016C35.5489 11.448 35.4649 11.824 35.2969 12.144C35.1289 12.456 34.9009 12.712 34.6129 12.912C34.3329 13.112 34.0089 13.26 33.6409 13.356C33.2809 13.452 32.9089 13.5 32.5249 13.5H28.3729V4.932ZM30.2569 12.036H32.2729C32.4569 12.036 32.6329 12.02 32.8009 11.988C32.9689 11.948 33.1169 11.888 33.2449 11.808C33.3729 11.72 33.4729 11.604 33.5449 11.46C33.6249 11.316 33.6649 11.132 33.6649 10.908C33.6649 10.468 33.5409 10.156 33.2929 9.972C33.0449 9.78 32.7169 9.684 32.3089 9.684H30.2569V12.036Z" fill="white"/>
</svg>
