<svg fill="none" height="24" viewBox="0 0 24 24" width="24" xmlns="http://www.w3.org/2000/svg"><path clip-rule="evenodd" d="m3.70711 2.29289c-.39053-.39052-1.02369-.39052-1.41422 0-.39052.39053-.39052 1.02369 0 1.41422l18.00001 17.99999c.3905.3905 1.0237.3905 1.4142 0s.3905-1.0237 0-1.4142zm3.04146 13.51861v-5.82049l8.21453 8.21459 1.497 2.7944h-1.254l-.2258-.3956h-5.93426l-.22072.3956h-1.26411l1.55004-2.8747-1.92125-1.4023c-.27603-.2228-.43792-.5571-.44143-.9115zm10.50413-7.5823v5.7807l-3.95-3.9501c.0374-.12446.0575-.25645.0572-.39314-.0014-.74819-.61-1.35359-1.3594-1.3522-.1321.00017-.2622.01959-.3865.05668l-2.16612-2.16611 1.43912-.27958c.176-.03603.302-.1912.3009-.3706v-1.12684c.0012-.11302-.0494-.22039-.1373-.29159s-.2036-.09845-.3141-.074l-1.85105.39063c-.17568.02963-.30347.18273-.30098.36059v.52799l-.88213-.88214c.1829-.41317.64704-.63162 1.09288-.75266.73719-.20592 1.48308-.36539 2.22888-.52482.2336-.04996.4673-.09991.7006-.15128.1699-.03921.3462-.04092.5167-.00501 1.1039.18691 2.1959.43774 3.2707.75122.5117.11215.8804.55886.8929 1.08177v1.79793c-.0028.23145.1125.44843.306.57593.338.21914.5419.59425.5417.99663zm-4.329-3.80124c0-.1136.0516-.22107.1404-.29216.0888-.07108.205-.0981.3161-.07344l1.856.39064c.1726.03367.2969.18504.296.36059v1.10179c.0001.11205-.0498.21832-.1361.28996-.0863.07163-.2.10119-.3104.08065l-1.856-.36059c-.177-.03558-.3048-.19031-.306-.37061zm1.0385 14.34854h-3.9077l.3311-.6009h3.2405zm-4.97654-1.9882c-.40928.001-.77878-.2445-.93587-.6218s-.07077-.8119.21863-1.1009c.28941-.2889.72477-.3751 1.1027-.2183.37794.1569.62383.5258.62282.9344 0 .5559-.45142 1.0066-1.00828 1.0066zm.39147 3.2101.34612-.621h4.57485l.3461.621z" fill="#80276c" fill-rule="evenodd"/></svg>
