<svg width="24" height="24" viewBox="0 0 24 24" fill="none" xmlns="http://www.w3.org/2000/svg">
<path d="M5.13771 15.0377C5.26583 14.5814 5.50646 14.1658 5.84396 13.8283L11.5065 8.16582L12.5658 7.10645C13.0846 7.6252 14.169 8.70957 15.8158 10.3564L16.8752 11.4158L15.8158 12.4752L10.1533 18.1377C9.81896 18.4721 9.40021 18.7158 8.94396 18.8439L4.95021 19.9564C4.69083 20.0283 4.40958 19.9564 4.21896 19.7627C4.02833 19.5689 3.95646 19.2908 4.02833 19.0314L5.13771 15.0377ZM6.87521 14.9221C6.73771 15.0689 6.63771 15.2471 6.58458 15.4408L5.83146 18.1564L8.54708 17.4033C8.74708 17.3471 8.92833 17.2439 9.07833 17.1002L6.87208 14.9221H6.87521ZM17.9377 10.3564C17.419 9.8377 16.3346 8.75332 14.6877 7.10645L13.6252 6.04707C14.4533 5.21895 14.919 4.75332 15.0283 4.64395C15.4502 4.21895 16.0252 3.98145 16.6252 3.98145C17.2252 3.98145 17.8002 4.21895 18.2221 4.64395L19.3377 5.75957C19.7627 6.18457 20.0002 6.75957 20.0002 7.35645C20.0002 7.95332 19.7627 8.53145 19.3377 8.95332C19.2283 9.0627 18.7627 9.52832 17.9346 10.3564H17.9377Z" fill="black"/>
</svg>
