<svg width="42" height="18" viewBox="0 0 42 18" fill="none" xmlns="http://www.w3.org/2000/svg">
<rect width="42" height="18" rx="9" fill="#00843D"/>
<rect x="0.5" y="0.5" width="41" height="17" rx="8.5" stroke="black" stroke-opacity="0.15"/>
<path d="M13.3598 12.528C13.0238 12.96 12.6518 13.264 12.2438 13.44C11.8358 13.608 11.4238 13.692 11.0078 13.692C10.3518 13.692 9.75984 13.58 9.23184 13.356C8.71184 13.124 8.27184 12.808 7.91184 12.408C7.55184 12.008 7.27584 11.54 7.08384 11.004C6.89184 10.46 6.79584 9.876 6.79584 9.252C6.79584 8.612 6.89184 8.02 7.08384 7.476C7.27584 6.924 7.55184 6.444 7.91184 6.036C8.27184 5.628 8.71184 5.308 9.23184 5.076C9.75984 4.844 10.3518 4.728 11.0078 4.728C11.4478 4.728 11.8718 4.796 12.2798 4.932C12.6958 5.06 13.0678 5.252 13.3958 5.508C13.7318 5.764 14.0078 6.08 14.2238 6.456C14.4398 6.832 14.5718 7.264 14.6198 7.752H12.8198C12.7078 7.272 12.4918 6.912 12.1718 6.672C11.8518 6.432 11.4638 6.312 11.0078 6.312C10.5838 6.312 10.2238 6.396 9.92784 6.564C9.63184 6.724 9.39184 6.944 9.20784 7.224C9.02384 7.496 8.88784 7.808 8.79984 8.16C8.71984 8.512 8.67984 8.876 8.67984 9.252C8.67984 9.612 8.71984 9.964 8.79984 10.308C8.88784 10.644 9.02384 10.948 9.20784 11.22C9.39184 11.492 9.63184 11.712 9.92784 11.88C10.2238 12.04 10.5838 12.12 11.0078 12.12C11.6318 12.12 12.1118 11.964 12.4478 11.652C12.7918 11.332 12.9918 10.872 13.0478 10.272H11.1518V8.868H14.7518V13.5H13.5518L13.3598 12.528ZM16.6483 4.932H18.5323V11.916H22.7083V13.5H16.6483V4.932ZM26.7526 9.204C26.7526 9.572 26.6286 9.88 26.3806 10.128C26.1406 10.376 25.8326 10.5 25.4566 10.5C25.0806 10.5 24.7686 10.376 24.5206 10.128C24.2806 9.88 24.1606 9.572 24.1606 9.204C24.1606 8.828 24.2806 8.52 24.5206 8.28C24.7686 8.032 25.0806 7.908 25.4566 7.908C25.8326 7.908 26.1406 8.032 26.3806 8.28C26.6286 8.52 26.7526 8.828 26.7526 9.204ZM28.7069 4.932H35.1149V6.516H30.5909V8.352H34.7429V9.816H30.5909V11.916H35.2109V13.5H28.7069V4.932Z" fill="white"/>
</svg>
