<svg fill="none" height="18" viewBox="0 0 18 18" width="18" xmlns="http://www.w3.org/2000/svg"><path d="m11.9636.5h-5.91607c-.40764 0-.79772.165907-1.08048.459538l-4.04753 4.203202c-.269153.27951-.41952.65244-.41952 1.04047v5.76039c0 .3978.158036.7793.43934 1.0606l4.03644 4.0365c.2813.2813.66283.4393 1.06066.4393h5.91606c.4076 0 .7977-.1659 1.0805-.4595l4.0475-4.2032c.2691-.2795.4195-.6525.4195-1.0405v-5.76036c0-.39783-.158-.77936-.4393-1.06066l-4.0365-4.03644c-.2813-.281305-.6628-.43934-1.0606-.43934z" fill="#da291c" stroke="#da291c"/><path clip-rule="evenodd" d="m12.3778 1h-6.75558l-4.62222 4.8v6.5778l4.62222 4.6222h6.75558l4.6222-4.8v-6.57778zm-5.94316 3.92963-1.62293 1.64913 2.56527 2.55351-2.56527 2.60673 1.62293 1.5959 2.56526-2.6067 2.5653 2.6067 1.6229-1.5959-2.5653-2.60673 2.5653-2.55351-1.6229-1.64913-2.5653 2.5535z" fill="#fff" fill-rule="evenodd"/></svg>
