<svg fill="none" height="18" viewBox="0 0 18 18" width="18" xmlns="http://www.w3.org/2000/svg" xmlns:xlink="http://www.w3.org/1999/xlink"><mask id="a" fill="#000" height="18" maskUnits="userSpaceOnUse" width="18" x="0" y="0"><path d="m0 0h18v18h-18z" fill="#fff"/><path clip-rule="evenodd" d="m9.04144 16.9999c4.48126-.115 8.07296-3.7585 7.95566-8.04257-.121-4.41667-3.6238-7.980549-8.04122-7.95722-4.41747.02363-7.979387 3.62446-7.95576 8.04267.02362 4.41822 3.62384 7.98072 8.04132 7.95712" fill="#000" fill-rule="evenodd"/></mask><path clip-rule="evenodd" d="m9.04144 16.9999c4.48126-.115 8.07296-3.7585 7.95566-8.04257-.121-4.41667-3.6238-7.980549-8.04122-7.95722-4.41747.02363-7.979387 3.62446-7.95576 8.04267.02362 4.41822 3.62384 7.98072 8.04132 7.95712" fill="#fff" fill-rule="evenodd"/><path d="m16.9971 8.95733.9996-.02738zm-8.04122-7.95722-.00528-.99998213-.00006.00000036zm.11121 16.99949c4.99491-.1282 9.06311-4.1944 8.92961-9.06965l-1.9992.05476c.1011 3.69299-3.014 6.91369-6.98172 7.01549zm8.92961-9.06965c-.1351-4.93131-4.0566-8.9561767-9.0461-8.92982213l.01057 1.99997213c3.84533-.02031 6.92943 3.08259 7.03633 6.98461zm-9.04616-8.92982177c-4.96991.02658307-8.9769853 4.07767177-8.95040887 9.04800177l1.99996887-.0107c-.02067-3.86609 3.09609-7.01666 6.96113-7.03733zm-8.95040887 9.04800177c.02657647 4.97037 4.07673887 8.97837 9.04664887 8.95177l-.01069-2c-3.86504.0207-7.01532-3.0964-7.03599-6.96247z" fill="#fff" mask="url(#a)"/><path clip-rule="evenodd" d="m16.9971 8.95733c.1173 4.28407-3.4744 7.92757-7.95566 8.04257-4.41748.0236-8.0177-3.5389-8.04132-7.95712-.023627-4.41821 3.53829-8.01904 7.95576-8.04267 4.41742-.023329 7.92022 3.54055 8.04122 7.95722zm-4.146-4.05649.4146 3.24375.0001 4.48751h-.7098v.7816c.0015.2089-.1127.4027-.2993.5076s-.4169.1049-.6035 0-.3008-.2987-.2992-.5076v-.7816h-4.68793v.7816c-.00098.321-.26949.5811-.60102.582-.33154-.0009-.60011-.2609-.60111-.5819v-.7816h-.73152v-4.48761l.41672-3.24384c.11218-.58531.48307-.81812 1.02799-1.05313.90582-.32197 1.86063-.49578 2.82534-.51431.96324.01833 1.91653.19215 2.82073.51431.5518.23952.9227.46792 1.0279 1.05322zm-2.0788-.74721h-3.52592c-.14922 0-.27018.11713-.27018.26163s.12096.26164.27018.26164h3.52592c.1493 0 .2702-.11714.2702-.26164s-.1209-.26163-.2702-.26163zm-4.93879 1.33483-.34327 2.56085c-.00457.0294-.00457.05929 0 .08869-.0044.08824.02766.17454.08909.23985.06143.06532.14717.10426.23831.10824h6.39476c.091.00095.1785-.03348.2431-.09559.0645-.0621.1006-.14668.1002-.23478v-.01772c.0046-.0294.0046-.05929 0-.08869l-.3433-2.56085c-.0276-.16119-.1724-.27884-.3411-.27713h-5.69452c-.16917-.00177-.31463.11567-.34327.27713zm-.40956 5.13724c.00066.3422.2878.6191.64135.6185.16984-.0002.33263-.0658.45249-.1822.11987-.1165.18698-.2743.18654-.4387-.0007-.3423-.28787-.6192-.64142-.6185-.35356.0007-.63962.2786-.63896.6209zm6.53095-.6209c-.3533.0002-.6396.2774-.6398.6193s.2857.6194.6388.6201c.1703.0005.3338-.0648.4542-.1814.1204-.1165.1878-.2747.1874-.4395-.0007-.342-.2874-.6187-.6406-.6185z" fill="#00843D" fill-rule="evenodd"/></svg>
