<svg width="40" height="24" viewBox="0 0 40 24" fill="none" xmlns="http://www.w3.org/2000/svg">
<rect width="40" height="24" rx="12" fill="#7C878E"/>
<rect x="0.5" y="0.5" width="39" height="23" rx="11.5" stroke="white" stroke-opacity="0.15"/>
<path d="M12.6285 14.208C12.6285 14.592 12.6978 14.9173 12.8365 15.184C12.9752 15.4507 13.1565 15.6693 13.3805 15.84C13.6152 16 13.8872 16.1227 14.1965 16.208C14.5058 16.2827 14.8258 16.32 15.1565 16.32C15.3805 16.32 15.6205 16.304 15.8765 16.272C16.1325 16.2293 16.3725 16.1547 16.5965 16.048C16.8205 15.9413 17.0072 15.7973 17.1565 15.616C17.3058 15.424 17.3805 15.184 17.3805 14.896C17.3805 14.5867 17.2792 14.336 17.0765 14.144C16.8845 13.952 16.6285 13.792 16.3085 13.664C15.9885 13.536 15.6258 13.424 15.2205 13.328C14.8152 13.232 14.4045 13.1253 13.9885 13.008C13.5618 12.9013 13.1458 12.7733 12.7405 12.624C12.3352 12.464 11.9725 12.2613 11.6525 12.016C11.3325 11.7707 11.0712 11.4667 10.8685 11.104C10.6765 10.7307 10.5805 10.2827 10.5805 9.76C10.5805 9.17333 10.7032 8.66667 10.9485 8.24C11.2045 7.80267 11.5352 7.44 11.9405 7.152C12.3458 6.864 12.8045 6.65067 13.3165 6.512C13.8285 6.37333 14.3405 6.304 14.8525 6.304C15.4498 6.304 16.0205 6.37333 16.5645 6.512C17.1192 6.64 17.6098 6.85333 18.0365 7.152C18.4632 7.45067 18.7992 7.83467 19.0445 8.304C19.3005 8.76267 19.4285 9.32267 19.4285 9.984H16.9965C16.9752 9.64267 16.9005 9.36 16.7725 9.136C16.6552 8.912 16.4952 8.736 16.2925 8.608C16.0898 8.48 15.8552 8.38933 15.5885 8.336C15.3325 8.28267 15.0498 8.256 14.7405 8.256C14.5378 8.256 14.3352 8.27733 14.1325 8.32C13.9298 8.36267 13.7432 8.43733 13.5725 8.544C13.4125 8.65067 13.2792 8.784 13.1725 8.944C13.0658 9.104 13.0125 9.30667 13.0125 9.552C13.0125 9.776 13.0552 9.95733 13.1405 10.096C13.2258 10.2347 13.3912 10.3627 13.6365 10.48C13.8925 10.5973 14.2392 10.7147 14.6765 10.832C15.1245 10.9493 15.7058 11.0987 16.4205 11.28C16.6338 11.3227 16.9272 11.4027 17.3005 11.52C17.6845 11.6267 18.0632 11.8027 18.4365 12.048C18.8098 12.2933 19.1298 12.624 19.3965 13.04C19.6738 13.4453 19.8125 13.968 19.8125 14.608C19.8125 15.1307 19.7112 15.616 19.5085 16.064C19.3058 16.512 19.0018 16.9013 18.5965 17.232C18.2018 17.552 17.7058 17.8027 17.1085 17.984C16.5218 18.1653 15.8392 18.256 15.0605 18.256C14.4312 18.256 13.8178 18.176 13.2205 18.016C12.6338 17.8667 12.1112 17.6267 11.6525 17.296C11.2045 16.9653 10.8472 16.544 10.5805 16.032C10.3138 15.52 10.1858 14.912 10.1965 14.208H12.6285ZM21.8071 6.576H24.3191V15.888H29.8871V18H21.8071V6.576Z" fill="white"/>
</svg>
