<svg width="24" height="24" viewBox="0 0 24 24" fill="none" xmlns="http://www.w3.org/2000/svg">
<path fill-rule="evenodd" clip-rule="evenodd" d="M13.0615 17.2203C12.4107 17.6254 11.5857 17.6254 10.9349 17.2203C10.3633 16.8953 9.65781 16.9158 9.10606 17.2734C8.46103 17.6433 7.66315 17.6228 7.03801 17.2203C6.49208 16.8978 5.81358 16.8978 5.26764 17.2203C4.97387 17.4095 4.63358 17.5142 4.28411 17.5231V15.9304C4.61021 15.9283 4.93106 15.8482 5.21978 15.6969C6.0905 15.1838 6.64982 15.4289 7.14053 15.6438C7.3809 15.7491 7.6048 15.8472 7.84077 15.8455V12.1298L6.7456 9.4493C6.66493 9.27871 6.65544 9.08311 6.71922 8.90553C6.783 8.72795 6.91482 8.58295 7.08568 8.50241C7.10483 8.49336 7.12438 8.48519 7.14435 8.47791L7.81419 8.19125V5.85584H9.07417V4.63488H10.8817V3H13.1146V4.63488H14.9222V5.85584H16.2035V8.17545L16.8733 8.46206C17.2427 8.59744 17.4322 9.0061 17.2966 9.37488C17.2893 9.39475 17.2811 9.41427 17.2721 9.43345L16.1714 12.1139V15.8296C16.4045 15.8296 16.6234 15.7301 16.859 15.623C17.3433 15.4029 17.8982 15.1508 18.7924 15.665C19.0804 15.8188 19.4015 15.9007 19.7281 15.9038V17.4963C19.3795 17.4823 19.0405 17.378 18.7446 17.1935C18.1971 16.8767 17.5216 16.8767 16.9742 17.1935C16.349 17.596 15.5511 17.6165 14.9061 17.2466C14.3451 16.8922 13.6324 16.882 13.0615 17.2203ZM10.0257 5.60626V6.81118H8.74442V7.74538L11.9981 6.32813L15.252 7.74538V6.81118H13.9651V5.60626H10.0257ZM10.8817 19.6725C11.557 20.058 12.3862 20.058 13.0615 19.6725C13.6219 19.3359 14.3285 19.3609 14.8637 19.7362C15.5087 20.1062 16.3067 20.0857 16.9318 19.6831C17.4723 19.3638 18.1483 19.3824 18.6703 19.7309C18.9752 19.921 19.3324 20.0102 19.691 19.9856V18.3192C19.3619 18.3456 19.0333 18.2635 18.7553 18.0856C18.0961 17.6663 17.4794 17.73 16.6288 18.1971C16.0454 18.4474 15.3782 18.41 14.8265 18.0962C14.0769 17.6822 13.6461 17.783 12.8595 18.1546C12.3062 18.4417 11.6476 18.4417 11.0944 18.1546C10.3076 17.783 9.89819 17.6822 9.1486 18.0962C8.59288 18.4094 7.92286 18.4467 7.33573 18.1971C6.49572 17.73 5.88431 17.645 5.20916 18.0856C4.92883 18.2579 4.60198 18.3394 4.27344 18.3189V19.9858C4.61815 19.9979 4.95867 19.9073 5.25166 19.7256C5.78068 19.3745 6.46407 19.3559 7.01142 19.6778C7.63655 20.0803 8.43444 20.1008 9.07946 19.7309C9.61299 19.3489 10.3245 19.3259 10.8817 19.6725Z" fill="#192026"/>
</svg>
