<svg width="29" height="18" viewBox="0 0 29 18" fill="none" xmlns="http://www.w3.org/2000/svg">
<rect width="29" height="18" rx="9" fill="#DA291C"/>
<rect x="0.5" y="0.5" width="28" height="17" rx="8.5" stroke="black" stroke-opacity="0.15"/>
<path d="M9.07528 8.808H11.1393C11.5713 8.808 11.8953 8.712 12.1113 8.52C12.3273 8.328 12.4353 8.016 12.4353 7.584C12.4353 7.168 12.3273 6.868 12.1113 6.684C11.8953 6.492 11.5713 6.396 11.1393 6.396H9.07528V8.808ZM7.19128 4.932H11.8113C12.1953 4.932 12.5393 4.996 12.8433 5.124C13.1553 5.244 13.4193 5.412 13.6353 5.628C13.8593 5.844 14.0273 6.096 14.1393 6.384C14.2593 6.664 14.3193 6.968 14.3193 7.296C14.3193 7.8 14.2113 8.236 13.9953 8.604C13.7873 8.972 13.4433 9.252 12.9633 9.444V9.468C13.1953 9.532 13.3873 9.632 13.5393 9.768C13.6913 9.896 13.8153 10.052 13.9113 10.236C14.0073 10.412 14.0753 10.608 14.1153 10.824C14.1633 11.04 14.1953 11.256 14.2113 11.472C14.2193 11.608 14.2273 11.768 14.2353 11.952C14.2433 12.136 14.2553 12.324 14.2713 12.516C14.2953 12.708 14.3273 12.892 14.3673 13.068C14.4153 13.236 14.4833 13.38 14.5713 13.5H12.6873C12.5833 13.228 12.5193 12.904 12.4953 12.528C12.4713 12.152 12.4353 11.792 12.3873 11.448C12.3233 11 12.1873 10.672 11.9793 10.464C11.7713 10.256 11.4313 10.152 10.9593 10.152H9.07528V13.5H7.19128V4.932ZM16.3514 4.932H18.2354V11.916H22.4114V13.5H16.3514V4.932Z" fill="white"/>
</svg>
