<svg width="24" height="24" viewBox="0 0 24 24" fill="none" xmlns="http://www.w3.org/2000/svg">
<g opacity="0.6">
<path d="M6.5 5V2" stroke="white" stroke-linecap="round" stroke-linejoin="round"/>
<path d="M7.29289 7.20711C7.46176 7.41332 7.69975 7.53503 7.96528 7.53472C8.23018 7.53503 8.5009 7.41332 8.70711 7.20711C8.91332 7.0009 9.03503 6.73018 9.03472 6.46528C9.03503 6.19975 8.91332 5.96176 8.70711 5.79289C8.62474 5.72526 8.54238 5.65762 8.46001 5.58999C6.97743 4.37257 5.49484 3.15516 4.01226 1.93774C3.9299 1.8701 3.84753 1.80247 3.76517 1.73483C3.69506 1.67743 3.60041 1.64978 3.50571 1.65432C3.41079 1.65907 3.32358 1.69562 3.2596 1.7596C3.19562 1.82358 3.15907 1.91079 3.15432 2.00571C3.14978 2.10041 3.17743 2.19506 3.23483 2.26517C3.30247 2.34753 3.3701 2.4299 3.43774 2.51226C4.65515 3.99484 5.87257 5.47743 7.08999 6.96001C7.15762 7.04238 7.22526 7.12474 7.29289 7.20711Z" fill="white"/>
<path d="M5 4L3.5 4.5L2 3.5" stroke="white" stroke-linecap="round" stroke-linejoin="round"/>
<path d="M6.5 5L4 6.5" stroke="white" stroke-linecap="round" stroke-linejoin="round"/>
</g>
<g opacity="0.6">
<path d="M18 4.5L17.5 2" stroke="white" stroke-linecap="round" stroke-linejoin="round"/>
<path d="M16.7071 7.20711C16.5382 7.41332 16.3003 7.53503 16.0347 7.53472C15.7698 7.53503 15.4991 7.41332 15.2929 7.20711C15.0867 7.0009 14.965 6.73018 14.9653 6.46528C14.965 6.19975 15.0867 5.96176 15.2929 5.79289C15.3753 5.72526 15.4576 5.65762 15.54 5.58999C17.0226 4.37257 18.5052 3.15516 19.9877 1.93774C20.0701 1.8701 20.1525 1.80247 20.2348 1.73483C20.3049 1.67743 20.3996 1.64978 20.4943 1.65432C20.5892 1.65907 20.6764 1.69562 20.7404 1.7596C20.8044 1.82358 20.8409 1.91079 20.8457 2.00571C20.8502 2.10041 20.8226 2.19506 20.7652 2.26517C20.6975 2.34753 20.6299 2.4299 20.5623 2.51226C19.3448 3.99484 18.1274 5.47743 16.91 6.96001C16.8424 7.04238 16.7747 7.12474 16.7071 7.20711Z" fill="white"/>
<path d="M17.5 5.5L19 6L20.5 5.5" stroke="white" stroke-linecap="round" stroke-linejoin="round"/>
<path d="M19.5 3.5H22" stroke="white" stroke-linecap="round" stroke-linejoin="round"/>
</g>
<path d="M14.8203 5C16.0598 4.98353 17.0798 5.97058 17.1045 7.20996V15.375C17.0969 16.4172 16.3715 17.317 15.3545 17.5449L18 21.499H16.5L14.6152 18.7344H9.41504L7.53027 21.499H6L8.63477 17.5449C7.6178 17.3169 6.89234 16.4172 6.88477 15.375V7.20508C6.91212 5.96364 7.93818 4.97784 9.17969 5H14.8203ZM15.25 13.5C14.6977 13.5 14.25 13.9477 14.25 14.5C14.2501 15.0522 14.6978 15.5 15.25 15.5C15.8022 15.5 16.2499 15.0522 16.25 14.5C16.25 13.9477 15.8023 13.5 15.25 13.5ZM8.75 13.499C8.19784 13.499 7.7502 13.9469 7.75 14.499C7.75 15.0513 8.19772 15.499 8.75 15.499C9.30228 15.499 9.75 15.0513 9.75 14.499C9.7498 13.9469 9.30216 13.499 8.75 13.499ZM9.12988 7.28027C8.86322 7.29459 8.60926 7.40651 8.41895 7.59766C8.22874 7.78875 8.11768 8.04296 8.10449 8.30957V9.89453C8.0909 10.1833 8.19312 10.4659 8.3877 10.6797C8.58227 10.8934 8.85384 11.0216 9.14258 11.0352H14.7451C15.0337 11.0487 15.3156 10.9464 15.5293 10.752C15.7431 10.5574 15.8712 10.2858 15.8848 9.99707V8.30957C15.8715 8.04294 15.7606 7.78875 15.5703 7.59766C15.3799 7.40648 15.1261 7.29453 14.8594 7.28027H9.12988ZM10.8945 5.48438C10.6906 5.48442 10.5227 5.64583 10.5146 5.84961V6.49902C10.516 6.59831 10.5568 6.69336 10.6279 6.7627C10.6991 6.83197 10.7952 6.87038 10.8945 6.86914L13.1094 6.87402C13.3163 6.88229 13.4917 6.72148 13.5 6.51465V5.84961C13.492 5.64768 13.3271 5.48695 13.125 5.48438H10.8945Z" fill="white"/>
<circle cx="12" cy="15.5" r="2" fill="#DA291C"/>
<path d="M14 15.5C14 16.6046 13.1046 17.5 12 17.5C10.8954 17.5 10 16.6046 10 15.5C13 17.5 14 15.5 14 15.5Z" fill="black" fill-opacity="0.15"/>
<circle cx="21" cy="10" r="1" fill="white"/>
<circle cx="11" cy="3" r="1" fill="white"/>
<circle cx="4" cy="17" r="1" fill="white"/>
<circle cx="2.5" cy="10.5" r="1.5" fill="white"/>
<circle cx="20" cy="18" r="1" fill="white"/>
</svg>
