<svg width="24" height="24" viewBox="0 0 24 24" fill="none" xmlns="http://www.w3.org/2000/svg">
<path fill-rule="evenodd" clip-rule="evenodd" d="M16.7109 7.23257C16.5174 7.10507 16.4021 6.88809 16.4049 6.65664V4.85871C16.3925 4.3358 16.0237 3.88909 15.512 3.77694C14.4373 3.46346 13.3453 3.21263 12.2414 3.02572C12.0709 2.98981 11.8945 2.99152 11.7247 3.03073C10.7465 3.24608 9.76334 3.43639 8.79519 3.70683C8.22333 3.86208 7.62137 4.1776 7.62137 4.85871V6.64161C7.6269 6.87631 7.50888 7.09674 7.31036 7.22256C6.9606 7.43783 6.74787 7.81898 6.74854 8.2292V15.8115C6.75204 16.1659 6.91394 16.5002 7.18997 16.723L9.11122 18.1253L7.56118 21H8.82529L9.046 20.6044H14.9803L15.206 21H16.4601L14.9201 18.1253H14.9251L16.8062 16.7381C17.0878 16.5126 17.2519 16.1719 17.2527 15.8115V8.2292C17.2528 7.82682 17.0489 7.45171 16.7109 7.23257ZM12.9237 4.42796C12.9237 4.31436 12.9753 4.20689 13.0641 4.1358C13.1528 4.06472 13.2691 4.0377 13.3802 4.06236L15.2362 4.453C15.4088 4.48667 15.533 4.63804 15.5322 4.81359V5.91538C15.5323 6.02743 15.4824 6.1337 15.3961 6.20534C15.3098 6.27697 15.196 6.30653 15.0857 6.28599L13.2297 5.9254C13.0526 5.88982 12.9249 5.73509 12.9237 5.55479V4.42796ZM13.9622 18.7765H10.0545L10.3856 18.1756H13.6261L13.9622 18.7765ZM12.0005 8.31446C12.7499 8.31307 13.3585 8.91847 13.3599 9.66666C13.3613 10.4148 12.7549 11.0225 12.0055 11.0239C11.2561 11.0252 10.6475 10.4198 10.6461 9.67167C10.6452 9.31232 10.7875 8.96737 11.0415 8.7128C11.2956 8.45824 11.6405 8.31493 12.0005 8.31446ZM8.58444 4.81364C8.58195 4.63578 8.70974 4.48268 8.88542 4.45305L10.7364 4.06242C10.847 4.03797 10.9626 4.06522 11.0506 4.13642C11.1385 4.20762 11.1891 4.31499 11.1879 4.42801V5.55485C11.189 5.73425 11.063 5.88942 10.8869 5.92545L9.03089 6.28604C8.92056 6.30658 8.8068 6.27702 8.72051 6.20539C8.63421 6.13375 8.58434 6.02748 8.58444 5.91543V4.81364ZM8.98563 16.7883C8.57635 16.7893 8.20685 16.5438 8.04976 16.1665C7.89267 15.7892 7.97898 15.3546 8.26839 15.0656C8.55779 14.7767 8.99316 14.6905 9.37109 14.8473C9.74902 15.0042 9.99492 15.3731 9.99391 15.7817C9.99391 16.3376 9.54248 16.7883 8.98563 16.7883ZM9.37709 19.9984L9.72322 19.3774H14.2981L14.6442 19.9984H9.37709ZM15.0053 16.7883C14.596 16.7893 14.2265 16.5438 14.0694 16.1665C13.9123 15.7892 13.9987 15.3546 14.2881 15.0656C14.5775 14.7767 15.0128 14.6905 15.3908 14.8473C15.7687 15.0042 16.0146 15.3731 16.0136 15.7817C16.0136 16.3376 15.5622 16.7883 15.0053 16.7883Z" fill="#192026"/>
</svg>
