<svg width="50" height="48" viewBox="0 0 50 48" fill="none" xmlns="http://www.w3.org/2000/svg">
<path d="M24.9932 1.95801C25.5593 1.95801 26.0671 2.28026 26.3047 2.77344L26.3066 2.77832L32.166 14.835L32.5029 15.5283L33.2656 15.6406L46.3584 17.5713V17.5723C46.9042 17.6543 47.3564 18.0363 47.5312 18.5654H47.5322C47.6818 19.0188 47.5937 19.5189 47.3066 19.8965L47.1709 20.0508L37.6748 29.4473L37.1357 29.9805L37.2627 30.7275L39.5127 44.001V44.002C39.6031 44.5445 39.3786 45.1006 38.918 45.4355C38.4758 45.7571 37.8787 45.8 37.375 45.5342L25.6895 39.2949L25.0029 38.9287L24.3154 39.2949L12.6289 45.5342C12.1332 45.7958 11.5319 45.7544 11.0791 45.4297C10.6312 45.1084 10.4008 44.5503 10.4922 44.002L10.4912 44.001L12.7334 30.7266L12.8594 29.9795L12.3213 29.4473L2.8252 20.0508H2.82422C2.43864 19.6697 2.29595 19.0877 2.46777 18.5537C2.63272 18.0415 3.08395 17.6554 3.6377 17.5723L3.63672 17.5713L16.7217 15.6406L17.4834 15.5283L17.8203 14.835L23.6797 2.77734C23.9301 2.2722 24.4362 1.95807 24.9932 1.95801Z" stroke="#8A9299" stroke-width="2.91667"/>
</svg>
