<svg width="35" height="35" viewBox="0 0 35 35" fill="none" xmlns="http://www.w3.org/2000/svg">
<path fill-rule="evenodd" clip-rule="evenodd" d="M31.8462 0C33.3756 0 34.6154 1.23983 34.6154 2.76923C34.6154 4.29864 33.3756 5.53846 31.8462 5.53846C26.3261 5.53846 21.2031 7.2386 16.9722 10.1438L13.0005 6.17212C18.2775 2.29217 24.7941 0 31.8462 0ZM22.9962 16.1677L27.1341 20.3056C28.5877 19.7114 30.1787 19.3839 31.8462 19.3839C33.3756 19.3839 34.6154 18.1441 34.6154 16.6147C34.6154 15.0853 33.3756 13.8454 31.8462 13.8454C28.6293 13.8454 25.6096 14.6893 22.9962 16.1677ZM6.17212 13.0005C2.29217 18.2775 0 24.7941 0 31.8462C0 33.3756 1.23983 34.6154 2.76923 34.6154C4.29864 34.6154 5.53846 33.3756 5.53846 31.8462C5.53846 26.3261 7.2386 21.2031 10.1438 16.9722L6.17212 13.0005ZM16.168 22.9964C14.6899 25.6096 13.8462 28.629 13.8462 31.8455C13.8462 33.3749 15.086 34.6147 16.6154 34.6147C18.1448 34.6147 19.3847 33.3749 19.3847 31.8455C19.3847 30.1784 19.712 28.5878 20.306 27.1344L16.168 22.9964ZM5.41421 2.58579C4.63317 1.80474 3.36684 1.80474 2.58579 2.58579C1.80474 3.36684 1.80474 4.63317 2.58579 5.41421L30.5858 33.4142C31.3668 34.1953 32.6332 34.1953 33.4142 33.4142C34.1953 32.6332 34.1953 31.3668 33.4142 30.5858L5.41421 2.58579Z" fill="#8A9299"/>
</svg>
