<svg width="48" height="48" viewBox="0 0 48 48" fill="none" xmlns="http://www.w3.org/2000/svg">
<path d="M35.8355 32.0084C36.0175 33.0979 35.1046 34 34 34H14C12.8954 34 11.9825 33.0978 12.1645 32.0084C13.1132 26.3288 18.0511 22 24 22C29.9489 22 34.8868 26.3288 35.8355 32.0084Z" fill="#ED8B00"/>
<path d="M22 12C22 10.8954 22.8954 10 24 10C25.1046 10 26 10.8954 26 12V16C26 17.1046 25.1046 18 24 18C22.8954 18 22 17.1046 22 16V12Z" fill="#ED8B00"/>
<path d="M2 34C0.895431 34 0 33.1046 0 32C0 30.8954 0.895431 30 2 30H6C7.10457 30 8 30.8954 8 32C8 33.1046 7.10457 34 6 34H2Z" fill="#ED8B00"/>
<path d="M42 34C40.8954 34 40 33.1046 40 32C40 30.8954 40.8954 30 42 30H46C47.1046 30 48 30.8954 48 32C48 33.1046 47.1046 34 46 34H42Z" fill="#ED8B00"/>
<path d="M7.02945 19.8576C6.2484 19.0765 6.2484 17.8102 7.02945 17.0291C7.8105 16.2481 9.07683 16.2481 9.85787 17.0291L12.6863 19.8576C13.4674 20.6386 13.4674 21.905 12.6863 22.686C11.9053 23.467 10.6389 23.467 9.85787 22.686L7.02945 19.8576Z" fill="#ED8B00"/>
<path d="M38.1424 17.0294C38.9235 16.2484 40.1898 16.2484 40.9709 17.0294C41.7519 17.8105 41.7519 19.0768 40.9709 19.8579L38.1424 22.6863C37.3614 23.4674 36.095 23.4674 35.314 22.6863C34.533 21.9053 34.533 20.6389 35.314 19.8579L38.1424 17.0294Z" fill="#ED8B00"/>
</svg>
