<svg width="6" height="10" viewBox="0 0 6 10" fill="none" xmlns="http://www.w3.org/2000/svg">
<path d="M1.95279 6.80486V6.68484C1.95587 6.12778 2.00819 5.6846 2.10975 5.35529C2.21439 5.02598 2.36212 4.7613 2.55293 4.56126C2.74375 4.35813 2.97611 4.17193 3.25002 4.00266C3.43776 3.88571 3.60549 3.75799 3.75322 3.6195C3.90402 3.47792 4.02251 3.32096 4.10869 3.14861C4.19486 2.97319 4.23795 2.77776 4.23795 2.56232C4.23795 2.31919 4.18101 2.10837 4.06714 1.92986C3.95327 1.75136 3.79938 1.61287 3.60549 1.51438C3.41468 1.4159 3.20078 1.36665 2.9638 1.36665C2.74529 1.36665 2.53755 1.41436 2.34058 1.50977C2.14668 1.60209 1.98511 1.74367 1.85585 1.93448C1.72966 2.12222 1.65888 2.36074 1.64349 2.65004H2.2199e-05C0.0154105 2.06528 0.156982 1.57593 0.424738 1.182C0.695571 0.788056 1.05258 0.492601 1.49576 0.295631C1.94202 0.098662 2.43444 0.000177205 2.97303 0.000177205C3.56087 0.000177205 4.07791 0.103279 4.52417 0.309481C4.97351 0.515684 5.32282 0.8096 5.57211 1.19123C5.82448 1.56978 5.95066 2.01912 5.95066 2.53924C5.95066 2.89009 5.89373 3.20401 5.77985 3.481C5.66906 3.75799 5.51056 4.0042 5.30435 4.21964C5.09815 4.43507 4.85348 4.62743 4.57033 4.7967C4.32105 4.95058 4.11638 5.11062 3.95634 5.27681C3.79938 5.443 3.68243 5.63843 3.60549 5.8631C3.53163 6.08469 3.49316 6.35861 3.49008 6.68484V6.80486H1.95279ZM2.75606 9.68555C2.47907 9.68555 2.24055 9.58706 2.04051 9.39009C1.84046 9.19312 1.74043 8.95307 1.74043 8.66992C1.74043 8.39293 1.84046 8.15595 2.04051 7.95898C2.24055 7.76201 2.47907 7.66353 2.75606 7.66353C3.02997 7.66353 3.26695 7.76201 3.467 7.95898C3.67012 8.15595 3.77168 8.39293 3.77168 8.66992C3.77168 8.85766 3.72398 9.02847 3.62857 9.18235C3.53624 9.33623 3.41314 9.45934 3.25926 9.55167C3.10845 9.64092 2.94072 9.68555 2.75606 9.68555Z" fill="white"/>
</svg>
