<svg fill="none" height="108" viewBox="0 0 358 108" width="358" xmlns="http://www.w3.org/2000/svg"><path clip-rule="evenodd" d="m191.803 25.4338-1.244-9.7312c-.316-1.7559-1.428-2.4411-3.084-3.1597-2.712-.9665-5.572-1.4879-8.462-1.5429-2.894.0556-5.758.577-8.476 1.5429-1.635.705-2.747 1.4035-3.084 3.1594l-1.25 9.7315v13.4629h2.195v2.3446c.003.9632.808 1.7432 1.803 1.7459.995-.0029 1.8-.7829 1.803-1.746v-2.3447h14.064v2.3447c-.005.6268.338 1.208.897 1.5227.56.3148 1.251.3148 1.811 0 .56-.3147.903-.8959.898-1.5227v-2.3447h2.129zm-18.058-11.9729h10.578c.448 0 .81.3515.81.7849 0 .4335-.362.785-.81.785h-10.578c-.448 0-.811-.3515-.811-.785 0-.4334.363-.7849.811-.7849zm-5.268 11.6871 1.029-7.6826c.086-.4844.523-.8367 1.03-.8314h17.084c.506-.0051.94.3479 1.023.8314l1.03 7.6826c.014.0882.014.1779 0 .2661v.0531c.001.2643-.107.5181-.301.7044-.193.1863-.456.2896-.729.2867h-19.184c-.274-.0119-.531-.1287-.715-.3247-.184-.1959-.281-.4548-.267-.7195-.014-.0882-.014-.1779 0-.2661zm1.725 9.5847c-1.061.0018-1.922-.8289-1.924-1.8557-.002-1.0267.856-1.8606 1.917-1.8625 1.06-.002 1.922.8287 1.924 1.8554.001.4932-.2.9667-.56 1.3161-.359.3494-.848.5461-1.357.5467zm15.749-1.8604c.001-1.0258.86-1.8572 1.92-1.8578 1.059-.0007 1.919.8296 1.921 1.8554.002.4945-.201.9691-.562 1.3187s-.851.5454-1.362.5441c-1.06-.002-1.918-.8346-1.917-1.8604z" fill="#192026" fill-rule="evenodd"/></svg>
