<svg width="24" height="24" viewBox="0 0 24 24" fill="none" xmlns="http://www.w3.org/2000/svg">
<path d="M12.903 4.5625C12.7374 4.21875 12.3874 4 12.003 4C11.6187 4 11.2718 4.21875 11.103 4.5625L9.09366 8.69688L4.60616 9.35938C4.23116 9.41563 3.91866 9.67812 3.80303 10.0375C3.68741 10.3969 3.78116 10.7937 4.04991 11.0594L7.30616 14.2812L6.53741 18.8344C6.47491 19.2094 6.63116 19.5906 6.94053 19.8125C7.24991 20.0344 7.65928 20.0625 7.99678 19.8844L12.0062 17.7437L16.0155 19.8844C16.353 20.0625 16.7624 20.0375 17.0718 19.8125C17.3812 19.5875 17.5374 19.2094 17.4749 18.8344L16.703 14.2812L19.9593 11.0594C20.228 10.7937 20.3249 10.3969 20.2062 10.0375C20.0874 9.67812 19.778 9.41563 19.403 9.35938L14.9124 8.69688L12.903 4.5625Z" fill="#192026"/>
</svg>
