<svg width="20" height="20" viewBox="0 0 20 20" fill="none" xmlns="http://www.w3.org/2000/svg">
<path fill-rule="evenodd" clip-rule="evenodd" d="M8.60964 0.575905L0.575906 8.60964C-0.191968 9.37752 -0.191969 10.6225 0.575905 11.3904L8.60964 19.4241C9.37752 20.192 10.6225 20.192 11.3904 19.4241L19.4241 11.3904C20.192 10.6225 20.192 9.37752 19.4241 8.60964L11.3904 0.575906C10.6225 -0.191968 9.37752 -0.191969 8.60964 0.575905ZM8.6116 6.56424C8.56148 5.76229 9.19838 5.08434 10.0019 5.08434C10.8054 5.08434 11.4423 5.76229 11.3922 6.56424L11.1475 10.4784C11.1097 11.0834 10.6081 11.5547 10.0019 11.5547C9.39573 11.5547 8.89404 11.0834 8.85623 10.4784L8.6116 6.56424ZM8.78895 14.1156C8.78895 13.4456 9.33211 12.9024 10.0021 12.9024C10.6722 12.9024 11.2153 13.4456 11.2153 14.1156C11.2153 14.7857 10.6722 15.3288 10.0021 15.3288C9.33211 15.3288 8.78895 14.7857 8.78895 14.1156Z" fill="#192026"/>
</svg>
