<svg fill="none" height="48" viewBox="0 0 48 48" width="48" xmlns="http://www.w3.org/2000/svg">
<path clip-rule="evenodd" d="M20.66314 1.38217L1.38217 20.66314C-0.46072 22.50605 -0.46073 25.494 1.38217 27.33696L20.66314 46.61784C22.50605 48.4608 25.494 48.4608 27.33696 46.61784L46.61784 27.33696C48.4608 25.494 48.4608 22.50605 46.61784 20.66314L27.33696 1.38217C25.494 -0.46072 22.50605 -0.46073 20.66314 1.38217ZM20.66784 15.75418C20.54755 13.8295 22.07611 12.20242 24.00456 12.20242C25.93296 12.20242 27.46152 13.8295 27.34128 15.75418L26.754 25.14816C26.66328 26.60016 25.45944 27.73128 24.00456 27.73128C22.54975 27.73128 21.3457 26.60016 21.25495 25.14816L20.66784 15.75418ZM21.09348 33.87744C21.09348 32.26944 22.39706 30.96576 24.00504 30.96576C25.61328 30.96576 26.91672 32.26944 26.91672 33.87744C26.91672 35.48568 25.61328 36.78912 24.00504 36.78912C22.39706 36.78912 21.09348 35.48568 21.09348 33.87744Z" fill="#192026" fill-rule="evenodd"/>
</svg>
