<svg width="40" height="24" viewBox="0 0 40 24" fill="none" xmlns="http://www.w3.org/2000/svg">
<rect width="40" height="24" rx="12" fill="#003DA5"/>
<rect x="0.5" y="0.5" width="39" height="23" rx="11.5" stroke="white" stroke-opacity="0.15"/>
<path d="M12.991 11.2H15.535C15.983 11.2 16.351 11.0933 16.639 10.88C16.927 10.6667 17.071 10.32 17.071 9.84C17.071 9.57333 17.023 9.35467 16.927 9.184C16.831 9.01333 16.703 8.88 16.543 8.784C16.383 8.688 16.1963 8.624 15.983 8.592C15.7803 8.54933 15.567 8.528 15.343 8.528H12.991V11.2ZM10.479 6.576H15.855C16.399 6.576 16.895 6.624 17.343 6.72C17.791 6.816 18.175 6.976 18.495 7.2C18.815 7.41333 19.0603 7.70133 19.231 8.064C19.4123 8.42667 19.503 8.87467 19.503 9.408C19.503 9.984 19.3697 10.464 19.103 10.848C18.847 11.232 18.463 11.5467 17.951 11.792C18.655 11.9947 19.1777 12.352 19.519 12.864C19.871 13.3653 20.047 13.9733 20.047 14.688C20.047 15.264 19.935 15.7653 19.711 16.192C19.487 16.608 19.183 16.9493 18.799 17.216C18.4257 17.4827 17.9937 17.68 17.503 17.808C17.023 17.936 16.527 18 16.015 18H10.479V6.576ZM12.991 16.048H15.679C15.9243 16.048 16.159 16.0267 16.383 15.984C16.607 15.9307 16.8043 15.8507 16.975 15.744C17.1457 15.6267 17.279 15.472 17.375 15.28C17.4817 15.088 17.535 14.8427 17.535 14.544C17.535 13.9573 17.3697 13.5413 17.039 13.296C16.7083 13.04 16.271 12.912 15.727 12.912H12.991V16.048ZM22.2446 6.576H24.7566V15.888H30.3246V18H22.2446V6.576Z" fill="white"/>
</svg>
