<svg fill="none" height="24" viewBox="0 0 24 24" width="24" xmlns="http://www.w3.org/2000/svg"><path clip-rule="evenodd" d="m3.70711 2.29289c-.39053-.39052-1.02369-.39052-1.41422 0-.39052.39053-.39052 1.02369 0 1.41422l18.00001 17.99999c.3905.3905 1.0237.3905 1.4142 0s.3905-1.0237 0-1.4142zm1.89302 8.42401.21337-1.66096.99365.99366-.0703.5244c-.00685.0441-.00685.0889 0 .133-.00659.1324.04149.2618.13364.3598.09214.098.22076.1564.35746.1624h.75878l6.21907 6.219h-5.7052v1.1724c-.00147.4815-.40424.8716-.90152.873-.49732-.0013-.90018-.3913-.90167-.8729v-1.1724h-1.09728zm11.21997.5123h-2.3481l3.9281 3.928-.0001-4.4403-.6218-4.86561c-.1579-.87795-.7142-1.22054-1.5419-1.57983-1.3562-.48324-2.7862-.74398-4.2311-.77146-1.4471.02779-2.87928.2885-4.238.77146-.05985.02581-.11831.0516-.17531.07759l1.96797 1.96797h6.74854c.2531-.00256.4703.17391.5117.41569l.5149 3.84129c.0069.0441.0069.0889 0 .133v.0266c.0006.1322-.0535.259-.1503.3522-.0968.0931-.2281.1448-.3646.1434zm-7.44904-6.49873h5.28894c.2238 0 .4053.17571.4053.39245 0 .21675-.1815.39246-.4053.39246h-5.28894c-.22382 0-.40527-.17571-.40527-.39246 0-.21674.18145-.39245.40527-.39245zm-1.77161 10.63583c-.53033.001-.96104-.4144-.96203-.9278-.001-.5133.4281-.9303.95844-.9313.53033-.001.96108.4144.96213.9277.00066.2467-.1.4834-.2798.6581s-.42398.273-.67874.2733z" fill="#626a73" fill-rule="evenodd"/></svg>
