<svg width="56" height="24" viewBox="0 0 56 24" fill="none" xmlns="http://www.w3.org/2000/svg">
<rect width="56" height="24" rx="12" fill="#00843D"/>
<rect x="0.5" y="0.5" width="55" height="23" rx="11.5" stroke="white" stroke-opacity="0.15"/>
<path d="M17.0709 16.704C16.6229 17.28 16.1269 17.6853 15.5829 17.92C15.0389 18.144 14.4896 18.256 13.9349 18.256C13.0603 18.256 12.2709 18.1067 11.5669 17.808C10.8736 17.4987 10.2869 17.0773 9.80694 16.544C9.32694 16.0107 8.95894 15.3867 8.70294 14.672C8.44694 13.9467 8.31894 13.168 8.31894 12.336C8.31894 11.4827 8.44694 10.6933 8.70294 9.968C8.95894 9.232 9.32694 8.592 9.80694 8.048C10.2869 7.504 10.8736 7.07733 11.5669 6.768C12.2709 6.45867 13.0603 6.304 13.9349 6.304C14.5216 6.304 15.0869 6.39467 15.6309 6.576C16.1856 6.74667 16.6816 7.00267 17.1189 7.344C17.5669 7.68533 17.9349 8.10667 18.2229 8.608C18.5109 9.10933 18.6869 9.68533 18.7509 10.336H16.3509C16.2016 9.696 15.9136 9.216 15.4869 8.896C15.0603 8.576 14.5429 8.416 13.9349 8.416C13.3696 8.416 12.8896 8.528 12.4949 8.752C12.1003 8.96533 11.7803 9.25867 11.5349 9.632C11.2896 9.99467 11.1083 10.4107 10.9909 10.88C10.8843 11.3493 10.8309 11.8347 10.8309 12.336C10.8309 12.816 10.8843 13.2853 10.9909 13.744C11.1083 14.192 11.2896 14.5973 11.5349 14.96C11.7803 15.3227 12.1003 15.616 12.4949 15.84C12.8896 16.0533 13.3696 16.16 13.9349 16.16C14.7669 16.16 15.4069 15.952 15.8549 15.536C16.3136 15.1093 16.5803 14.496 16.6549 13.696H14.1269V11.824H18.9269V18H17.3269L17.0709 16.704ZM21.4556 6.576H23.9676V15.888H29.5356V18H21.4556V6.576ZM34.9279 12.272C34.9279 12.7627 34.7626 13.1733 34.4319 13.504C34.1119 13.8347 33.7013 14 33.1999 14C32.6986 14 32.2826 13.8347 31.9519 13.504C31.6319 13.1733 31.4719 12.7627 31.4719 12.272C31.4719 11.7707 31.6319 11.36 31.9519 11.04C32.2826 10.7093 32.6986 10.544 33.1999 10.544C33.7013 10.544 34.1119 10.7093 34.4319 11.04C34.7626 11.36 34.9279 11.7707 34.9279 12.272ZM40.0457 15.888H42.2857C42.6484 15.888 43.0004 15.8293 43.3417 15.712C43.683 15.5947 43.987 15.4027 44.2537 15.136C44.5204 14.8587 44.7337 14.5013 44.8937 14.064C45.0537 13.6267 45.1337 13.0933 45.1337 12.464C45.1337 11.888 45.075 11.3707 44.9577 10.912C44.851 10.4427 44.6697 10.0427 44.4137 9.712C44.1577 9.38133 43.8164 9.13067 43.3897 8.96C42.9737 8.77867 42.4564 8.688 41.8377 8.688H40.0457V15.888ZM37.5337 6.576H42.4617C43.1977 6.576 43.8804 6.69333 44.5097 6.928C45.1497 7.16267 45.699 7.51467 46.1577 7.984C46.627 8.45333 46.9897 9.04 47.2457 9.744C47.5124 10.448 47.6457 11.2747 47.6457 12.224C47.6457 13.056 47.539 13.824 47.3257 14.528C47.1124 15.232 46.787 15.84 46.3497 16.352C45.923 16.864 45.3844 17.2693 44.7337 17.568C44.0937 17.856 43.3364 18 42.4617 18H37.5337V6.576Z" fill="white"/>
</svg>
