<svg width="40" height="24" viewBox="0 0 40 24" fill="none" xmlns="http://www.w3.org/2000/svg">
<rect width="40" height="24" rx="12" fill="#DA291C"/>
<rect x="0.5" y="0.5" width="39" height="23" rx="11.5" stroke="white" stroke-opacity="0.15"/>
<path d="M12.8504 11.744H15.6024C16.1784 11.744 16.6104 11.616 16.8984 11.36C17.1864 11.104 17.3304 10.688 17.3304 10.112C17.3304 9.55733 17.1864 9.15733 16.8984 8.912C16.6104 8.656 16.1784 8.528 15.6024 8.528H12.8504V11.744ZM10.3384 6.576H16.4984C17.0104 6.576 17.469 6.66133 17.8744 6.832C18.2904 6.992 18.6424 7.216 18.9304 7.504C19.229 7.792 19.453 8.128 19.6024 8.512C19.7624 8.88533 19.8424 9.29067 19.8424 9.728C19.8424 10.4 19.6984 10.9813 19.4104 11.472C19.133 11.9627 18.6744 12.336 18.0344 12.592V12.624C18.3437 12.7093 18.5997 12.8427 18.8024 13.024C19.005 13.1947 19.1704 13.4027 19.2984 13.648C19.4264 13.8827 19.517 14.144 19.5704 14.432C19.6344 14.72 19.677 15.008 19.6984 15.296C19.709 15.4773 19.7197 15.6907 19.7304 15.936C19.741 16.1813 19.757 16.432 19.7784 16.688C19.8104 16.944 19.853 17.1893 19.9064 17.424C19.9704 17.648 20.061 17.84 20.1784 18H17.6664C17.5277 17.6373 17.4424 17.2053 17.4104 16.704C17.3784 16.2027 17.3304 15.7227 17.2664 15.264C17.181 14.6667 16.9997 14.2293 16.7224 13.952C16.445 13.6747 15.9917 13.536 15.3624 13.536H12.8504V18H10.3384V6.576ZM22.3853 6.576H24.8973V15.888H30.4653V18H22.3853V6.576Z" fill="white"/>
</svg>
