<svg fill="none" height="844" viewBox="0 0 390 844" width="390" xmlns="http://www.w3.org/2000/svg" xmlns:xlink="http://www.w3.org/1999/xlink"><clipPath id="a"><path d="m0 0h390v844h-390z"/></clipPath><g clip-path="url(#a)"><circle cx="195" cy="288" fill="#66b2ff" r="12"/><circle cx="195" cy="288" r="14" stroke="#000" stroke-opacity=".5" stroke-width="4"/><circle cx="113" cy="212" fill="#00843d" r="22"/><circle cx="113" cy="212" r="24" stroke="#000" stroke-opacity=".5" stroke-width="4"/><path d="m-109 213.5h203.0186c11.4324 0 21.9964-6.099 27.7124-16l164.257-284.5" stroke="#00843d" stroke-width="8"/><g fill="#fff"><path d="m111.886 201.027c-.224 0-.439-.089-.598-.248s-.248-.374-.248-.599c0-.467.379-.846.847-.846.467 0 .846.379.846.846 0 .468-.379.847-.847.847z"/><path d="m114.133 201.027c.468 0 .847-.379.847-.846 0-.468-.379-.847-.847-.847-.467 0-.846.379-.846.847 0 .224.089.439.247.598.159.159.375.248.599.248z"/><path clip-rule="evenodd" d="m117.473 218.06c1.356-.304 2.324-1.503 2.333-2.893v-10.886c-.032-1.653-1.393-2.969-3.046-2.947h-7.52c-1.656-.03-3.024 1.285-3.06 2.94v10.893c.01 1.39.977 2.589 2.333 2.893l-3.513 5.274h2.04l2.513-3.687h6.933l2.514 3.687h2zm-6.453-15.593c.011-.272.234-.486.507-.486h2.973c.269.003.489.217.5.486v.867l-.001.02c-.011.276-.243.49-.519.479l-2.953-.006c-.133.001-.261-.049-.356-.142-.095-.092-.149-.219-.151-.351zm-3.099 13.177c.207.498.693.822 1.232.822.737 0 1.334-.596 1.334-1.332 0-.539-.325-1.025-.824-1.232-.498-.206-1.071-.092-1.453.289-.381.381-.495.955-.289 1.453zm1.406-6.263c-.046.002-.092.002-.137 0-.385-.018-.747-.189-1.007-.474-.259-.285-.395-.661-.376-1.046v-1.96c-.024-.411.129-.812.419-1.103s.69-.445 1.101-.424h7.333c.41-.021.81.133 1.101.424.29.292.442.692.419 1.103v1.96c.002.045.002.091 0 .136-.018.385-.189.747-.474 1.007-.285.259-.661.395-1.046.377zm6.126 5.742c-.002.739.595 1.34 1.333 1.343h.014c.738-.003 1.335-.604 1.333-1.343-.002-.738-.601-1.336-1.34-1.336s-1.338.598-1.34 1.336z" fill-rule="evenodd"/></g><circle cx="195" cy="390" fill="#80276c" r="22"/><circle cx="195" cy="390" r="24" stroke="#000" stroke-opacity=".5" stroke-width="4"/><path d="m-77.9998 232 272.9998 157.617s240 138.883 240 380.383" stroke="#80276c" stroke-width="8"/><path clip-rule="evenodd" d="m201.281 383.643c-.258-.17-.411-.459-.408-.767v-2.398c-.016-.697-.508-1.293-1.19-1.442-1.433-.418-2.889-.752-4.361-1.002-.228-.048-.463-.045-.689.007-1.304.287-2.615.541-3.906.901-.763.207-1.565.628-1.565 1.536v2.377c.007.313-.15.607-.415.775-.466.287-.75.795-.749 1.342v10.11c.005.473.221.918.589 1.215l2.561 1.87-2.066 3.833h1.685l.294-.528h7.913l.301.528h1.672l-2.054-3.833h.007l2.508-1.85c.376-.3.595-.754.596-1.235v-10.11c0-.536-.272-1.036-.723-1.329zm-5.049-3.739c0-.152.068-.295.187-.39.118-.094.273-.13.421-.098l2.475.521c.23.045.396.247.395.481v1.469c0 .15-.067.291-.182.387-.115.095-.267.135-.414.107l-2.474-.48c-.236-.048-.407-.254-.408-.495zm1.384 19.131h-5.21l.441-.801h4.321zm-2.615-13.949c.999-.002 1.81.805 1.812 1.803.002.997-.806 1.808-1.806 1.809-.999.002-1.81-.805-1.812-1.802-.001-.48.188-.94.527-1.279s.799-.53 1.279-.531zm-4.555-4.668c-.003-.237.167-.441.401-.481l2.468-.52c.148-.033.302.003.419.098s.185.238.183.389v1.502c.002.24-.166.447-.401.495l-2.475.48c-.147.028-.299-.012-.414-.107-.115-.096-.181-.237-.181-.387zm.535 15.966c-.546.002-1.039-.326-1.248-.829s-.094-1.082.292-1.468c.385-.385.966-.5 1.47-.291.504.21.832.701.83 1.246 0 .742-.602 1.342-1.344 1.342zm.522 4.281.461-.829h6.1l.462.829zm7.504-4.281c-.546.002-1.038-.326-1.248-.829-.209-.503-.094-1.082.292-1.468.386-.385.966-.5 1.47-.291.504.21.832.701.83 1.246 0 .742-.601 1.342-1.344 1.342z" fill="#fff" fill-rule="evenodd"/><circle cx="301" cy="268" fill="#ffc72c" r="22"/><circle cx="301" cy="268" r="24" stroke="#000" stroke-opacity=".5" stroke-width="4"/><path d="m430.142-135.393-197 341.214c-5.523 9.566-2.245 21.798 7.321 27.321l341.214 197" stroke="#ffc72c" stroke-width="8"/><path clip-rule="evenodd" d="m309.533 266.291-.829-6.488c-.21-1.171-.952-1.627-2.056-2.106-1.808-.645-3.715-.992-5.641-1.029-1.93.037-3.839.385-5.651 1.029-1.09.47-1.831.935-2.056 2.106l-.833 6.488v8.975h1.463v1.563c.002.642.539 1.162 1.202 1.164.663-.002 1.2-.522 1.202-1.164v-1.563h9.376v1.563c-.003.418.225.805.598 1.015.374.21.834.21 1.207 0 .374-.21.602-.597.599-1.015v-1.563h1.419zm-12.038-7.982h7.052c.298 0 .54.234.54.523s-.242.523-.54.523h-7.052c-.299 0-.541-.234-.541-.523s.242-.523.541-.523zm-3.513 7.791.687-5.122c.057-.323.348-.558.687-.554h11.388c.338-.003.628.232.683.554l.686 5.122c.009.059.009.119 0 .177v.036c.001.176-.071.345-.2.469-.129.125-.304.193-.486.192h-12.79c-.182-.008-.354-.086-.476-.217-.123-.131-.187-.303-.179-.48-.009-.058-.009-.118 0-.177zm1.151 6.39c-.708.001-1.282-.553-1.283-1.237-.001-.685.571-1.241 1.278-1.242s1.281.552 1.283 1.237c0 .329-.134.644-.373.877-.24.233-.566.364-.905.365zm10.499-1.24c.001-.684.573-1.239 1.28-1.239.706-.001 1.28.553 1.281 1.237.001.33-.134.646-.375.879s-.568.364-.908.363c-.706-.002-1.278-.557-1.278-1.24z" fill="#192026" fill-rule="evenodd"/></g></svg>
