<svg fill="none" height="24" viewBox="0 0 24 24" width="24" xmlns="http://www.w3.org/2000/svg" xmlns:xlink="http://www.w3.org/1999/xlink"><mask id="a" fill="#000" height="24" maskUnits="userSpaceOnUse" width="24" x="0" y="0"><path d="m0 0h24v24h-24z" fill="#fff"/><path clip-rule="evenodd" d="m12.0518 21.9999c5.6016-.1438 10.0912-4.6981 9.9446-10.0532-.1513-5.52087-4.5298-9.97572-10.0515-9.94656-5.52189.02954-9.97428 4.53057-9.94475 10.05336.02953 5.5227 4.5298 9.9759 10.05165 9.9464" fill="#000" fill-rule="evenodd"/></mask><path clip-rule="evenodd" d="m12.0518 21.9999c5.6016-.1438 10.0912-4.6981 9.9446-10.0532-.1513-5.52087-4.5298-9.97572-10.0515-9.94656-5.52189.02954-9.97428 4.53057-9.94475 10.05336.02953 5.5227 4.5298 9.9759 10.05165 9.9464" fill="#7c878e" fill-rule="evenodd"/><path d="m21.9964 11.9467 1.9992-.0548zm-10.0515-9.94656-.0106-1.9999697-.0001.00000071zm.1582 21.99906c6.6288-.1701 12.0716-5.5699 11.8925-12.1073l-3.9985.1095c.1143 4.1729-3.4222 7.8817-7.9966 7.9991zm11.8925-12.1073c-.1794-6.55012-5.3954-11.9269391-12.0613-11.8917297l.0211 3.9999397c4.3777-.02312 7.9187 3.50977 8.0417 8.00129zm-12.0614-11.89172899c-6.62675.03544499-11.9694601 5.43699899-11.93402536 12.06402899l3.99994536-.0214c-.02363-4.41855 3.53846-8.01906 7.95548-8.04269zm-11.93402536 12.06402899c.03543476 6.627 5.43560536 11.9711 12.06232536 11.9356l-.0214-3.9999c-4.41697.0236-8.01736-3.5386-8.04098-7.9571z" fill="#7c878e" mask="url(#a)"/><path clip-rule="evenodd" d="m21.9964 11.9467c.1466 5.3551-4.343 9.9094-9.9446 10.0532-5.52185.0295-10.02212-4.4237-10.05165-9.9464-.02953-5.52279 4.42286-10.02382 9.94475-10.05336 5.5217-.02916 9.9002 4.42569 10.0515 9.94656zm-5.1821-5.07064.5182 4.05464.0001 5.6095h-.8873v.9769c.002.2612-.1407.5034-.374.6345-.2332.1312-.5212.1312-.7544 0-.2333-.1311-.376-.3733-.3741-.6345v-.9769h-5.85983v.9769c-.00122.4013-.33686.7264-.75127.7275-.41443-.0011-.75014-.3261-.75139-.7274v-.9769h-.9144v-5.6096l.5209-4.05476c.14022-.73163.60384-1.02265 1.28499-1.31641 1.13227-.40247 2.3258-.61973 3.5317-.64288 1.204.0229 2.3957.24018 3.5259.64288.6897.2994 1.1533.5849 1.2849 1.31653zm-2.5985-.93402h-4.40744c-.18652 0-.33773.14642-.33773.32704s.15121.32705.33773.32705h4.40744c.1865 0 .3377-.14643.3377-.32705s-.1512-.32704-.3377-.32704zm-6.17353 1.66853-.42909 3.20103c-.00571.0368-.00571.0742 0 .1109-.00549.1103.03458.2182.11136.2998.07679.0817.18398.1303.29789.1353h7.99347c.1137.0012.2232-.0418.3038-.1195.0807-.0776.1258-.1833.1253-.2935v-.0221c.0057-.0367.0057-.0741 0-.1109l-.4291-3.20103c-.0345-.20148-.2155-.34854-.4264-.34641h-7.11814c-.21146-.0022-.39329.14459-.42909.34641zm-.51195 6.42153c.00083.4278.35975.7739.80169.7732.2123-.0003.41579-.0822.56562-.2278s.23371-.3429.23317-.5484c-.00088-.4278-.35984-.7739-.80178-.7731-.44195.0008-.79953.3483-.7987.7761zm8.16368-.7761c-.4416.0003-.7994.3467-.7997.7741s.3571.7743.7985.7752c.2129.0005.4172-.0811.5677-.2267.1505-.1457.2348-.3435.2343-.5495-.0009-.4274-.3593-.7734-.8008-.7731z" fill="#fff" fill-rule="evenodd"/></svg>
