<svg fill="none" height="108" viewBox="0 0 358 108" width="358" xmlns="http://www.w3.org/2000/svg"><path clip-rule="evenodd" d="m198.795 8.20101 18.386 18.38609c.782.781.785 2.0416.004 2.8226l-18.39 18.3893c-10.934 10.9347-28.663 10.9347-39.598 0-10.934-10.9347-10.934-28.6633 0-39.59799 10.935-10.93468 28.664-10.93468 39.598 0zm154.205 47.79899c0 6.6274-5.373 12-12 12s-12-5.3726-12-12 5.373-12 12-12 12 5.3726 12 12zm-39-25.5h-93.9c.895-1.5444.89-3.46-.001-5h93.901c11.395 0 21.33 6.2486 26.566 15.5062-1.831.052-3.58.4322-5.19 1.0839-4.55-6.9778-12.425-11.5901-21.376-11.5901zm26.566 40.4939c-1.831-.0521-3.58-.4323-5.19-1.084-4.55 6.9778-12.425 11.5901-21.376 11.5901h-302.9645l11.6422-11.6421c.9763-.9763.9763-2.5593 0-3.5356s-2.5593-.9763-3.5356 0l-15.90987 15.9099c-.97631.9763-.97631 2.5593 0 3.5356l15.90987 15.9102c.9763.976 2.5593.976 3.5356 0 .9763-.977.9763-2.5596 0-3.5359l-11.6422-11.6421h302.9645c11.395 0 21.33-6.2486 26.566-15.5061z" fill="#c0c" fill-rule="evenodd"/></svg>
