<?xml version="1.0" encoding="UTF-8"?><!--Generator: Apple Native CoreSVG 232.5-->
<!DOCTYPE svg
    PUBLIC "-//W3C//DTD SVG 1.1//EN"
    "http://www.w3.org/Graphics/SVG/1.1/DTD/svg11.dtd">
<svg xmlns:xlink="http://www.w3.org/1999/xlink" height="11.959" version="1.1"
    width="12.4922" xmlns="http://www.w3.org/2000/svg">
    <g>
        <rect height="11.959" opacity="0" width="12.4922" x="0" y="0" />
        <path
            d="M11.9531 5.97656C11.9531 9.24023 9.24609 11.9531 5.97656 11.9531C2.71289 11.9531 0 9.24023 0 5.97656C0 2.70703 2.70703 0 5.9707 0C9.24023 0 11.9531 2.70703 11.9531 5.97656ZM2.74219 5.98242C2.74219 7.74023 4.21875 9.22266 5.97656 9.22266C7.74023 9.22266 9.2168 7.74609 9.2168 5.98242C9.2168 4.22461 7.73438 2.74219 5.97656 2.74219C4.21289 2.74219 2.74219 4.21875 2.74219 5.98242ZM8.26172 5.98242C8.26172 7.23633 7.23047 8.27344 5.97656 8.27344C4.73438 8.27344 3.69141 7.23047 3.69141 5.98242C3.69141 4.72852 4.72266 3.69141 5.97656 3.69141C7.22461 3.69141 8.26172 4.73438 8.26172 5.98242Z"
            fill="#E5E5E3" fill-opacity="0.85" />
    </g>
</svg>
