<svg width="401" height="159" viewBox="0 0 401 159" fill="none" xmlns="http://www.w3.org/2000/svg">
<g filter="url(#filter0_d_9083_347694)">
<rect x="4" y="2" width="393" height="151" fill="white"/>
<rect x="154" y="104.5" width="71" height="30" rx="15" fill="#007AFF"/>
<path d="M181.97 124.789C181.132 124.789 180.379 124.654 179.712 124.383C179.046 124.107 178.478 123.714 178.009 123.203C177.546 122.688 177.189 122.065 176.939 121.336C176.689 120.602 176.564 119.776 176.564 118.859V118.844C176.564 117.635 176.783 116.591 177.22 115.711C177.658 114.826 178.278 114.143 179.08 113.664C179.882 113.18 180.827 112.938 181.916 112.938C182.806 112.938 183.603 113.096 184.306 113.414C185.009 113.732 185.582 114.174 186.025 114.742C186.473 115.31 186.752 115.969 186.861 116.719L186.877 116.797H184.533L184.517 116.719C184.361 116.156 184.054 115.719 183.595 115.406C183.137 115.094 182.577 114.938 181.916 114.938C181.311 114.938 180.788 115.096 180.345 115.414C179.908 115.727 179.569 116.174 179.33 116.758C179.09 117.336 178.97 118.023 178.97 118.82V118.836C178.97 119.445 179.041 119.995 179.181 120.484C179.322 120.969 179.525 121.383 179.791 121.727C180.056 122.07 180.377 122.333 180.752 122.516C181.127 122.698 181.546 122.789 182.009 122.789C182.525 122.789 182.981 122.69 183.377 122.492C183.772 122.294 184.082 122.018 184.306 121.664C184.53 121.31 184.65 120.896 184.666 120.422L184.673 120.211H182.236V118.492H186.97V119.922C186.97 120.667 186.856 121.339 186.627 121.938C186.397 122.536 186.064 123.049 185.627 123.477C185.189 123.898 184.66 124.224 184.041 124.453C183.426 124.677 182.736 124.789 181.97 124.789ZM192.391 124.68C191.521 124.68 190.771 124.5 190.141 124.141C189.516 123.776 189.034 123.26 188.695 122.594C188.357 121.927 188.188 121.133 188.188 120.211V120.203C188.188 119.292 188.354 118.5 188.688 117.828C189.026 117.156 189.503 116.635 190.117 116.266C190.737 115.896 191.464 115.711 192.297 115.711C193.135 115.711 193.859 115.891 194.469 116.25C195.078 116.609 195.547 117.112 195.875 117.758C196.203 118.404 196.367 119.161 196.367 120.031V120.742H189.328V119.312H195.273L194.203 120.664V119.75C194.203 119.234 194.122 118.805 193.961 118.461C193.805 118.117 193.586 117.859 193.305 117.688C193.029 117.51 192.706 117.422 192.336 117.422C191.971 117.422 191.646 117.513 191.359 117.695C191.078 117.872 190.854 118.135 190.688 118.484C190.526 118.828 190.445 119.25 190.445 119.75V120.672C190.445 121.156 190.526 121.57 190.688 121.914C190.849 122.258 191.078 122.521 191.375 122.703C191.672 122.885 192.026 122.977 192.438 122.977C192.771 122.977 193.055 122.927 193.289 122.828C193.523 122.729 193.711 122.615 193.852 122.484C193.997 122.349 194.096 122.227 194.148 122.117L194.172 122.07H196.297L196.281 122.148C196.214 122.419 196.091 122.703 195.914 123C195.737 123.292 195.492 123.565 195.18 123.82C194.872 124.076 194.487 124.284 194.023 124.445C193.565 124.602 193.021 124.68 192.391 124.68ZM201.405 124.531C200.363 124.531 199.613 124.349 199.155 123.984C198.696 123.615 198.467 123.013 198.467 122.18V117.617H197.139V115.898H198.467V113.844H200.772V115.898H202.545V117.617H200.772V121.656C200.772 122.042 200.858 122.326 201.03 122.508C201.207 122.685 201.488 122.773 201.873 122.773C202.019 122.773 202.139 122.771 202.233 122.766C202.332 122.755 202.436 122.745 202.545 122.734V124.43C202.405 124.456 202.235 124.479 202.038 124.5C201.84 124.521 201.629 124.531 201.405 124.531Z" fill="white"/>
<path d="M154.622 40V24.499H157.812L162.528 36.3906H162.646L167.352 24.499H170.542V40H168.05V28.9785H166.739L169.521 24.9287L163.527 40H161.637L155.643 24.9287L158.436 28.9785H157.114V40H154.622ZM174.822 40V37.8516H179.366C180.383 37.8516 181.156 37.6439 181.686 37.2285C182.223 36.8132 182.492 36.2152 182.492 35.4346V35.4131C182.492 34.8903 182.366 34.4535 182.116 34.1025C181.872 33.7445 181.507 33.4759 181.02 33.2969C180.54 33.1178 179.942 33.0283 179.226 33.0283H174.822V31.041H178.786C179.781 31.041 180.537 30.8512 181.052 30.4717C181.568 30.085 181.826 29.5299 181.826 28.8066V28.7852C181.826 28.112 181.597 27.5892 181.138 27.2168C180.68 26.8372 180.035 26.6475 179.205 26.6475H174.822V24.499H179.881C180.848 24.499 181.679 24.6566 182.374 24.9717C183.075 25.2868 183.616 25.7344 183.996 26.3145C184.375 26.8945 184.565 27.5785 184.565 28.3662V28.3877C184.565 28.9391 184.44 29.4548 184.189 29.9346C183.938 30.4144 183.598 30.8154 183.169 31.1377C182.746 31.4528 182.263 31.6533 181.718 31.7393V31.8574C182.435 31.9219 183.061 32.1224 183.598 32.459C184.143 32.7956 184.565 33.2324 184.866 33.7695C185.167 34.3066 185.317 34.9118 185.317 35.585V35.6064C185.317 36.516 185.102 37.3001 184.672 37.959C184.243 38.6107 183.63 39.1156 182.836 39.4736C182.048 39.8245 181.102 40 180 40H174.822ZM173.436 40V24.499H176.208V40H173.436ZM191.262 40V26.8301H186.557V24.499H198.728V26.8301H194.023V40H191.262ZM197.701 40L203.233 24.499H205.543V27.3135H204.726L200.612 40H197.701ZM200.505 35.9932L201.235 33.8555H208.336L209.066 35.9932H200.505ZM208.97 40L204.845 27.3135V24.499H206.348L211.87 40H208.97ZM225.124 40.3223C223.993 40.3223 222.976 40.1361 222.073 39.7637C221.178 39.3913 220.412 38.8542 219.774 38.1523C219.144 37.4434 218.661 36.5911 218.324 35.5957C217.988 34.5931 217.819 33.4688 217.819 32.2227V32.2012C217.819 30.554 218.113 29.1325 218.7 27.9365C219.295 26.7334 220.136 25.806 221.225 25.1543C222.313 24.5026 223.599 24.1768 225.081 24.1768C226.291 24.1768 227.362 24.3916 228.293 24.8213C229.224 25.251 229.983 25.8454 230.57 26.6045C231.165 27.3564 231.555 28.223 231.741 29.2041L231.763 29.3438H228.991L228.948 29.2363C228.676 28.3913 228.207 27.736 227.541 27.2705C226.875 26.805 226.055 26.5723 225.081 26.5723C224.164 26.5723 223.373 26.7979 222.707 27.249C222.041 27.7002 221.529 28.3447 221.171 29.1826C220.813 30.0205 220.634 31.0195 220.634 32.1797V32.2012C220.634 33.0892 220.738 33.8877 220.945 34.5967C221.153 35.2985 221.454 35.9001 221.848 36.4014C222.249 36.8955 222.725 37.2751 223.276 37.54C223.835 37.7979 224.462 37.9268 225.156 37.9268C225.944 37.9268 226.635 37.7764 227.229 37.4756C227.831 37.1676 228.3 36.7415 228.637 36.1973C228.98 35.6458 229.16 35.0085 229.174 34.2852L229.185 34.0059H225.393V31.8682H231.892V33.6621C231.892 34.6934 231.734 35.6208 231.419 36.4443C231.111 37.2607 230.663 37.959 230.076 38.5391C229.489 39.1191 228.776 39.5632 227.938 39.8711C227.108 40.1719 226.17 40.3223 225.124 40.3223ZM239.029 40.2363C237.89 40.2363 236.902 39.9964 236.064 39.5166C235.226 39.0296 234.582 38.3385 234.13 37.4434C233.679 36.541 233.454 35.4704 233.454 34.2314V34.21C233.454 32.971 233.683 31.904 234.141 31.0088C234.6 30.1136 235.244 29.4261 236.075 28.9463C236.913 28.4593 237.897 28.2158 239.029 28.2158C240.16 28.2158 241.142 28.4557 241.972 28.9355C242.81 29.4154 243.458 30.1029 243.917 30.998C244.375 31.8932 244.604 32.9639 244.604 34.21V34.2314C244.604 35.4775 244.375 36.5482 243.917 37.4434C243.465 38.3385 242.824 39.0296 241.994 39.5166C241.163 39.9964 240.175 40.2363 239.029 40.2363ZM239.029 38.0664C239.623 38.0664 240.132 37.916 240.554 37.6152C240.977 37.3145 241.303 36.8776 241.532 36.3047C241.761 35.7318 241.876 35.0407 241.876 34.2314V34.21C241.876 33.4007 241.761 32.7132 241.532 32.1475C241.303 31.5745 240.973 31.1377 240.544 30.8369C240.121 30.529 239.616 30.375 239.029 30.375C238.442 30.375 237.933 30.529 237.504 30.8369C237.081 31.1377 236.755 31.5745 236.526 32.1475C236.297 32.7132 236.182 33.4007 236.182 34.21V34.2314C236.182 35.0407 236.297 35.7318 236.526 36.3047C236.755 36.8776 237.081 37.3145 237.504 37.6152C237.933 37.916 238.442 38.0664 239.029 38.0664ZM250.5 34.9297V32.5234H268.321V34.9297H250.5ZM281.758 40.3223C280.247 40.3223 278.943 39.9964 277.848 39.3447C276.752 38.6859 275.907 37.7549 275.312 36.5518C274.718 35.3415 274.421 33.9092 274.421 32.2549V32.2334C274.421 30.5791 274.718 29.1504 275.312 27.9473C275.914 26.7441 276.763 25.8167 277.858 25.165C278.961 24.5062 280.261 24.1768 281.758 24.1768C283.269 24.1768 284.572 24.5062 285.668 25.165C286.764 25.8167 287.609 26.7441 288.203 27.9473C288.805 29.1504 289.105 30.5791 289.105 32.2334V32.2549C289.105 33.9092 288.808 35.3379 288.214 36.541C287.619 37.7441 286.771 38.6751 285.668 39.334C284.572 39.9928 283.269 40.3223 281.758 40.3223ZM281.758 37.9268C282.689 37.9268 283.491 37.694 284.164 37.2285C284.844 36.763 285.367 36.1042 285.732 35.252C286.098 34.3997 286.28 33.4007 286.28 32.2549V32.2334C286.28 31.0804 286.094 30.0814 285.722 29.2363C285.356 28.3841 284.834 27.7288 284.153 27.2705C283.48 26.805 282.682 26.5723 281.758 26.5723C280.841 26.5723 280.043 26.805 279.362 27.2705C278.689 27.7288 278.166 28.3805 277.794 29.2256C277.422 30.0706 277.235 31.0732 277.235 32.2334V32.2549C277.235 33.4079 277.418 34.4105 277.783 35.2627C278.156 36.1077 278.678 36.763 279.352 37.2285C280.032 37.694 280.834 37.9268 281.758 37.9268ZM291.935 40V30.5146H290.206V28.4414H291.935V27.3242C291.935 26.5651 292.064 25.9385 292.322 25.4443C292.58 24.943 292.977 24.5706 293.514 24.3271C294.051 24.0765 294.742 23.9512 295.587 23.9512C295.86 23.9512 296.121 23.9619 296.372 23.9834C296.629 24.0049 296.851 24.0335 297.038 24.0693V25.9385C296.93 25.917 296.801 25.9027 296.651 25.8955C296.501 25.8883 296.343 25.8848 296.178 25.8848C295.613 25.8848 295.201 26.0173 294.943 26.2822C294.685 26.54 294.556 26.9232 294.556 27.4316V28.4414H296.973V30.5146H294.61V40H291.935ZM299.577 40V30.5146H297.848V28.4414H299.577V27.3242C299.577 26.5651 299.706 25.9385 299.964 25.4443C300.222 24.943 300.619 24.5706 301.156 24.3271C301.694 24.0765 302.385 23.9512 303.23 23.9512C303.502 23.9512 303.763 23.9619 304.014 23.9834C304.272 24.0049 304.494 24.0335 304.68 24.0693V25.9385C304.572 25.917 304.444 25.9027 304.293 25.8955C304.143 25.8883 303.985 25.8848 303.821 25.8848C303.255 25.8848 302.843 26.0173 302.585 26.2822C302.327 26.54 302.198 26.9232 302.198 27.4316V28.4414H304.615V30.5146H302.252V40H299.577ZM306.457 40V28.4414H309.121V40H306.457ZM307.789 26.6582C307.366 26.6582 307.005 26.5114 306.704 26.2178C306.403 25.917 306.253 25.5589 306.253 25.1436C306.253 24.721 306.403 24.363 306.704 24.0693C307.005 23.7686 307.366 23.6182 307.789 23.6182C308.219 23.6182 308.584 23.7686 308.885 24.0693C309.185 24.363 309.336 24.721 309.336 25.1436C309.336 25.5589 309.185 25.917 308.885 26.2178C308.584 26.5114 308.219 26.6582 307.789 26.6582ZM316.559 40.2363C315.406 40.2363 314.414 39.9928 313.583 39.5059C312.753 39.0189 312.115 38.3278 311.671 37.4326C311.227 36.5303 311.005 35.4561 311.005 34.21V34.1885C311.005 32.9567 311.227 31.8968 311.671 31.0088C312.122 30.1136 312.76 29.4261 313.583 28.9463C314.414 28.4593 315.399 28.2158 316.538 28.2158C317.54 28.2158 318.407 28.3984 319.137 28.7637C319.868 29.1289 320.441 29.623 320.856 30.2461C321.278 30.8691 321.529 31.571 321.608 32.3516V32.416H319.094L319.073 32.3623C318.958 31.7965 318.69 31.3239 318.267 30.9443C317.852 30.5648 317.282 30.375 316.559 30.375C315.972 30.375 315.467 30.529 315.044 30.8369C314.622 31.1449 314.296 31.5853 314.067 32.1582C313.838 32.724 313.723 33.4043 313.723 34.1992V34.2207C313.723 35.0299 313.838 35.721 314.067 36.2939C314.303 36.8669 314.633 37.3073 315.055 37.6152C315.478 37.916 315.982 38.0664 316.57 38.0664C317.257 38.0664 317.809 37.8945 318.224 37.5508C318.647 37.207 318.929 36.7344 319.073 36.1328L319.094 36.0576H321.619L321.608 36.1328C321.508 36.9277 321.243 37.6331 320.813 38.249C320.39 38.8649 319.817 39.3519 319.094 39.71C318.378 40.0609 317.533 40.2363 316.559 40.2363ZM323.374 40V28.4414H326.038V40H323.374ZM324.706 26.6582C324.284 26.6582 323.922 26.5114 323.621 26.2178C323.32 25.917 323.17 25.5589 323.17 25.1436C323.17 24.721 323.32 24.363 323.621 24.0693C323.922 23.7686 324.284 23.6182 324.706 23.6182C325.136 23.6182 325.501 23.7686 325.802 24.0693C326.103 24.363 326.253 24.721 326.253 25.1436C326.253 25.5589 326.103 25.917 325.802 26.2178C325.501 26.5114 325.136 26.6582 324.706 26.6582ZM331.736 40.1934C330.984 40.1934 330.318 40.0501 329.738 39.7637C329.165 39.4701 328.714 39.0618 328.384 38.5391C328.062 38.0163 327.901 37.4111 327.901 36.7236V36.7021C327.901 36.0146 328.069 35.4238 328.406 34.9297C328.75 34.4355 329.247 34.0488 329.899 33.7695C330.558 33.4831 331.353 33.3112 332.284 33.2539L336.634 32.9854V34.7471L332.66 35.0049C331.958 35.0479 331.432 35.2054 331.081 35.4775C330.73 35.7497 330.554 36.1185 330.554 36.584V36.6055C330.554 37.0853 330.737 37.4648 331.102 37.7441C331.467 38.0163 331.944 38.1523 332.531 38.1523C333.061 38.1523 333.53 38.0485 333.938 37.8408C334.353 37.626 334.679 37.3359 334.916 36.9707C335.159 36.6055 335.281 36.1937 335.281 35.7354V32.1797C335.281 31.5996 335.098 31.1484 334.733 30.8262C334.368 30.5039 333.834 30.3428 333.132 30.3428C332.509 30.3428 332.004 30.4645 331.618 30.708C331.238 30.9443 330.991 31.2666 330.877 31.6748L330.866 31.7393H328.363L328.374 31.6318C328.445 30.9658 328.685 30.375 329.093 29.8594C329.509 29.3438 330.067 28.9427 330.769 28.6562C331.471 28.3626 332.295 28.2158 333.24 28.2158C334.221 28.2158 335.062 28.3734 335.764 28.6885C336.466 28.9964 337.003 29.4404 337.376 30.0205C337.755 30.6006 337.945 31.2881 337.945 32.083V40H335.281V38.3135H335.163C334.948 38.7002 334.669 39.0368 334.325 39.3232C333.981 39.6025 333.591 39.8174 333.154 39.9678C332.717 40.1182 332.244 40.1934 331.736 40.1934ZM340.323 40V24.123H342.998V40H340.323Z" fill="black"/>
<path d="M154.326 63V52.4312H155.966V61.5791H160.925V63H154.326ZM162.336 63V55.0459H163.933V63H162.336ZM163.142 53.625C162.869 53.625 162.634 53.5273 162.439 53.332C162.244 53.1367 162.146 52.9023 162.146 52.6289C162.146 52.3555 162.244 52.1235 162.439 51.9331C162.634 51.7378 162.869 51.6401 163.142 51.6401C163.416 51.6401 163.65 51.7378 163.845 51.9331C164.041 52.1235 164.138 52.3555 164.138 52.6289C164.138 52.9023 164.041 53.1367 163.845 53.332C163.65 53.5273 163.416 53.625 163.142 53.625ZM167.93 63L165.052 55.0459H166.744L168.729 61.3887H168.846L170.823 55.0459H172.5L169.629 63H167.93ZM176.637 63.1538C175.86 63.1538 175.194 62.9878 174.637 62.6558C174.081 62.3188 173.651 61.8428 173.348 61.2275C173.05 60.6123 172.901 59.8848 172.901 59.0449V59.0376C172.901 58.2075 173.05 57.4824 173.348 56.8623C173.651 56.2422 174.076 55.7588 174.623 55.4121C175.174 55.0654 175.819 54.8921 176.556 54.8921C177.298 54.8921 177.936 55.0581 178.468 55.3901C179.005 55.7222 179.417 56.1885 179.706 56.7891C179.994 57.3848 180.138 58.083 180.138 58.8838V59.4404H173.707V58.3052H179.347L178.585 59.3599V58.7227C178.585 58.1562 178.497 57.6875 178.321 57.3164C178.15 56.9404 177.914 56.6597 177.611 56.4741C177.308 56.2886 176.959 56.1958 176.563 56.1958C176.168 56.1958 175.814 56.2935 175.501 56.4888C175.194 56.6792 174.95 56.9624 174.769 57.3384C174.593 57.7144 174.505 58.1758 174.505 58.7227V59.3599C174.505 59.8823 174.593 60.3291 174.769 60.7002C174.945 61.0713 175.194 61.3545 175.516 61.5498C175.843 61.7451 176.229 61.8428 176.673 61.8428C177.015 61.8428 177.308 61.7964 177.552 61.7036C177.801 61.606 178.004 61.4863 178.16 61.3447C178.321 61.2031 178.431 61.064 178.49 60.9272L178.519 60.8687H180.057L180.042 60.9346C179.974 61.1982 179.854 61.4619 179.684 61.7256C179.513 61.9844 179.286 62.2212 179.002 62.436C178.724 62.6509 178.387 62.8242 177.992 62.9561C177.601 63.0879 177.149 63.1538 176.637 63.1538ZM187.978 63V53.8521H184.653V52.4312H192.944V53.8521H189.619V63H187.978ZM193.257 63V55.0459H194.846V56.2471H194.971C195.112 55.8223 195.361 55.4927 195.718 55.2583C196.079 55.0239 196.523 54.9067 197.051 54.9067C197.183 54.9067 197.312 54.9141 197.439 54.9287C197.566 54.9434 197.668 54.9604 197.747 54.98V56.4448C197.605 56.4155 197.463 56.3936 197.322 56.3789C197.185 56.3643 197.041 56.3569 196.89 56.3569C196.484 56.3569 196.128 56.4351 195.82 56.5913C195.518 56.7476 195.278 56.9673 195.103 57.2505C194.932 57.5288 194.846 57.8608 194.846 58.2466V63H193.257ZM200.901 63.1318C200.398 63.1318 199.947 63.0366 199.546 62.8462C199.151 62.6509 198.838 62.375 198.609 62.0186C198.379 61.6621 198.265 61.2446 198.265 60.7661V60.7515C198.265 60.2729 198.379 59.8652 198.609 59.5283C198.843 59.1914 199.18 58.9277 199.62 58.7373C200.064 58.542 200.601 58.4248 201.231 58.3857L204.168 58.21V59.3306L201.451 59.5063C200.904 59.5405 200.501 59.6577 200.242 59.8579C199.983 60.0532 199.854 60.3291 199.854 60.6855V60.7002C199.854 61.0615 199.993 61.3472 200.271 61.5571C200.55 61.7622 200.901 61.8647 201.326 61.8647C201.722 61.8647 202.073 61.7866 202.381 61.6304C202.693 61.4692 202.938 61.2544 203.113 60.9858C203.289 60.7124 203.377 60.4048 203.377 60.063V57.5581C203.377 57.1187 203.24 56.7842 202.967 56.5547C202.698 56.3203 202.298 56.2031 201.766 56.2031C201.321 56.2031 200.958 56.2812 200.674 56.4375C200.396 56.5938 200.21 56.8135 200.118 57.0967L200.103 57.1187H198.572L198.58 57.0674C198.643 56.6279 198.816 56.2471 199.1 55.9248C199.388 55.5977 199.764 55.3438 200.228 55.1631C200.696 54.9824 201.231 54.8921 201.832 54.8921C202.5 54.8921 203.067 54.9995 203.531 55.2144C204 55.4243 204.354 55.7295 204.593 56.1299C204.837 56.5254 204.959 57.0015 204.959 57.5581V63H203.377V61.8721H203.26C203.104 62.1406 202.908 62.3701 202.674 62.5605C202.439 62.7461 202.173 62.8877 201.875 62.9854C201.578 63.083 201.253 63.1318 200.901 63.1318ZM206.7 63V55.0459H208.29V56.2471H208.414C208.609 55.8223 208.897 55.4902 209.278 55.251C209.659 55.0117 210.14 54.8921 210.721 54.8921C211.615 54.8921 212.298 55.1484 212.772 55.6611C213.246 56.1738 213.482 56.9038 213.482 57.8511V63H211.886V58.2246C211.886 57.5605 211.747 57.0674 211.468 56.7451C211.195 56.418 210.765 56.2544 210.179 56.2544C209.793 56.2544 209.459 56.3398 209.176 56.5107C208.893 56.6768 208.673 56.916 208.517 57.2285C208.365 57.5361 208.29 57.9048 208.29 58.3345V63H206.7ZM218.087 63.1538C217.448 63.1538 216.891 63.061 216.417 62.8755C215.944 62.6851 215.568 62.4238 215.29 62.0918C215.011 61.7549 214.848 61.3643 214.799 60.9199V60.9053H216.396V60.9199C216.498 61.2178 216.693 61.4595 216.981 61.645C217.27 61.8306 217.65 61.9233 218.124 61.9233C218.451 61.9233 218.737 61.877 218.981 61.7842C219.23 61.6914 219.425 61.562 219.567 61.396C219.708 61.23 219.779 61.0396 219.779 60.8247V60.8101C219.779 60.561 219.679 60.3511 219.479 60.1802C219.279 60.0093 218.949 59.8701 218.49 59.7627L217.216 59.4697C216.718 59.3574 216.305 59.2036 215.978 59.0083C215.651 58.813 215.409 58.5737 215.253 58.2905C215.097 58.0024 215.019 57.6655 215.019 57.2798V57.2725C215.019 56.8086 215.15 56.3984 215.414 56.042C215.678 55.6807 216.042 55.3999 216.505 55.1997C216.974 54.9946 217.509 54.8921 218.109 54.8921C218.715 54.8921 219.242 54.9873 219.691 55.1777C220.146 55.3633 220.504 55.6221 220.768 55.9541C221.032 56.2812 221.188 56.6621 221.237 57.0967V57.104H219.713V57.0894C219.64 56.811 219.464 56.5791 219.186 56.3936C218.913 56.208 218.551 56.1152 218.102 56.1152C217.814 56.1152 217.558 56.1616 217.333 56.2544C217.108 56.3423 216.93 56.4668 216.798 56.6279C216.671 56.7842 216.608 56.9697 216.608 57.1846V57.1992C216.608 57.3652 216.649 57.5117 216.732 57.6387C216.82 57.7607 216.957 57.8706 217.143 57.9683C217.328 58.061 217.567 58.144 217.86 58.2173L219.127 58.5029C219.889 58.6836 220.456 58.9448 220.827 59.2866C221.203 59.6284 221.391 60.0874 221.391 60.6636V60.6782C221.391 61.1665 221.247 61.5986 220.958 61.9746C220.67 62.3457 220.277 62.6362 219.779 62.8462C219.286 63.0513 218.722 63.1538 218.087 63.1538ZM222.802 63V55.0459H224.399V63H222.802ZM223.608 53.625C223.334 53.625 223.1 53.5273 222.905 53.332C222.709 53.1367 222.612 52.9023 222.612 52.6289C222.612 52.3555 222.709 52.1235 222.905 51.9331C223.1 51.7378 223.334 51.6401 223.608 51.6401C223.881 51.6401 224.116 51.7378 224.311 51.9331C224.506 52.1235 224.604 52.3555 224.604 52.6289C224.604 52.9023 224.506 53.1367 224.311 53.332C224.116 53.5273 223.881 53.625 223.608 53.625ZM229.209 63.0513C228.34 63.0513 227.71 62.8853 227.319 62.5532C226.934 62.2163 226.741 61.667 226.741 60.9053V56.2983H225.496V55.0459H226.741V53.0391H228.367V55.0459H230.073V56.2983H228.367V60.5171C228.367 60.9468 228.452 61.2568 228.623 61.4473C228.794 61.6328 229.077 61.7256 229.473 61.7256C229.59 61.7256 229.69 61.7231 229.773 61.7183C229.861 61.7134 229.961 61.7061 230.073 61.6963V62.9707C229.946 62.9902 229.81 63.0073 229.663 63.022C229.517 63.0415 229.365 63.0513 229.209 63.0513ZM235.204 63V52.4312H236.844V63H235.204ZM238.812 63V55.0459H240.402V56.2471H240.526C240.722 55.8223 241.01 55.4902 241.391 55.251C241.771 55.0117 242.252 54.8921 242.833 54.8921C243.727 54.8921 244.411 55.1484 244.884 55.6611C245.358 56.1738 245.595 56.9038 245.595 57.8511V63H243.998V58.2246C243.998 57.5605 243.859 57.0674 243.581 56.7451C243.307 56.418 242.877 56.2544 242.292 56.2544C241.906 56.2544 241.571 56.3398 241.288 56.5107C241.005 56.6768 240.785 56.916 240.629 57.2285C240.478 57.5361 240.402 57.9048 240.402 58.3345V63H238.812ZM247.871 63V56.2983H246.56V55.0459H247.871V54.2109C247.871 53.6787 247.958 53.2393 248.134 52.8926C248.315 52.541 248.588 52.2798 248.955 52.1089C249.321 51.938 249.782 51.8525 250.339 51.8525C250.515 51.8525 250.678 51.8599 250.83 51.8745C250.986 51.8843 251.135 51.9014 251.276 51.9258V53.0977C251.203 53.083 251.113 53.0732 251.005 53.0684C250.903 53.0586 250.791 53.0537 250.668 53.0537C250.229 53.0537 249.914 53.1587 249.724 53.3687C249.538 53.5786 249.445 53.8838 249.445 54.2842V55.0459H251.203V56.2983H249.46V63H247.871ZM255.552 63.1538C254.775 63.1538 254.104 62.9878 253.538 62.6558C252.976 62.3237 252.544 61.8501 252.241 61.2349C251.938 60.6147 251.787 59.8799 251.787 59.0303V59.0156C251.787 58.1611 251.938 57.4263 252.241 56.811C252.549 56.1958 252.983 55.7222 253.545 55.3901C254.111 55.0581 254.78 54.8921 255.552 54.8921C256.328 54.8921 256.997 55.0581 257.559 55.3901C258.12 55.7173 258.552 56.1909 258.855 56.811C259.163 57.4263 259.316 58.1611 259.316 59.0156V59.0303C259.316 59.8799 259.163 60.6147 258.855 61.2349C258.552 61.8501 258.12 62.3237 257.559 62.6558C257.002 62.9878 256.333 63.1538 255.552 63.1538ZM255.552 61.8208C256.006 61.8208 256.392 61.7109 256.709 61.4912C257.026 61.2666 257.268 60.9468 257.434 60.5317C257.6 60.1167 257.683 59.6162 257.683 59.0303V59.0156C257.683 58.4248 257.6 57.9219 257.434 57.5068C257.268 57.0918 257.026 56.7744 256.709 56.5547C256.392 56.3301 256.006 56.2178 255.552 56.2178C255.098 56.2178 254.712 56.3301 254.395 56.5547C254.077 56.7744 253.833 57.0918 253.662 57.5068C253.496 57.9219 253.413 58.4248 253.413 59.0156V59.0303C253.413 59.6162 253.496 60.1167 253.662 60.5317C253.833 60.9468 254.077 61.2666 254.395 61.4912C254.712 61.7109 255.098 61.8208 255.552 61.8208ZM260.706 63V55.0459H262.295V56.2471H262.42C262.562 55.8223 262.811 55.4927 263.167 55.2583C263.528 55.0239 263.973 54.9067 264.5 54.9067C264.632 54.9067 264.761 54.9141 264.888 54.9287C265.015 54.9434 265.118 54.9604 265.196 54.98V56.4448C265.054 56.4155 264.913 56.3936 264.771 56.3789C264.634 56.3643 264.49 56.3569 264.339 56.3569C263.934 56.3569 263.577 56.4351 263.27 56.5913C262.967 56.7476 262.728 56.9673 262.552 57.2505C262.381 57.5288 262.295 57.8608 262.295 58.2466V63H260.706ZM266.344 63V55.0459H267.933V56.269H268.058C268.233 55.8296 268.507 55.4902 268.878 55.251C269.254 55.0117 269.703 54.8921 270.226 54.8921C270.587 54.8921 270.912 54.9507 271.2 55.0679C271.488 55.1851 271.734 55.3511 271.939 55.5659C272.149 55.7759 272.313 56.0249 272.43 56.313H272.555C272.687 56.0249 272.872 55.7759 273.111 55.5659C273.351 55.3511 273.629 55.1851 273.946 55.0679C274.269 54.9507 274.61 54.8921 274.972 54.8921C275.509 54.8921 275.968 54.9971 276.349 55.207C276.729 55.4121 277.02 55.71 277.22 56.1006C277.42 56.4912 277.521 56.9624 277.521 57.5142V63H275.931V57.895C275.931 57.5288 275.875 57.2261 275.763 56.9868C275.65 56.7427 275.479 56.5596 275.25 56.4375C275.025 56.3154 274.742 56.2544 274.4 56.2544C274.063 56.2544 273.768 56.3325 273.514 56.4888C273.265 56.6401 273.07 56.8452 272.928 57.104C272.792 57.3579 272.723 57.646 272.723 57.9683V63H271.134V57.7339C271.134 57.4312 271.07 57.1699 270.943 56.9502C270.821 56.7256 270.646 56.5547 270.416 56.4375C270.187 56.3154 269.916 56.2544 269.603 56.2544C269.286 56.2544 269 56.3374 268.746 56.5034C268.497 56.6694 268.299 56.894 268.153 57.1772C268.006 57.4556 267.933 57.7681 267.933 58.1147V63H266.344ZM281.43 63.1318C280.927 63.1318 280.475 63.0366 280.075 62.8462C279.679 62.6509 279.367 62.375 279.137 62.0186C278.908 61.6621 278.793 61.2446 278.793 60.7661V60.7515C278.793 60.2729 278.908 59.8652 279.137 59.5283C279.372 59.1914 279.708 58.9277 280.148 58.7373C280.592 58.542 281.129 58.4248 281.759 58.3857L284.696 58.21V59.3306L281.979 59.5063C281.432 59.5405 281.029 59.6577 280.771 59.8579C280.512 60.0532 280.382 60.3291 280.382 60.6855V60.7002C280.382 61.0615 280.521 61.3472 280.8 61.5571C281.078 61.7622 281.43 61.8647 281.854 61.8647C282.25 61.8647 282.602 61.7866 282.909 61.6304C283.222 61.4692 283.466 61.2544 283.642 60.9858C283.817 60.7124 283.905 60.4048 283.905 60.063V57.5581C283.905 57.1187 283.769 56.7842 283.495 56.5547C283.227 56.3203 282.826 56.2031 282.294 56.2031C281.85 56.2031 281.486 56.2812 281.203 56.4375C280.924 56.5938 280.739 56.8135 280.646 57.0967L280.631 57.1187H279.101L279.108 57.0674C279.171 56.6279 279.345 56.2471 279.628 55.9248C279.916 55.5977 280.292 55.3438 280.756 55.1631C281.225 54.9824 281.759 54.8921 282.36 54.8921C283.029 54.8921 283.595 54.9995 284.059 55.2144C284.528 55.4243 284.882 55.7295 285.121 56.1299C285.365 56.5254 285.487 57.0015 285.487 57.5581V63H283.905V61.8721H283.788C283.632 62.1406 283.437 62.3701 283.202 62.5605C282.968 62.7461 282.702 62.8877 282.404 62.9854C282.106 63.083 281.781 63.1318 281.43 63.1318ZM290.231 63.0513C289.362 63.0513 288.732 62.8853 288.342 62.5532C287.956 62.2163 287.763 61.667 287.763 60.9053V56.2983H286.518V55.0459H287.763V53.0391H289.389V55.0459H291.096V56.2983H289.389V60.5171C289.389 60.9468 289.475 61.2568 289.646 61.4473C289.816 61.6328 290.1 61.7256 290.495 61.7256C290.612 61.7256 290.712 61.7231 290.795 61.7183C290.883 61.7134 290.983 61.7061 291.096 61.6963V62.9707C290.969 62.9902 290.832 63.0073 290.686 63.022C290.539 63.0415 290.388 63.0513 290.231 63.0513ZM292.478 63V55.0459H294.075V63H292.478ZM293.284 53.625C293.01 53.625 292.776 53.5273 292.581 53.332C292.385 53.1367 292.288 52.9023 292.288 52.6289C292.288 52.3555 292.385 52.1235 292.581 51.9331C292.776 51.7378 293.01 51.6401 293.284 51.6401C293.557 51.6401 293.792 51.7378 293.987 51.9331C294.182 52.1235 294.28 52.3555 294.28 52.6289C294.28 52.9023 294.182 53.1367 293.987 53.332C293.792 53.5273 293.557 53.625 293.284 53.625ZM299.251 63.1538C298.475 63.1538 297.803 62.9878 297.237 62.6558C296.675 62.3237 296.243 61.8501 295.94 61.2349C295.638 60.6147 295.486 59.8799 295.486 59.0303V59.0156C295.486 58.1611 295.638 57.4263 295.94 56.811C296.248 56.1958 296.683 55.7222 297.244 55.3901C297.811 55.0581 298.479 54.8921 299.251 54.8921C300.027 54.8921 300.696 55.0581 301.258 55.3901C301.819 55.7173 302.251 56.1909 302.554 56.811C302.862 57.4263 303.016 58.1611 303.016 59.0156V59.0303C303.016 59.8799 302.862 60.6147 302.554 61.2349C302.251 61.8501 301.819 62.3237 301.258 62.6558C300.701 62.9878 300.032 63.1538 299.251 63.1538ZM299.251 61.8208C299.705 61.8208 300.091 61.7109 300.408 61.4912C300.726 61.2666 300.967 60.9468 301.133 60.5317C301.299 60.1167 301.382 59.6162 301.382 59.0303V59.0156C301.382 58.4248 301.299 57.9219 301.133 57.5068C300.967 57.0918 300.726 56.7744 300.408 56.5547C300.091 56.3301 299.705 56.2178 299.251 56.2178C298.797 56.2178 298.411 56.3301 298.094 56.5547C297.776 56.7744 297.532 57.0918 297.361 57.5068C297.195 57.9219 297.112 58.4248 297.112 59.0156V59.0303C297.112 59.6162 297.195 60.1167 297.361 60.5317C297.532 60.9468 297.776 61.2666 298.094 61.4912C298.411 61.7109 298.797 61.8208 299.251 61.8208ZM304.405 63V55.0459H305.995V56.2471H306.119C306.314 55.8223 306.603 55.4902 306.983 55.251C307.364 55.0117 307.845 54.8921 308.426 54.8921C309.32 54.8921 310.003 55.1484 310.477 55.6611C310.951 56.1738 311.188 56.9038 311.188 57.8511V63H309.591V58.2246C309.591 57.5605 309.452 57.0674 309.173 56.7451C308.9 56.418 308.47 56.2544 307.884 56.2544C307.499 56.2544 307.164 56.3398 306.881 56.5107C306.598 56.6768 306.378 56.916 306.222 57.2285C306.07 57.5361 305.995 57.9048 305.995 58.3345V63H304.405Z" fill="#3C3C43" fill-opacity="0.6"/>
<g clip-path="url(#clip0_9083_347694)">
<rect x="19" y="19" width="118" height="118" rx="26" fill="#D9D8D6"/>
<rect x="19" y="19" width="118" height="118" rx="26" fill="url(#paint0_linear_9083_347694)"/>
<rect width="118" height="118" transform="translate(19 19)" fill="white"/>
<rect width="118" height="118" transform="translate(19 19)" fill="#D9D8D6"/>
<rect width="118" height="118" transform="translate(19 19)" fill="url(#paint1_linear_9083_347694)"/>
<circle cx="78" cy="78" r="39.7559" fill="white"/>
<circle cx="78" cy="78" r="39.7559" fill="url(#paint2_linear_9083_347694)"/>
<g filter="url(#filter1_di_9083_347694)">
<path d="M53.1526 74.0248V62.098H102.847V74.0248H83.9633V103.842H72.0365V74.0248H53.1526Z" fill="black"/>
<path fill-rule="evenodd" clip-rule="evenodd" d="M117.756 78C117.756 99.9566 99.9566 117.756 78 117.756C56.0434 117.756 38.2441 99.9566 38.2441 78C38.2441 56.0434 56.0434 38.2441 78 38.2441C99.9566 38.2441 117.756 56.0434 117.756 78ZM113.781 78.0003C113.781 97.7612 97.7612 113.781 78.0003 113.781C58.2394 113.781 42.22 97.7612 42.22 78.0003C42.22 58.2394 58.2394 42.22 78.0003 42.22C97.7612 42.22 113.781 58.2394 113.781 78.0003Z" fill="black"/>
</g>
<circle opacity="0.25" cx="70.7402" cy="70.7402" r="29.5" fill="url(#paint3_radial_9083_347694)"/>
</g>
</g>
<defs>
<filter id="filter0_d_9083_347694" x="0" y="0" width="401" height="159" filterUnits="userSpaceOnUse" color-interpolation-filters="sRGB">
<feFlood flood-opacity="0" result="BackgroundImageFix"/>
<feColorMatrix in="SourceAlpha" type="matrix" values="0 0 0 0 0 0 0 0 0 0 0 0 0 0 0 0 0 0 127 0" result="hardAlpha"/>
<feOffset dy="2"/>
<feGaussianBlur stdDeviation="2"/>
<feComposite in2="hardAlpha" operator="out"/>
<feColorMatrix type="matrix" values="0 0 0 0 0 0 0 0 0 0 0 0 0 0 0 0 0 0 0.25 0"/>
<feBlend mode="normal" in2="BackgroundImageFix" result="effect1_dropShadow_9083_347694"/>
<feBlend mode="normal" in="SourceGraphic" in2="effect1_dropShadow_9083_347694" result="shape"/>
</filter>
<filter id="filter1_di_9083_347694" x="36.8613" y="36.8613" width="84.1211" height="84.1211" filterUnits="userSpaceOnUse" color-interpolation-filters="sRGB">
<feFlood flood-opacity="0" result="BackgroundImageFix"/>
<feColorMatrix in="SourceAlpha" type="matrix" values="0 0 0 0 0 0 0 0 0 0 0 0 0 0 0 0 0 0 127 0" result="hardAlpha"/>
<feOffset dx="0.921875" dy="0.921875"/>
<feGaussianBlur stdDeviation="1.15234"/>
<feComposite in2="hardAlpha" operator="out"/>
<feColorMatrix type="matrix" values="0 0 0 0 0 0 0 0 0 0 0 0 0 0 0 0 0 0 0.2 0"/>
<feBlend mode="normal" in2="BackgroundImageFix" result="effect1_dropShadow_9083_347694"/>
<feBlend mode="normal" in="SourceGraphic" in2="effect1_dropShadow_9083_347694" result="shape"/>
<feColorMatrix in="SourceAlpha" type="matrix" values="0 0 0 0 0 0 0 0 0 0 0 0 0 0 0 0 0 0 127 0" result="hardAlpha"/>
<feOffset dx="0.921875" dy="0.921875"/>
<feGaussianBlur stdDeviation="0.460938"/>
<feComposite in2="hardAlpha" operator="arithmetic" k2="-1" k3="1"/>
<feColorMatrix type="matrix" values="0 0 0 0 1 0 0 0 0 1 0 0 0 0 1 0 0 0 0.2 0"/>
<feBlend mode="screen" in2="shape" result="effect2_innerShadow_9083_347694"/>
</filter>
<linearGradient id="paint0_linear_9083_347694" x1="137.983" y1="137" x2="78" y2="78" gradientUnits="userSpaceOnUse">
<stop stop-opacity="0.15"/>
<stop offset="1" stop-opacity="0"/>
</linearGradient>
<linearGradient id="paint1_linear_9083_347694" x1="118.983" y1="118" x2="59" y2="59" gradientUnits="userSpaceOnUse">
<stop stop-opacity="0.15"/>
<stop offset="1" stop-opacity="0"/>
</linearGradient>
<linearGradient id="paint2_linear_9083_347694" x1="78" y1="78" x2="117.756" y2="117.756" gradientUnits="userSpaceOnUse">
<stop stop-opacity="0"/>
<stop offset="1" stop-opacity="0.33"/>
</linearGradient>
<radialGradient id="paint3_radial_9083_347694" cx="0" cy="0" r="1" gradientUnits="userSpaceOnUse" gradientTransform="translate(70.7402 70.7402) rotate(90) scale(29.5)">
<stop stop-color="white"/>
<stop offset="1" stop-color="white" stop-opacity="0"/>
</radialGradient>
<clipPath id="clip0_9083_347694">
<rect x="19" y="19" width="118" height="118" rx="26" fill="white"/>
</clipPath>
</defs>
</svg>
