<svg width="24" height="24" viewBox="0 0 24 24" fill="none" xmlns="http://www.w3.org/2000/svg">
<g id="Alert badge">
<path id="Stroke" d="M9.90058 1.8688L1.86685 9.90253C0.708448 11.0609 0.708447 12.9391 1.86684 14.0975L9.90058 22.1312C11.059 23.2896 12.9371 23.2896 14.0955 22.1312L22.1292 14.0975C23.2876 12.9391 23.2876 11.0609 22.1292 9.90253L14.0955 1.8688C12.9371 0.710402 11.059 0.710399 9.90058 1.8688Z" fill="#192026" stroke="white" stroke-width="2"/>
<path id="Subtract" fill-rule="evenodd" clip-rule="evenodd" d="M10.6096 2.5759L2.57591 10.6096C1.80803 11.3775 1.80803 12.6225 2.5759 13.3904L10.6096 21.4241C11.3775 22.192 12.6225 22.192 13.3904 21.4241L21.4241 13.3904C22.192 12.6225 22.192 11.3775 21.4241 10.6096L13.3904 2.57591C12.6225 1.80803 11.3775 1.80803 10.6096 2.5759ZM10.6116 8.56424C10.5615 7.76229 11.1984 7.08434 12.0019 7.08434C12.8054 7.08434 13.4423 7.76229 13.3922 8.56424L13.1475 12.4784C13.1097 13.0834 12.6081 13.5547 12.0019 13.5547C11.3957 13.5547 10.894 13.0834 10.8562 12.4784L10.6116 8.56424ZM10.7889 16.1156C10.7889 15.4456 11.3321 14.9024 12.0021 14.9024C12.6722 14.9024 13.2153 15.4456 13.2153 16.1156C13.2153 16.7857 12.6722 17.3288 12.0021 17.3288C11.3321 17.3288 10.7889 16.7857 10.7889 16.1156Z" fill="#FFC72C"/>
</g>
</svg>
