<svg width="27" height="27" viewBox="0 0 27 27" fill="none" xmlns="http://www.w3.org/2000/svg">
<g clip-path="url(#clip0_2700_13929)">
<rect y="3" width="24" height="24" rx="12" fill="white"/>
<path fill-rule="evenodd" clip-rule="evenodd" d="M19.6551 9.65186H4.34509V13.4534H10.0996V22.7449H13.9006V13.4534H19.6551V9.65186Z" fill="black"/>
<mask id="mask0_2700_13929" style="mask-type:luminance" maskUnits="userSpaceOnUse" x="0" y="3" width="24" height="24">
<path fill-rule="evenodd" clip-rule="evenodd" d="M0 3H24V27H0V3Z" fill="white"/>
</mask>
<g mask="url(#mask0_2700_13929)">
<path fill-rule="evenodd" clip-rule="evenodd" d="M0.00584568 14.6186C-0.207154 21.5716 5.42835 27.2076 12.3813 26.9941C18.6558 26.8016 23.8018 21.6556 23.9943 15.3816C24.2073 8.42815 18.5718 2.79265 11.6183 3.00565C5.34435 3.19815 0.198346 8.34415 0.00584568 14.6186M11.9998 4.04965C18.2808 4.04965 23.3223 9.33115 22.9283 15.6971C22.5908 21.1516 18.1518 25.5906 12.6973 25.9281C6.33085 26.3221 1.04985 21.2806 1.04985 15.0001C1.04985 8.95015 5.94985 4.04965 11.9998 4.04965" fill="#1C1E23"/>
</g>
<path d="M26.8906 6.89062C27.1719 7.39062 26.8125 8 26.2344 8H18.75C18.1719 8 17.8125 7.375 18.0938 6.89062L21.8438 0.375C22.125 -0.125 22.8594 -0.109375 23.1406 0.375L26.8906 6.89062ZM22.5 5.53125C22.0938 5.53125 21.7812 5.85938 21.7812 6.25C21.7812 6.65625 22.0938 6.96875 22.5 6.96875C22.8906 6.96875 23.2188 6.65625 23.2188 6.25C23.2188 5.85938 22.8906 5.53125 22.5 5.53125ZM21.8125 2.95312L21.9219 5.07812C21.9375 5.1875 22.0156 5.25 22.1094 5.25H22.875C22.9688 5.25 23.0469 5.1875 23.0625 5.07812L23.1719 2.95312C23.1875 2.84375 23.0938 2.75 22.9844 2.75H22C21.8906 2.75 21.7969 2.84375 21.8125 2.95312Z" fill="#1C1E23"/>
</g>
<defs>
<clipPath id="clip0_2700_13929">
<rect width="27" height="27" fill="white"/>
</clipPath>
</defs>
</svg>
