<svg width="40" height="52" viewBox="0 0 40 52" fill="none" xmlns="http://www.w3.org/2000/svg">
<path d="M38 20C38 28.1938 27.0312 42.7813 22.2219 48.8C21.0687 50.2344 18.9313 50.2344 17.7781 48.8C12.9688 42.7813 2 28.1938 2 20C2 10.0625 10.0625 2 20 2C29.9375 2 38 10.0625 38 20Z" fill="white"/>
<path d="M23.0013 49.4266L23.0031 49.4243C25.4182 46.4019 29.3914 41.2141 32.7657 35.7404C34.4527 33.0039 36.0019 30.1767 37.1323 27.4993C38.2556 24.8384 39 22.2453 39 20C39 9.51022 30.4898 1 20 1C9.51022 1 1 9.51022 1 20C1 22.2453 1.74441 24.8384 2.86774 27.4993C3.99805 30.1767 5.54733 33.0039 7.2343 35.7404C10.6086 41.2141 14.5818 46.4019 16.9969 49.4243L16.9987 49.4266C18.5522 51.3589 21.4478 51.3589 23.0013 49.4266Z" stroke="white" stroke-opacity="0.15" stroke-width="2"/>
<path fill-rule="evenodd" clip-rule="evenodd" d="M20 35C28.2843 35 35 28.2843 35 20C35 11.7157 28.2843 5 20 5C11.7157 5 5 11.7157 5 20C5 28.2843 11.7157 35 20 35ZM20 33.5002C27.4558 33.5002 33.5 27.456 33.5 20.0002C33.5 12.5443 27.4558 6.50018 20 6.50018C12.5442 6.50018 6.5 12.5443 6.5 20.0002C6.5 27.456 12.5442 33.5002 20 33.5002ZM29.375 14V18.5H22.25V29.75H17.75V18.5H10.625V14H29.375Z" fill="black"/>
</svg>
