<svg width="16" height="12" viewBox="0 0 16 12" fill="none" xmlns="http://www.w3.org/2000/svg">
<path d="M15.5 1.5C15.5 2.32843 14.8284 3 14 3C13.1716 3 12.5 2.32843 12.5 1.5C12.5 0.671573 13.1716 0 14 0C14.8284 0 15.5 0.671573 15.5 1.5Z" fill="white" fill-opacity="0.15"/>
<path d="M12 6C12 4.89543 12.8954 4 14 4C15.1046 4 16 4.89543 16 6V11.3846C16 11.7245 15.7245 12 15.3846 12H12.6154C12.2755 12 12 11.7245 12 11.3846V6Z" fill="white" fill-opacity="0.15"/>
<path d="M9.5 1.5C9.5 2.32843 8.82843 3 8 3C7.17157 3 6.5 2.32843 6.5 1.5C6.5 0.671573 7.17157 0 8 0C8.82843 0 9.5 0.671573 9.5 1.5Z" fill="white" fill-opacity="0.15"/>
<path d="M6 6C6 4.89543 6.89543 4 8 4C9.10457 4 10 4.89543 10 6V11.3846C10 11.7245 9.72448 12 9.38462 12H6.61538C6.27552 12 6 11.7245 6 11.3846V6Z" fill="white" fill-opacity="0.15"/>
<path d="M3.5 1.5C3.5 2.32843 2.82843 3 2 3C1.17157 3 0.5 2.32843 0.5 1.5C0.5 0.671573 1.17157 0 2 0C2.82843 0 3.5 0.671573 3.5 1.5Z" fill="white"/>
<path d="M0 6C0 4.89543 0.895431 4 2 4C3.10457 4 4 4.89543 4 6V11.3846C4 11.7245 3.72448 12 3.38462 12H0.615385C0.275517 12 0 11.7245 0 11.3846V6Z" fill="white"/>
</svg>
