<svg fill="none" height="12" viewBox="0 0 16 12" width="16" xmlns="http://www.w3.org/2000/svg"><g fill="#fff"><g opacity=".33"><path d="m15.5 1.5c0 .82843-.6716 1.5-1.5 1.5s-1.5-.67157-1.5-1.5c0-.828427.6716-1.5 1.5-1.5s1.5.671573 1.5 1.5z"/><path d="m12 6c0-1.10457.8954-2 2-2s2 .89543 2 2v5.3846c0 .3399-.2755.6154-.6154.6154h-2.7692c-.3399 0-.6154-.2755-.6154-.6154z"/></g><g opacity=".33"><path d="m9.5 1.5c0 .82843-.67157 1.5-1.5 1.5s-1.5-.67157-1.5-1.5c0-.828427.67157-1.5 1.5-1.5s1.5.671573 1.5 1.5z"/><path d="m6 6c0-1.10457.89543-2 2-2s2 .89543 2 2v5.3846c0 .3399-.27552.6154-.61538.6154h-2.76924c-.33986 0-.61538-.2755-.61538-.6154z"/></g><path d="m3.5 1.5c0 .82843-.67157 1.5-1.5 1.5s-1.5-.67157-1.5-1.5c0-.828427.67157-1.5 1.5-1.5s1.5.671573 1.5 1.5z"/><path d="m0 6c0-1.10457.895431-2 2-2 1.10457 0 2 .89543 2 2v5.3846c0 .3399-.27552.6154-.61538.6154h-2.769235c-.339868 0-.615385-.2755-.615385-.6154z"/></g></svg>
