<svg width="39" height="18" viewBox="0 0 39 18" fill="none" xmlns="http://www.w3.org/2000/svg">
<rect width="38.25" height="18" rx="9" fill="#7C878E"/>
<rect x="0.5" y="0.5" width="37.25" height="17" rx="8.5" stroke="black" stroke-opacity="0.15"/>
<path d="M10.0749 10.656C10.0749 10.944 10.1269 11.188 10.2309 11.388C10.3349 11.588 10.4709 11.752 10.6389 11.88C10.8149 12 11.0189 12.092 11.2509 12.156C11.4829 12.212 11.7229 12.24 11.9709 12.24C12.1389 12.24 12.3189 12.228 12.5109 12.204C12.7029 12.172 12.8829 12.116 13.0509 12.036C13.2189 11.956 13.3589 11.848 13.4709 11.712C13.5829 11.568 13.6389 11.388 13.6389 11.172C13.6389 10.94 13.5629 10.752 13.4109 10.608C13.2669 10.464 13.0749 10.344 12.8349 10.248C12.5949 10.152 12.3229 10.068 12.0189 9.996C11.7149 9.924 11.4069 9.844 11.0949 9.756C10.7749 9.676 10.4629 9.58 10.1589 9.468C9.85489 9.348 9.58289 9.196 9.34289 9.012C9.10289 8.828 8.90689 8.6 8.75489 8.328C8.61089 8.048 8.53889 7.712 8.53889 7.32C8.53889 6.88 8.63089 6.5 8.81489 6.18C9.00689 5.852 9.25489 5.58 9.55889 5.364C9.86289 5.148 10.2069 4.988 10.5909 4.884C10.9749 4.78 11.3589 4.728 11.7429 4.728C12.1909 4.728 12.6189 4.78 13.0269 4.884C13.4429 4.98 13.8109 5.14 14.1309 5.364C14.4509 5.588 14.7029 5.876 14.8869 6.228C15.0789 6.572 15.1749 6.992 15.1749 7.488H13.3509C13.3349 7.232 13.2789 7.02 13.1829 6.852C13.0949 6.684 12.9749 6.552 12.8229 6.456C12.6709 6.36 12.4949 6.292 12.2949 6.252C12.1029 6.212 11.8909 6.192 11.6589 6.192C11.5069 6.192 11.3549 6.208 11.2029 6.24C11.0509 6.272 10.9109 6.328 10.7829 6.408C10.6629 6.488 10.5629 6.588 10.4829 6.708C10.4029 6.828 10.3629 6.98 10.3629 7.164C10.3629 7.332 10.3949 7.468 10.4589 7.572C10.5229 7.676 10.6469 7.772 10.8309 7.86C11.0229 7.948 11.2829 8.036 11.6109 8.124C11.9469 8.212 12.3829 8.324 12.9189 8.46C13.0789 8.492 13.2989 8.552 13.5789 8.64C13.8669 8.72 14.1509 8.852 14.4309 9.036C14.7109 9.22 14.9509 9.468 15.1509 9.78C15.3589 10.084 15.4629 10.476 15.4629 10.956C15.4629 11.348 15.3869 11.712 15.2349 12.048C15.0829 12.384 14.8549 12.676 14.5509 12.924C14.2549 13.164 13.8829 13.352 13.4349 13.488C12.9949 13.624 12.4829 13.692 11.8989 13.692C11.4269 13.692 10.9669 13.632 10.5189 13.512C10.0789 13.4 9.68689 13.22 9.34289 12.972C9.00689 12.724 8.73889 12.408 8.53889 12.024C8.33889 11.64 8.24289 11.184 8.25089 10.656H10.0749ZM16.9589 4.932H18.8429V11.916H23.0189V13.5H16.9589V4.932ZM29.6191 6.504H26.1511L25.8151 8.412L25.8391 8.436C26.0711 8.204 26.3191 8.04 26.5831 7.944C26.8471 7.84 27.1471 7.788 27.4831 7.788C27.8991 7.788 28.2671 7.864 28.5871 8.016C28.9071 8.168 29.1751 8.372 29.3911 8.628C29.6151 8.884 29.7831 9.188 29.8951 9.54C30.0151 9.884 30.0751 10.252 30.0751 10.644C30.0751 11.076 29.9911 11.48 29.8231 11.856C29.6551 12.224 29.4271 12.544 29.1391 12.816C28.8591 13.088 28.5311 13.3 28.1551 13.452C27.7791 13.596 27.3791 13.664 26.9551 13.656C26.5471 13.656 26.1551 13.604 25.7791 13.5C25.4111 13.388 25.0831 13.22 24.7951 12.996C24.5071 12.772 24.2751 12.496 24.0991 12.168C23.9311 11.832 23.8431 11.444 23.8351 11.004H25.5391C25.5791 11.388 25.7231 11.696 25.9711 11.928C26.2191 12.152 26.5351 12.264 26.9191 12.264C27.1431 12.264 27.3431 12.22 27.5191 12.132C27.7031 12.036 27.8551 11.916 27.9751 11.772C28.1031 11.62 28.1991 11.448 28.2631 11.256C28.3351 11.056 28.3711 10.852 28.3711 10.644C28.3711 10.428 28.3391 10.224 28.2751 10.032C28.2111 9.84 28.1151 9.672 27.9871 9.528C27.8591 9.384 27.7071 9.272 27.5311 9.192C27.3551 9.112 27.1511 9.072 26.9191 9.072C26.6151 9.072 26.3671 9.128 26.1751 9.24C25.9831 9.344 25.8031 9.512 25.6351 9.744H24.0991L24.9271 5.1H29.6191V6.504Z" fill="white"/>
</svg>
