<svg width="40" height="24" viewBox="0 0 40 24" fill="none" xmlns="http://www.w3.org/2000/svg">
<rect width="40" height="24" rx="12" fill="#008EAA"/>
<rect x="0.5" y="0.5" width="39" height="23" rx="11.5" stroke="black" stroke-opacity="0.15"/>
<path fill-rule="evenodd" clip-rule="evenodd" d="M18.0832 6.45295V7.58697H16.8396V8.46623L19.9975 7.13235L23.1557 8.46623V7.58697H21.9067V6.45295H18.0832ZM21.0295 17.3837C20.3979 17.7651 19.5972 17.7651 18.9655 17.3837C18.4107 17.0778 17.726 17.0971 17.1905 17.4337C16.5644 17.7819 15.79 17.7625 15.1832 17.3837C14.6534 17.0802 13.9948 17.0802 13.465 17.3837C13.1798 17.5617 12.8495 17.6604 12.5103 17.6687V16.1697C12.8269 16.1677 13.1383 16.0924 13.4185 15.9499C14.6776 15.2305 15.2658 16.0948 15.9624 16.0898V12.5927L14.8994 10.0699C14.8211 9.90933 14.8119 9.72524 14.8738 9.55812C14.9357 9.39099 15.0637 9.25451 15.2295 9.17872C15.2481 9.1702 15.2671 9.16251 15.2865 9.15565L15.9366 8.88585V6.68783H17.1595V5.53871H18.9139V4H21.0811V5.53871H22.8355V6.68783H24.0791V8.87099L24.7293 9.14073C25.0878 9.26815 25.2717 9.65277 25.1401 9.99985C25.133 10.0185 25.1251 10.0369 25.1163 10.055L24.048 12.5777V16.0748C24.7394 16.0748 25.3019 15.2006 26.5919 15.9199C26.8714 16.0647 27.1831 16.1418 27.5 16.1447V17.6435C27.1617 17.6303 26.8327 17.5321 26.5455 17.3585C26.0141 17.0603 25.3585 17.0603 24.8271 17.3585C24.2204 17.7373 23.446 17.7567 22.8199 17.4085C22.2754 17.0749 21.5836 17.0653 21.0295 17.3837ZM21.0295 19.6917C20.3741 20.0545 19.5693 20.0545 18.9139 19.6917C18.3731 19.3656 17.6825 19.3872 17.1647 19.7467C16.5386 20.0949 15.7642 20.0756 15.1574 19.6968C14.6262 19.3939 13.9629 19.4113 13.4495 19.7417C13.1651 19.9128 12.8346 19.998 12.5 19.9867V18.4179C12.8189 18.4371 13.1361 18.3604 13.4082 18.1983C14.0635 17.7836 14.6569 17.8636 15.4722 18.3032C16.0421 18.5381 16.6924 18.5031 17.2318 18.2083C17.9593 17.8185 18.3566 17.9135 19.1203 18.2632C19.6573 18.5333 20.2965 18.5333 20.8335 18.2632C21.5969 17.9135 22.0151 17.8185 22.7427 18.2083C23.2781 18.5036 23.9257 18.5387 24.4919 18.3032C25.3175 17.8635 25.9161 17.8036 26.556 18.1983C26.8257 18.3657 27.1447 18.4429 27.4641 18.418V19.9865C27.1161 20.0096 26.7693 19.9257 26.4734 19.7467C25.9667 19.4187 25.3106 19.4012 24.786 19.7017C24.1793 20.0807 23.4048 20.0999 22.7788 19.7517C22.2593 19.3985 21.5735 19.3751 21.0295 19.6917Z" fill="white"/>
</svg>
