<svg fill="none" height="24" viewBox="0 0 24 24" width="24" xmlns="http://www.w3.org/2000/svg"><path clip-rule="evenodd" d="m3.70711 2.29289c-.39053-.39052-1.02369-.39052-1.41422 0-.39052.39053-.39052 1.02369 0 1.41422l18.00001 17.99999c.3905.3905 1.0237.3905 1.4142 0s.3905-1.0237 0-1.4142zm4.13369 9.83691-.72299-1.7696 6.62669 6.6267c-.2373.0295-.47.1072-.683.2334-.6508.4051-1.4758.4051-2.1266 0-.5716-.325-1.27706-.3045-1.82881.0531-.64503.3699-1.44291.3494-2.06805-.0531-.54593-.3225-1.22443-.3225-1.77037 0-.29377.1892-.63405.2939-.98353.3028v-1.5927c.3261-.0021.64695-.0822.93568-.2335.87071-.5131 1.43003-.268 1.92074-.0531.24037.1053.46427.2034.70024.2017zm8.7682 7.7216-1.7223-1.7223c-.0202-.0106-.0403-.0216-.0601-.0329-.7496-.414-1.1805-.3132-1.9671.0584-.5533.2871-1.2118.2871-1.7651 0-.7868-.3716-1.19618-.4724-1.94577-.0584-.55572.3132-1.22574.3505-1.81287.1009-.84001-.4671-1.45142-.5521-2.12657-.1115-.28033.1723-.60718.2538-.93572.2333v1.6669c.34471.0121.68523-.0785.97823-.2602.52901-.3511 1.2124-.3697 1.75975-.0478.62513.4025 1.42302.423 2.06804.0531.53353-.382 1.24511-.405 1.80231-.0584.6752.3855 1.5044.3855 2.1797 0 .5605-.3366 1.267-.3116 1.8022.0637.5384.3088 1.1833.3456 1.7453.1152zm-6.3016-12.78683 5.864 5.86403v-.8147l1.1007-2.68045c.0091-.01918.0172-.0387.0246-.05857.1355-.36878-.054-.77744-.4233-.91282l-.6699-.28661v-2.31961h-1.2813v-1.22096h-1.8075v-1.63488h-2.2329v1.63488h-1.8076v1.19648l.9515.95151v-1.17661h3.9394v1.20492h1.2869v.9342l-3.2539-1.41725z" fill="#008eaa" fill-rule="evenodd"/></svg>
