<svg width="24" height="24" viewBox="0 0 24 24" fill="none" xmlns="http://www.w3.org/2000/svg">
<path d="M15.2937 19.7063C15.6843 20.0969 16.3187 20.0969 16.7093 19.7063L20.7093 15.7063C21.1 15.3156 21.1 14.6812 20.7093 14.2906C20.3187 13.9 19.6843 13.9 19.2937 14.2906L17 16.5844V5C17 4.44687 16.5531 4 16 4C15.4468 4 15 4.44687 15 5V16.5844L12.7062 14.2937C12.3156 13.9031 11.6812 13.9031 11.2906 14.2937C10.9 14.6844 10.9 15.3188 11.2906 15.7094L15.2906 19.7094L15.2937 19.7063Z" fill="#192026"/>
<path d="M8.70615 4.29302C8.31553 3.90239 7.68115 3.90239 7.29053 4.29302L3.29053 8.29302C2.8999 8.68364 2.8999 9.31802 3.29053 9.70864C3.68115 10.0993 4.31553 10.0993 4.70615 9.70864L6.9999 7.41489L6.9999 18.9993C6.9999 19.5524 7.44678 19.9993 7.9999 19.9993C8.55303 19.9993 8.9999 19.5524 8.9999 18.9993L8.9999 7.41489L11.2937 9.70552C11.6843 10.0961 12.3187 10.0961 12.7093 9.70552C13.0999 9.31489 13.0999 8.68052 12.7093 8.28989L8.70928 4.28989L8.70615 4.29302Z" fill="#192026"/>
</svg>
