<svg width="24" height="24" viewBox="0 0 24 24" fill="none" xmlns="http://www.w3.org/2000/svg">
<path d="M12 14.001C12.138 14.001 12.2483 14.1136 12.2607 14.251C12.3871 15.6526 13.5655 16.751 15 16.751C15.9329 16.751 16.7557 16.2855 17.2529 15.5752V15.8125C17.2521 16.1726 17.0879 16.5138 16.8066 16.7393L14.9248 18.127H14.9199L16.46 21.001H15.2061L14.9805 20.6055H9.0459L8.8252 21.001H7.56152L9.11133 18.127L7.19043 16.7246C6.91446 16.5018 6.7526 16.1668 6.74902 15.8125V15.5781C7.24646 16.2868 8.0684 16.751 9 16.751C10.4345 16.751 11.6129 15.6526 11.7393 14.251C11.7517 14.1136 11.862 14.001 12 14.001ZM9.37695 20H14.6445L14.2979 19.3789H9.72363L9.37695 20ZM10.0547 18.7783H13.9619L13.626 18.1768H10.3857L10.0547 18.7783ZM9 11.5C10.3806 11.5 11.4998 12.6195 11.5 14C11.5 15.3807 10.3807 16.5 9 16.5C7.61929 16.5 6.5 15.3807 6.5 14C6.50019 12.6195 7.61941 11.5 9 11.5ZM15 11.5C16.3806 11.5 17.4998 12.6195 17.5 14C17.5 15.3807 16.3807 16.5 15 16.5C13.6193 16.5 12.5 15.3807 12.5 14C12.5002 12.6195 13.6194 11.5 15 11.5ZM11.7246 3.03223C11.8944 2.99303 12.0707 2.99146 12.2412 3.02734C13.345 3.21424 14.4371 3.46488 15.5117 3.77832C16.0234 3.89048 16.3928 4.33746 16.4053 4.86035V6.6582C16.4026 6.88948 16.5176 7.10696 16.7109 7.23438C17.0487 7.45353 17.2531 7.82825 17.2529 8.23047V12.3496C16.7161 11.5377 15.7962 11.001 14.75 11.001C13.5194 11.001 12.4627 11.7426 12 12.8027C11.5373 11.7426 10.4806 11.001 9.25 11.001C8.20506 11.001 7.28617 11.5364 6.74902 12.3467V8.23047C6.74838 7.82032 6.96087 7.43891 7.31055 7.22363C7.50885 7.09783 7.62653 6.87708 7.62109 6.64258V4.86035C7.62109 4.17935 8.22314 3.86329 8.79492 3.70801C9.76301 3.43758 10.7465 3.24756 11.7246 3.03223ZM12 8.31543C11.6404 8.31603 11.2959 8.45965 11.042 8.71387C10.7881 8.96839 10.6457 9.31362 10.6465 9.67285C10.648 10.4209 11.2565 11.0268 12.0059 11.0254C12.755 11.0238 13.3616 10.4159 13.3604 9.66797C13.359 8.9198 12.7494 8.31405 12 8.31543ZM10.7363 4.06348L8.88574 4.4541C8.71009 4.48375 8.5815 4.63759 8.58398 4.81543V5.91699C8.58403 6.02887 8.63453 6.1355 8.7207 6.20703C8.80694 6.27843 8.9211 6.30761 9.03125 6.28711L10.8867 5.92676C11.0625 5.89077 11.1882 5.73575 11.1875 5.55664V4.42969C11.1886 4.31676 11.1386 4.2089 11.0508 4.1377C10.9629 4.06649 10.8469 4.03903 10.7363 4.06348ZM13.3799 4.06348C13.2691 4.03898 13.1531 4.06597 13.0645 4.13672C12.9758 4.20781 12.9238 4.31614 12.9238 4.42969V5.55566C12.9251 5.7358 13.0526 5.89112 13.2295 5.92676L15.0859 6.28711C15.1961 6.30756 15.3103 6.27855 15.3965 6.20703C15.4826 6.13551 15.5322 6.02883 15.5322 5.91699V4.81445C15.5329 4.63915 15.4087 4.48778 15.2363 4.4541L13.3799 4.06348Z" fill="white"/>
<circle cx="9.5" cy="13.5" r="1" fill="black"/>
<circle cx="14.5" cy="13.5" r="1" fill="black"/>
</svg>
