<?xml version="1.0" encoding="UTF-8" standalone="no"?>
<svg fill="none" height="192" id="svg1" version="1.1" viewBox="0 0 192 192" width="192" xmlns="http://www.w3.org/2000/svg">
  <rect
     style="stroke-width:8"
     fill="#165c96"
     height="144"
     id="rect1"
     rx="16"
     width="144"
     x="24"
     y="24" />
  <path
     style="stroke-width:8"
     clip-rule="evenodd"
     d="m 132.3384,129.0744 11.0792,-3.9856 3.0648,7.2728 -19.7984,7.74 -15.0808,-35.212 -36.76576,-0.01 -2.1828,-30.622239 -1.38544,-19.43656 c -0.782,-1.442 -1.25256,-3.15936 -1.25256,-4.83696 0,-5.4996 4.5,-9.98424 10.01856,-9.98424 5.516,0 10.0184,4.48464 10.0184,9.98424 0,5.10992 -3.952,9.47792 -9.04,9.94456 l 1.136,20.0848 25.6888,0.012 v 9.3776 l -24.748,-0.0096 0.4728,6.34 34.1816,-0.2312 z M 58.06304,115.2576 c 0,14.7096 12.03912,26.7072 26.79856,26.7072 13.504802,0 25.0224,-10.3296 26.588,-23.576 l 6.54,13.3328 c -6.2048,12.224 -19.191998,20.2792 -33.0456,20.2792 -20.34864,0 -36.944,-16.5392 -36.944,-36.82 0,-14.2352 8.65824,-27.467999 21.58,-33.333599 l 0.83584,10.8752 c -7.64208,4.8 -12.3528,13.459199 -12.3528,22.535199 z"
     fill="#ffffff"
     fill-rule="evenodd"
     id="path1" />
</svg>
