<svg fill="none" height="32" viewBox="0 0 32 32" width="32" xmlns="http://www.w3.org/2000/svg"><path d="m31 16c0-8.28427-6.7157-15-15-15h-.0196-.0197-.0198-.0199-.02-.02-.0202-.0202-.0203-.0204-.0204-.0206-.0206-.0207-.0208-.0208-.021-.021-.0211-.0211-.0213-.0213-.0214-.0215-.0216-.0216-.0217-.0218-.0218-.022-.022-.0221-.0221-.0222-.0223-.0224-.0225-.0225-.0226-.0226-.0227-.0228-.0229-.0229-.023-.0231-.0232-.0232-.0232-.0234-.0234-.0235-.0235-.0236-.0237-.0237-.0238-.0239-.0239-.024-.0241-.0241-.0242-.0242-.0243-.0244-.0244-.0245-.0246-.0246-.0246-.0248-.0248-.0248-.0249-.025-.025-.025-.0252-.0252-.0252-.0253-.0253-.0255-.0254-.0255-.0256-.0256-.0257-.0257-.0258-.0258-.0259-.0259-.026-.0261-.026-.0262-.0262-.0262-.0263-.0263-.0264-.0264-.0265-.0265-.0265-.0266-.0267-.0267-.0267-.0268-.0269-.0268-.027-.0269-.027-.0271-.0271-.0271-.0272-.0272-.0272-.0273-.0274-.0273-.0274-.0275-.0275-.0275-.0276-.0276-.0276-.0277-.0277-.0277-.0278-.0278-.0279-.0279-.0279-.0279-.028-.028-.0281-.0281-.0281-.0281-.0282-.0282-.0283-.0282-.0283-.0283-.0284-.0284-.0284-.0284-.0285-.0285-.0285-.0286-.0285-.0286-.0286-.0287-.0287-.0287-.0287-.0287-.0288-.0288-.0288-.0288-.0289-.0288-.0289-.029-.0289-.0289-.029-.029-.029-.0291-.029-.0291-.0291-.0291-.0291-.0291-.0291-.0292-.0292-.0292-.0292-.0292-.0292-.0293-.0292-.0293-.0293-.0293-.0293-.0293-.0294-.0293-.0293-.0294-.0294-.0293-.0294-.0294-.0294-.0294-.0294-.0295-.0294-.0294-.0295-.0294-.0294-.0295-.0294-.0295-.0295-.0294-.0295-.0295-.0294-.02952-.02947-.02948-.02947-.02948-.02948-.02947-.02947-.02947-.02947-.02947-.02947-.02946-.02946-.02945-.02945-.02945-.02944-.02944-.02943-.02943-.02942-.02941-.0294-.0294-.02939-.02939-.02937-.02937-.02935-.02935-.02934-.02932-.02932-.0293-.0293-.02928-.02927-.02926-.02924-.02923-.02922-.02921-.02919-.02917-.02916-.02915-.02913-.02911-.0291-.02908-.02906-.02905-.02902-.02901-.02899-.02897-.02896-.02893-.02891-.02889-.02887-.02885-.02883-.02881-.02879-.02876-.02874-.02871-.02869-.02867-.02864-.02862-.0286-.02856-.02854-.02852-.02849-.02846-.02844-.0284-.02838-.02835-.02832-.02829-.02827-.02823-.0282-.02817-.02814-.02811-.02808-.02805-.02801-.02798-.02795-.02791-.02788-.02785-.02781-.02777-.02774-.02771-.02766-.02764-.02759-.02756-.02752-.02748-.02744-.02741-.02737-.02732-.02729-.02725-.0272-.02717-.02712-.02709-.02704-.027-.02695-.02692-.02686-.02683-.02678-.02674-.02669-.02665-.0266-.02655-.02651-.02646-.02642-.02637-.02632-.02627-.02622-.02618-.02612-.02608-.02602-.02598-.02593-.02587-.02582-.02577-.02572-.02566-.02562-.02556-.0255-.02546-.02539-.02535-.02528-.02524-.02517-.02512-.02507-.02501-.02495-.02489-.02483-.02478-.02471-.02466-.0246-.02454-.02448-.02442-.02435-.0243-.02423-.02418-.02411-.02404-.02399-.02392-.02385-.0238-.02373-.02366-.0236-.02353-.02346-.0234-.02334-.02326-.0232-.02313-.02307-.02299-.02292-.02286-.02279-.02271-.02265-.02257-.02251-.02243-.02236-.02229-.02221-.02215-.02207-.02199-.02192-.02185-.02177-.0217-.02162-.02155-.02147-.02139-.02132-.02124-.02116-.02108-.02101-.02092-.02085-.02077-.02069-.0206-.02053-.02045-.02036-.02029-.0202-.02012-.02003-.01995-.01987-.01979-.0197-.01961-.01954-.01944-.01936-.01928-.01918-.01911-.01901-.01893-.01884-.01875-.01866-.01857-.01848-.0184-.0183-.01821-.01813-.01803-.01794-.01785-.01775-.01766-.01758-.01747-.01738-.01729-.0172-.0171-.017-.01691-.01681-.01672-.01662-.01652-.01643-.01633-.01623-.01613-.01603-.01594-.01583-.01573-.01564-.01553-.01543-.01533c-1.10753 0-1.996832.89749-1.996832 1.9991v.01583.01594.01604.01616.01625.01637.01646.01658.01668.01678.01689.01698.0171.01719.0173.01739.0175.0176.0177.0178.0179.018.0181.01819.0183.01839.01849.01858.01868.01878.01887.01897.01906.01916.01925.01934.01943.01953.01962.01972.0198.01989.01999.02007.02017.02025.02034.02044.02052.0206.0207.02078.02086.02096.02103.02113.02121.02129.02138.02146.02154.02163.0217.02179.02187.02196.02203.02211.0222.02227.02235.02243.02251.02258.02267.02273.02282.02289.02297.02305.02311.0232.02326.02334.02342.02348.02356.02363.0237.02378.02384.02392.02398.02405.02413.02419.02426.02433.02439.02446.02453.0246.02466.02472.02479.02486.02492.02498.02505.02511.02517.02524.02529.02536.02542.02548.02554.02559.02566.02572.02577.02584.02589.02594.02601.02606.02612.02617.02622.02629.02633.02639.02645.02649.02655.0266.02666.0267.02676.0268.02686.02691.02695.02701.02705.0271.02715.02719.02725.02729.02733.02738.02743.02747.02752.02756.0276.02764.02769.02774.02777.02781.02786.0279.02793.02798.02802.02805.0281.02813.02817.02821.02824.02828.02832.02835.02839.02843.02845.0285.02852.02856.02859.02863.02865.02869.02872.02875.02879.02881.02884.02887.02889.02893.02896.02898.02901.02904.02906.02909.02911.02914.02916.02919.02921.02924.02926.02928.0293.02933.02934.02937.02939.02941.02942.02945.02947.02948.0295.02952.02954.02956.02957.02958.02961.02961.02964.02964.02966.02968.02969.0297.02971.02972.02974.02975.02976.02977.02977.02979.0298.0298.02982.02982.02982.02984.02984.02985.02986.02986.02986.02987.02987.02988.02988.02988.02989.02988.02989.02989.0299.02989.02989.02989.02989.02989.02989.02988.02989.02988.02987.02988.02987.02986.02986.02989.0298.0299.0298.0298.0298.0299.0298.0298.0297.0298.0298.0297.0298.0297.0298.0297.0297.0297.0296.0297.0296.0297.0296.0296.0296.0295.0296.0295.0296.0295.0294.0295.0295.0294.0294.0294.0294.0293.0293.0293.0293.0293.0292.0292.0292.0292.0291.0291.0291.0291.029.029.029.0289.029.0289.0288.0289.0288.0288.0287.0287.0287.0287.0286.0286.0286.0285.0285.0284.0285.0284.0283.0283.0283.0283.0282.0281.0282.0281.028.028.028.0279.0279.0279.0278.0278.0277.0277.0276.0276.0276.0275.0275.0274.0274l.000001.0273v.0273.0273.0272.0271.0271.0271.027.0269.0269.0269.0268.0267.0268.0266.0266.0266.0265.0264.0264.0263.0263.0262.0262.0261.0261.026.0259.0259.0258.0258.0257.0257.0256.0255.0255.0254.0254.0253.0252.0252.0251.025.025.0249.0249.0248.0247.0247.0246.0245.0245.0244.0243.0242.0242.0242.024.024.0239.0239.0237.0237.0237.0235.0235.0234.0234.0232.0232.0231.0231.0229.0229.0229.0227.0227.0225.0225.0225.0223.0223.0222.0221.022.022.0219.0217.0218.0216.0215.0215.0214.0213.0212.0211.021.021.0208.0208.0207.0206.0205.0205.0203.0203.0201.0201.02.0199.0198.0197.0196.0195.0195.0193.0193.0191.0191.019.0188.0188.0187.0186.0185.0183.0183.0182.0181.018.0179.0178.0177.0176.0175.0174.0173.0172.0171c.000001 8.2843 6.715731 15 15.000001 15 8.2843 0 15-6.7157 15-15z" fill="#000" opacity=".5" stroke="#000" stroke-width="2"/></svg>
