<svg width="24" height="30" viewBox="0 0 24 30" fill="none" xmlns="http://www.w3.org/2000/svg">
<mask id="path-1-inside-1_731_139533" fill="white">
<path d="M9.93066 21.0355L13.9301 20.9657L14.0697 28.9645L10.0703 29.0343L9.93066 21.0355Z"/>
</mask>
<path d="M9.93066 21.0355L13.9301 20.9657L14.0697 28.9645L10.0703 29.0343L9.93066 21.0355Z" fill="#BDBFC1"/>
<path d="M14.0522 27.9646L10.0528 28.0345L10.0877 30.0342L14.0871 29.9643L14.0522 27.9646Z" fill="black" fill-opacity="0.15" mask="url(#path-1-inside-1_731_139533)"/>
<g filter="url(#filter0_dd_731_139533)">
<path d="M21 10V24C21 24.5523 20.5523 25 20 25H4C3.44772 25 3 24.5523 3 24V10C3 5.02944 7.02944 1 12 1C16.9706 1 21 5.02944 21 10Z" fill="url(#paint0_linear_731_139533)"/>
<path d="M20.5 10V24C20.5 24.2761 20.2761 24.5 20 24.5H4C3.72386 24.5 3.5 24.2761 3.5 24V10C3.5 5.30558 7.30558 1.5 12 1.5C16.6944 1.5 20.5 5.30558 20.5 10Z" stroke="black" stroke-opacity="0.3"/>
</g>
<rect x="6" y="14" width="12" height="4" rx="2" fill="#BDBFC1"/>
<g style="mix-blend-mode:multiply">
<rect x="9" y="4" width="6" height="6" rx="3" fill="#BDBFC1"/>
</g>
<defs>
<filter id="filter0_dd_731_139533" x="1" y="0" width="22" height="28" filterUnits="userSpaceOnUse" color-interpolation-filters="sRGB">
<feFlood flood-opacity="0" result="BackgroundImageFix"/>
<feColorMatrix in="SourceAlpha" type="matrix" values="0 0 0 0 0 0 0 0 0 0 0 0 0 0 0 0 0 0 127 0" result="hardAlpha"/>
<feOffset/>
<feGaussianBlur stdDeviation="0.5"/>
<feComposite in2="hardAlpha" operator="out"/>
<feColorMatrix type="matrix" values="0 0 0 0 0 0 0 0 0 0 0 0 0 0 0 0 0 0 0.25 0"/>
<feBlend mode="normal" in2="BackgroundImageFix" result="effect1_dropShadow_731_139533"/>
<feColorMatrix in="SourceAlpha" type="matrix" values="0 0 0 0 0 0 0 0 0 0 0 0 0 0 0 0 0 0 127 0" result="hardAlpha"/>
<feOffset dy="1"/>
<feGaussianBlur stdDeviation="1"/>
<feComposite in2="hardAlpha" operator="out"/>
<feColorMatrix type="matrix" values="0 0 0 0 0 0 0 0 0 0 0 0 0 0 0 0 0 0 0.1 0"/>
<feBlend mode="normal" in2="effect1_dropShadow_731_139533" result="effect2_dropShadow_731_139533"/>
<feBlend mode="normal" in="SourceGraphic" in2="effect2_dropShadow_731_139533" result="shape"/>
</filter>
<linearGradient id="paint0_linear_731_139533" x1="12" y1="1" x2="12" y2="22.6" gradientUnits="userSpaceOnUse">
<stop offset="0.45" stop-color="#FFC72C"/>
<stop offset="0.45" stop-color="white"/>
<stop offset="0.98" stop-color="white"/>
<stop offset="0.98" stop-color="#FFC72C"/>
</linearGradient>
</defs>
</svg>
