<svg width="18" height="18" viewBox="0 0 18 18" fill="none" xmlns="http://www.w3.org/2000/svg">
<path d="M10.4658 1.10717L10.1146 1.45838L10.4658 1.10717C9.65628 0.297611 8.34372 0.297609 7.53416 1.10717L1.10717 7.53416C0.29761 8.34372 0.297609 9.65628 1.10717 10.4658L1.45738 10.1156L1.10717 10.4658L7.53416 16.8928C8.34372 17.7024 9.65628 17.7024 10.4658 16.8928L16.8928 10.4658C17.7024 9.65628 17.7024 8.34372 16.8928 7.53416L10.4658 1.10717Z" fill="#003DA5" stroke="#003DA5"/>
<path fill-rule="evenodd" clip-rule="evenodd" d="M7.88771 1.46072L1.46072 7.88771C0.846426 8.50201 0.846425 9.49799 1.46072 10.1123L7.88771 16.5393C8.50201 17.1536 9.49799 17.1536 10.1123 16.5393L16.5393 10.1123C17.1536 9.49799 17.1536 8.50201 16.5393 7.88771L10.1123 1.46072C9.49799 0.846426 8.50201 0.846425 7.88771 1.46072ZM7.88928 6.25139C7.84918 5.60983 8.3587 5.06747 9.00151 5.06747C9.64432 5.06747 10.1538 5.60983 10.1137 6.25139L9.91804 9.38271C9.88779 9.86669 9.48644 10.2437 9.00151 10.2437C8.51658 10.2437 8.11524 9.86669 8.08499 9.38271L7.88928 6.25139ZM8.03116 12.2925C8.03116 11.7565 8.46569 11.322 9.00171 11.322C9.53773 11.322 9.97226 11.7565 9.97226 12.2925C9.97226 12.8285 9.53773 13.2631 9.00171 13.2631C8.46569 13.2631 8.03116 12.8285 8.03116 12.2925Z" fill="white"/>
</svg>
