<svg width="31" height="18" viewBox="0 0 31 18" fill="none" xmlns="http://www.w3.org/2000/svg">
<rect width="31" height="18" rx="9" fill="#80276C"/>
<rect x="0.5" y="0.5" width="30" height="17" rx="8.5" stroke="white" stroke-opacity="0.15"/>
<path d="M13.0127 7.812C12.9807 7.596 12.9087 7.4 12.7967 7.224C12.6847 7.04 12.5447 6.88 12.3767 6.744C12.2087 6.608 12.0167 6.504 11.8007 6.432C11.5927 6.352 11.3727 6.312 11.1407 6.312C10.7167 6.312 10.3567 6.396 10.0607 6.564C9.76466 6.724 9.52466 6.944 9.34066 7.224C9.15666 7.496 9.02066 7.808 8.93266 8.16C8.85266 8.512 8.81266 8.876 8.81266 9.252C8.81266 9.612 8.85266 9.964 8.93266 10.308C9.02066 10.644 9.15666 10.948 9.34066 11.22C9.52466 11.492 9.76466 11.712 10.0607 11.88C10.3567 12.04 10.7167 12.12 11.1407 12.12C11.7167 12.12 12.1647 11.944 12.4847 11.592C12.8127 11.24 13.0127 10.776 13.0847 10.2H14.9087C14.8607 10.736 14.7367 11.22 14.5367 11.652C14.3367 12.084 14.0727 12.452 13.7447 12.756C13.4167 13.06 13.0327 13.292 12.5927 13.452C12.1527 13.612 11.6687 13.692 11.1407 13.692C10.4847 13.692 9.89266 13.58 9.36466 13.356C8.84466 13.124 8.40466 12.808 8.04466 12.408C7.68466 12.008 7.40866 11.54 7.21666 11.004C7.02466 10.46 6.92866 9.876 6.92866 9.252C6.92866 8.612 7.02466 8.02 7.21666 7.476C7.40866 6.924 7.68466 6.444 8.04466 6.036C8.40466 5.628 8.84466 5.308 9.36466 5.076C9.89266 4.844 10.4847 4.728 11.1407 4.728C11.6127 4.728 12.0567 4.796 12.4727 4.932C12.8967 5.068 13.2727 5.268 13.6007 5.532C13.9367 5.788 14.2127 6.108 14.4287 6.492C14.6447 6.876 14.7807 7.316 14.8367 7.812H13.0127ZM18.5792 8.808H20.6432C21.0752 8.808 21.3992 8.712 21.6152 8.52C21.8312 8.328 21.9392 8.016 21.9392 7.584C21.9392 7.168 21.8312 6.868 21.6152 6.684C21.3992 6.492 21.0752 6.396 20.6432 6.396H18.5792V8.808ZM16.6952 4.932H21.3152C21.6992 4.932 22.0432 4.996 22.3472 5.124C22.6592 5.244 22.9232 5.412 23.1392 5.628C23.3632 5.844 23.5312 6.096 23.6432 6.384C23.7632 6.664 23.8232 6.968 23.8232 7.296C23.8232 7.8 23.7152 8.236 23.4992 8.604C23.2912 8.972 22.9472 9.252 22.4672 9.444V9.468C22.6992 9.532 22.8912 9.632 23.0432 9.768C23.1952 9.896 23.3192 10.052 23.4152 10.236C23.5112 10.412 23.5792 10.608 23.6192 10.824C23.6672 11.04 23.6992 11.256 23.7152 11.472C23.7232 11.608 23.7312 11.768 23.7392 11.952C23.7472 12.136 23.7592 12.324 23.7752 12.516C23.7992 12.708 23.8312 12.892 23.8712 13.068C23.9192 13.236 23.9872 13.38 24.0752 13.5H22.1912C22.0872 13.228 22.0232 12.904 21.9992 12.528C21.9752 12.152 21.9392 11.792 21.8912 11.448C21.8272 11 21.6912 10.672 21.4832 10.464C21.2752 10.256 20.9352 10.152 20.4632 10.152H18.5792V13.5H16.6952V4.932Z" fill="white"/>
</svg>
