<svg width="24" height="24" viewBox="0 0 24 24" fill="none" xmlns="http://www.w3.org/2000/svg">
<path fill-rule="evenodd" clip-rule="evenodd" d="M20.3077 4.38462C20.3077 3.61991 19.6878 3 18.9231 3C10.129 3 3 10.129 3 18.9231C3 19.6878 3.61991 20.3077 4.38462 20.3077C5.14932 20.3077 5.76923 19.6878 5.76923 18.9231C5.76923 11.6584 11.6584 5.76923 18.9231 5.76923C19.6878 5.76923 20.3077 5.14932 20.3077 4.38462ZM18.9231 9.92272C19.6878 9.92272 20.3077 10.5426 20.3077 11.3073C20.3077 12.072 19.6878 12.692 18.9231 12.692C15.4819 12.692 12.6923 15.4816 12.6923 18.9227C12.6923 19.6874 12.0724 20.3073 11.3077 20.3073C10.543 20.3073 9.92311 19.6874 9.92311 18.9227C9.92311 13.9522 13.9525 9.92272 18.9231 9.92272ZM21.0001 18.9231C21.0001 20.0702 20.0702 21.0001 18.9231 21.0001C17.7761 21.0001 16.8462 20.0702 16.8462 18.9231C16.8462 17.7761 17.7761 16.8462 18.9231 16.8462C20.0702 16.8462 21.0001 17.7761 21.0001 18.9231Z" fill="#192026"/>
</svg>
