<svg width="18" height="18" viewBox="0 0 18 18" fill="none" xmlns="http://www.w3.org/2000/svg">
<mask id="path-1-inside-1_925_586009" fill="white">
<path fill-rule="evenodd" clip-rule="evenodd" d="M9.04662 17.9999C14.0881 17.8705 18.1287 13.7716 17.9967 8.952C17.8606 3.98325 13.92 -0.0261215 8.95037 0.000128161C3.98071 0.0267099 -0.0264459 4.07764 0.000131444 9.04813C0.0267088 14.0186 4.07696 18.0265 9.04662 17.9999Z"/>
</mask>
<path fill-rule="evenodd" clip-rule="evenodd" d="M9.04662 17.9999C14.0881 17.8705 18.1287 13.7716 17.9967 8.952C17.8606 3.98325 13.92 -0.0261215 8.95037 0.000128161C3.98071 0.0267099 -0.0264459 4.07764 0.000131444 9.04813C0.0267088 14.0186 4.07696 18.0265 9.04662 17.9999Z" fill="#FFC72C"/>
<path d="M17.9967 8.952L18.7464 8.93146L17.9967 8.952ZM8.95037 0.000128161L8.94641 -0.749861L8.94636 -0.749861L8.95037 0.000128161ZM9.06586 18.7496C14.4925 18.6104 18.8906 14.1944 18.7464 8.93146L17.247 8.97253C17.3669 13.3488 13.6836 17.1306 9.02738 17.2501L9.06586 18.7496ZM18.7464 8.93146C18.5998 3.57673 14.3451 -0.778377 8.94641 -0.749861L8.95433 0.750118C13.4949 0.726134 17.1215 4.38977 17.247 8.97254L18.7464 8.93146ZM8.94636 -0.749861C3.56238 -0.721063 -0.778649 3.66756 -0.749858 9.05214L0.750121 9.04412C0.725758 4.48772 4.39905 0.774483 8.95438 0.750117L8.94636 -0.749861ZM-0.749858 9.05214C-0.721066 14.4367 3.66664 18.7787 9.05063 18.7499L9.0426 17.2499C4.48727 17.2742 0.774484 13.6005 0.750121 9.04412L-0.749858 9.05214Z" fill="white" fill-opacity="0.3" mask="url(#path-1-inside-1_925_586009)"/>
<path fill-rule="evenodd" clip-rule="evenodd" d="M13.7991 8.03769L13.3328 4.38847C13.2143 3.73 12.7971 3.47306 12.1764 3.20359C11.1592 2.84116 10.0867 2.64561 9.00303 2.625C7.91772 2.64584 6.84356 2.84138 5.82452 3.20359C5.21148 3.46798 4.79423 3.7299 4.66803 4.38836L4.19922 8.03769V13.0863H5.02218V13.9655C5.0233 14.3267 5.32544 14.6192 5.69843 14.6202C6.0714 14.6191 6.37347 14.3266 6.37457 13.9654V13.0862H11.6485V13.9654C11.6467 14.2005 11.7752 14.4184 11.9851 14.5365C12.195 14.6545 12.4542 14.6545 12.6641 14.5365C12.874 14.4184 13.0025 14.2005 13.0007 13.9654V13.0862H13.7992L13.7991 8.03769ZM7.02742 3.54785H10.9941C11.162 3.54785 11.2981 3.67963 11.2981 3.84219C11.2981 4.00475 11.162 4.13653 10.9941 4.13653H7.02742C6.85955 4.13653 6.72347 4.00475 6.72347 3.84219C6.72347 3.67963 6.85955 3.54785 7.02742 3.54785ZM5.05176 7.9305L5.43794 5.04954C5.47016 4.86789 5.63381 4.73578 5.82412 4.73777H12.2304C12.4202 4.73585 12.5831 4.8682 12.6142 5.04954L13.0004 7.9305C13.0055 7.96357 13.0055 7.9972 13.0004 8.03027V8.0502C13.0008 8.14932 12.9602 8.24447 12.8876 8.31434C12.815 8.38421 12.7165 8.42295 12.6142 8.42188H5.42009C5.31756 8.4174 5.22109 8.37358 5.15199 8.30011C5.08288 8.22663 5.04681 8.12954 5.05176 8.03027C5.04662 7.9972 5.04662 7.96357 5.05176 7.9305ZM5.69871 11.5248C5.30096 11.5255 4.97793 11.2139 4.97718 10.8289C4.97644 10.4439 5.29826 10.1312 5.69601 10.1304C6.09376 10.1297 6.41683 10.4412 6.41761 10.8262C6.41811 11.0112 6.34261 11.1887 6.20776 11.3197C6.07291 11.4508 5.88978 11.5245 5.69871 11.5248ZM11.6047 10.8271C11.605 10.4425 11.9271 10.1307 12.3245 10.1304C12.7219 10.1302 13.0444 10.4415 13.0452 10.8262C13.0457 11.0116 12.9698 11.1896 12.8343 11.3207C12.6989 11.4518 12.515 11.5253 12.3234 11.5248C11.9261 11.524 11.6045 11.2118 11.6047 10.8271Z" fill="#192026"/>
</svg>
