<svg width="56" height="24" viewBox="0 0 56 24" fill="none" xmlns="http://www.w3.org/2000/svg">
<rect width="56" height="24" rx="12" fill="#00843D"/>
<rect x="0.5" y="0.5" width="55" height="23" rx="11.5" stroke="white" stroke-opacity="0.15"/>
<path d="M17.0709 16.704C16.6229 17.28 16.1269 17.6853 15.5829 17.92C15.0389 18.144 14.4896 18.256 13.9349 18.256C13.0603 18.256 12.2709 18.1067 11.5669 17.808C10.8736 17.4987 10.2869 17.0773 9.80694 16.544C9.32694 16.0107 8.95894 15.3867 8.70294 14.672C8.44694 13.9467 8.31894 13.168 8.31894 12.336C8.31894 11.4827 8.44694 10.6933 8.70294 9.968C8.95894 9.232 9.32694 8.592 9.80694 8.048C10.2869 7.504 10.8736 7.07733 11.5669 6.768C12.2709 6.45867 13.0603 6.304 13.9349 6.304C14.5216 6.304 15.0869 6.39467 15.6309 6.576C16.1856 6.74667 16.6816 7.00267 17.1189 7.344C17.5669 7.68533 17.9349 8.10667 18.2229 8.608C18.5109 9.10933 18.6869 9.68533 18.7509 10.336H16.3509C16.2016 9.696 15.9136 9.216 15.4869 8.896C15.0603 8.576 14.5429 8.416 13.9349 8.416C13.3696 8.416 12.8896 8.528 12.4949 8.752C12.1003 8.96533 11.7803 9.25867 11.5349 9.632C11.2896 9.99467 11.1083 10.4107 10.9909 10.88C10.8843 11.3493 10.8309 11.8347 10.8309 12.336C10.8309 12.816 10.8843 13.2853 10.9909 13.744C11.1083 14.192 11.2896 14.5973 11.5349 14.96C11.7803 15.3227 12.1003 15.616 12.4949 15.84C12.8896 16.0533 13.3696 16.16 13.9349 16.16C14.7669 16.16 15.4069 15.952 15.8549 15.536C16.3136 15.1093 16.5803 14.496 16.6549 13.696H14.1269V11.824H18.9269V18H17.3269L17.0709 16.704ZM21.4556 6.576H23.9676V15.888H29.5356V18H21.4556V6.576ZM34.9279 12.272C34.9279 12.7627 34.7626 13.1733 34.4319 13.504C34.1119 13.8347 33.7013 14 33.1999 14C32.6986 14 32.2826 13.8347 31.9519 13.504C31.6319 13.1733 31.4719 12.7627 31.4719 12.272C31.4719 11.7707 31.6319 11.36 31.9519 11.04C32.2826 10.7093 32.6986 10.544 33.1999 10.544C33.7013 10.544 34.1119 10.7093 34.4319 11.04C34.7626 11.36 34.9279 11.7707 34.9279 12.272ZM45.1497 10.416C45.107 10.128 45.011 9.86667 44.8617 9.632C44.7124 9.38667 44.5257 9.17333 44.3017 8.992C44.0777 8.81067 43.8217 8.672 43.5337 8.576C43.2564 8.46933 42.963 8.416 42.6537 8.416C42.0884 8.416 41.6084 8.528 41.2137 8.752C40.819 8.96533 40.499 9.25867 40.2537 9.632C40.0084 9.99467 39.827 10.4107 39.7097 10.88C39.603 11.3493 39.5497 11.8347 39.5497 12.336C39.5497 12.816 39.603 13.2853 39.7097 13.744C39.827 14.192 40.0084 14.5973 40.2537 14.96C40.499 15.3227 40.819 15.616 41.2137 15.84C41.6084 16.0533 42.0884 16.16 42.6537 16.16C43.4217 16.16 44.019 15.9253 44.4457 15.456C44.883 14.9867 45.1497 14.368 45.2457 13.6H47.6777C47.6137 14.3147 47.4484 14.96 47.1817 15.536C46.915 16.112 46.563 16.6027 46.1257 17.008C45.6884 17.4133 45.1764 17.7227 44.5897 17.936C44.003 18.1493 43.3577 18.256 42.6537 18.256C41.779 18.256 40.9897 18.1067 40.2857 17.808C39.5924 17.4987 39.0057 17.0773 38.5257 16.544C38.0457 16.0107 37.6777 15.3867 37.4217 14.672C37.1657 13.9467 37.0377 13.168 37.0377 12.336C37.0377 11.4827 37.1657 10.6933 37.4217 9.968C37.6777 9.232 38.0457 8.592 38.5257 8.048C39.0057 7.504 39.5924 7.07733 40.2857 6.768C40.9897 6.45867 41.779 6.304 42.6537 6.304C43.283 6.304 43.875 6.39467 44.4297 6.576C44.995 6.75733 45.4964 7.024 45.9337 7.376C46.3817 7.71733 46.7497 8.144 47.0377 8.656C47.3257 9.168 47.507 9.75467 47.5817 10.416H45.1497Z" fill="white"/>
</svg>
