<svg fill="none" height="24" viewBox="0 0 24 24" width="24" xmlns="http://www.w3.org/2000/svg"><path clip-rule="evenodd" d="m3.70711 2.29289c-.39053-.39052-1.02369-.39052-1.41422 0-.39052.39053-.39052 1.02369 0 1.41422l18.00001 17.99999c.3905.3905 1.0237.3905 1.4142 0s.3905-1.0237 0-1.4142zm3.17792 12.08181v-4.2472l7.60707 7.6071h-5.07712l-1.88498 2.765h-1.52997l2.63497-3.955c-1.01717-.228-1.74261-1.1275-1.74997-2.1699zm10.21977-8.16498v7.65228l-3.8271-3.8271h1.4671c.2888.0136.5711-.0881.7849-.28268s.3415-.46612.3551-.75488c.0016-.03417.0016-.06831 0-.10242v-1.47c.0174-.3078-.0969-.60849-.3144-.82696s-.5177-.3341-.8256-.31801h-5.22201l-1.78894-1.78894c.39599-.316.90022-.50107 1.44614-.49127h5.63991c1.2396-.01672 2.2603.97044 2.2849 2.20998zm-6.389-2.62612c.1191.11912.2806.18584.4491.18579.3507-.00005.6351-.28427.6351-.63485 0-.35057-.2843-.63477-.635-.63478-.3507-.00002-.6351.28415-.6351.63472-.0001.16844.0668.33.1859.44912zm2.7691-.4489c0 .35056-.2843.63473-.635.63473-.1684.00001-.3299-.06685-.449-.18589s-.186-.28049-.186-.44884c0-.35055.2843-.63472.635-.63472s.635.28417.635.63472zm-2.97 1.71499c.0081-.2039.1759-.365.38-.36484h2.23c.2022.0025.367.16286.375.36484v.64975l-.0003.01525c-.0083.20686-.1828.36785-.3897.35958l-2.215-.00499c-.0994.00134-.1953-.03687-.2666-.10623s-.1121-.16418-.1134-.26361zm-2.32386 9.88241c.1548.3735.51945.617.92393.617.55227 0 .99993-.4476.99993-.9996 0-.4043-.24361-.7688-.6173-.9235-.37368-.1548-.80381-.0692-1.08981.2167s-.37155.7158-.21675 1.0894z" fill="#da291c" fill-rule="evenodd"/></svg>
