<svg width="24" height="24" viewBox="0 0 24 24" fill="none" xmlns="http://www.w3.org/2000/svg">
<path d="M12 14C12.1381 14 12.2484 14.1125 12.2607 14.25C12.387 15.6516 13.5655 16.75 15 16.75C15.158 16.75 15.3122 16.7326 15.4629 16.707L18 20.5H16.5L14.6152 17.7344H9.41504L7.53027 20.5H6L8.52637 16.7061C8.68041 16.7328 8.8383 16.75 9 16.75C10.4345 16.75 11.613 15.6516 11.7393 14.25C11.7516 14.1125 11.8619 14 12 14ZM9 11.5C10.3807 11.5 11.5 12.6193 11.5 14C11.5 15.3807 10.3807 16.5 9 16.5C7.61929 16.5 6.5 15.3807 6.5 14C6.5 12.6193 7.61929 11.5 9 11.5ZM15 11.5C16.3807 11.5 17.5 12.6193 17.5 14C17.5 15.3807 16.3807 16.5 15 16.5C13.6193 16.5 12.5 15.3807 12.5 14C12.5 12.6193 13.6193 11.5 15 11.5ZM14.8203 4C16.0598 3.98353 17.0798 4.97058 17.1045 6.20996V12.1436C16.5551 11.4477 15.7054 11 14.75 11C13.5193 11 12.4626 11.7415 12 12.8018C11.5374 11.7415 10.4807 11 9.25 11C8.28807 11 7.43376 11.4542 6.88477 12.1582V6.20508C6.91212 4.96364 7.93819 3.97784 9.17969 4H14.8203ZM9.12988 6.28027C8.86322 6.29459 8.60926 6.4065 8.41895 6.59766C8.22873 6.78873 8.11771 7.04298 8.10449 7.30957V9.00195C8.11752 9.25258 8.21734 9.49251 8.3877 9.67969C8.58227 9.89348 8.85382 10.0216 9.14258 10.0352H14.8525C15.1029 10.0221 15.3422 9.9222 15.5293 9.75195C15.7431 9.55737 15.8712 9.28583 15.8848 8.99707V7.30957C15.8715 7.04298 15.7605 6.78872 15.5703 6.59766C15.3799 6.40652 15.1261 6.29453 14.8594 6.28027H9.12988ZM10.8945 4.48438C10.6906 4.48442 10.5228 4.64587 10.5146 4.84961V5.49902C10.516 5.59828 10.5569 5.69336 10.6279 5.7627C10.6991 5.83197 10.7952 5.87038 10.8945 5.86914L13.1094 5.87402C13.3163 5.88229 13.4917 5.72151 13.5 5.51465V4.84961C13.492 4.64772 13.3271 4.48695 13.125 4.48438H10.8945ZM11.165 2.5C11.5157 2.50007 11.7998 2.78422 11.7998 3.13477C11.7997 3.48518 11.5156 3.76939 11.165 3.76953C10.9966 3.76958 10.8349 3.70296 10.7158 3.58398C10.5968 3.46493 10.5303 3.3031 10.5303 3.13477C10.5303 2.78419 10.8143 2.49998 11.165 2.5ZM12.8496 2.5C13.2003 2.5 13.4854 2.78421 13.4854 3.13477C13.4853 3.48529 13.2003 3.76953 12.8496 3.76953C12.6813 3.76947 12.5194 3.70296 12.4004 3.58398C12.2813 3.46496 12.2148 3.30308 12.2148 3.13477C12.2148 2.78431 12.499 2.50015 12.8496 2.5Z" fill="white"/>
<circle cx="14.5" cy="13.5" r="1" fill="black"/>
<circle cx="9.5" cy="13.5" r="1" fill="black"/>
</svg>
