<svg width="42" height="18" viewBox="0 0 42 18" fill="none" xmlns="http://www.w3.org/2000/svg">
<rect width="42" height="18" rx="9" fill="#008400"/>
<rect x="0.5" y="0.5" width="41" height="17" rx="8.5" stroke="black" stroke-opacity="0.15"/>
<path d="M12.8032 12.528C12.4672 12.96 12.0952 13.264 11.6872 13.44C11.2792 13.608 10.8672 13.692 10.4512 13.692C9.7952 13.692 9.2032 13.58 8.6752 13.356C8.1552 13.124 7.7152 12.808 7.3552 12.408C6.9952 12.008 6.7192 11.54 6.5272 11.004C6.3352 10.46 6.2392 9.876 6.2392 9.252C6.2392 8.612 6.3352 8.02 6.5272 7.476C6.7192 6.924 6.9952 6.444 7.3552 6.036C7.7152 5.628 8.1552 5.308 8.6752 5.076C9.2032 4.844 9.7952 4.728 10.4512 4.728C10.8912 4.728 11.3152 4.796 11.7232 4.932C12.1392 5.06 12.5112 5.252 12.8392 5.508C13.1752 5.764 13.4512 6.08 13.6672 6.456C13.8832 6.832 14.0152 7.264 14.0632 7.752H12.2632C12.1512 7.272 11.9352 6.912 11.6152 6.672C11.2952 6.432 10.9072 6.312 10.4512 6.312C10.0272 6.312 9.6672 6.396 9.3712 6.564C9.0752 6.724 8.8352 6.944 8.6512 7.224C8.4672 7.496 8.3312 7.808 8.2432 8.16C8.1632 8.512 8.1232 8.876 8.1232 9.252C8.1232 9.612 8.1632 9.964 8.2432 10.308C8.3312 10.644 8.4672 10.948 8.6512 11.22C8.8352 11.492 9.0752 11.712 9.3712 11.88C9.6672 12.04 10.0272 12.12 10.4512 12.12C11.0752 12.12 11.5552 11.964 11.8912 11.652C12.2352 11.332 12.4352 10.872 12.4912 10.272H10.5952V8.868H14.1952V13.5H12.9952L12.8032 12.528ZM16.0917 4.932H17.9757V11.916H22.1517V13.5H16.0917V4.932ZM26.196 9.204C26.196 9.572 26.072 9.88 25.824 10.128C25.584 10.376 25.276 10.5 24.9 10.5C24.524 10.5 24.212 10.376 23.964 10.128C23.724 9.88 23.604 9.572 23.604 9.204C23.604 8.828 23.724 8.52 23.964 8.28C24.212 8.032 24.524 7.908 24.9 7.908C25.276 7.908 25.584 8.032 25.824 8.28C26.072 8.52 26.196 8.828 26.196 9.204ZM33.8623 7.812C33.8303 7.596 33.7583 7.4 33.6463 7.224C33.5343 7.04 33.3943 6.88 33.2263 6.744C33.0583 6.608 32.8663 6.504 32.6503 6.432C32.4423 6.352 32.2223 6.312 31.9903 6.312C31.5663 6.312 31.2063 6.396 30.9103 6.564C30.6143 6.724 30.3743 6.944 30.1903 7.224C30.0063 7.496 29.8703 7.808 29.7823 8.16C29.7023 8.512 29.6623 8.876 29.6623 9.252C29.6623 9.612 29.7023 9.964 29.7823 10.308C29.8703 10.644 30.0063 10.948 30.1903 11.22C30.3743 11.492 30.6143 11.712 30.9103 11.88C31.2063 12.04 31.5663 12.12 31.9903 12.12C32.5663 12.12 33.0143 11.944 33.3343 11.592C33.6623 11.24 33.8623 10.776 33.9343 10.2H35.7583C35.7103 10.736 35.5863 11.22 35.3863 11.652C35.1863 12.084 34.9223 12.452 34.5943 12.756C34.2663 13.06 33.8823 13.292 33.4423 13.452C33.0023 13.612 32.5183 13.692 31.9903 13.692C31.3343 13.692 30.7423 13.58 30.2143 13.356C29.6943 13.124 29.2543 12.808 28.8943 12.408C28.5343 12.008 28.2583 11.54 28.0663 11.004C27.8743 10.46 27.7783 9.876 27.7783 9.252C27.7783 8.612 27.8743 8.02 28.0663 7.476C28.2583 6.924 28.5343 6.444 28.8943 6.036C29.2543 5.628 29.6943 5.308 30.2143 5.076C30.7423 4.844 31.3343 4.728 31.9903 4.728C32.4623 4.728 32.9063 4.796 33.3223 4.932C33.7463 5.068 34.1223 5.268 34.4503 5.532C34.7863 5.788 35.0623 6.108 35.2783 6.492C35.4943 6.876 35.6303 7.316 35.6863 7.812H33.8623Z" fill="white"/>
</svg>
