<svg width="33" height="18" viewBox="0 0 33 18" fill="none" xmlns="http://www.w3.org/2000/svg">
    <path d="M0 2C0 0.89543 0.895431 0 2 0H16C17.1046 0 18 0.895431 18 2V16C18 17.1046 17.1046 18 16 18H2C0.89543 18 0 17.1046 0 16V2Z" fill="#165C96"/>
    <path fill-rule="evenodd" clip-rule="evenodd" d="M13.5423 13.1343L14.9272 12.6361L15.3103 13.5452L12.8355 14.5127L10.9504 10.1112L6.35468 10.11L6.08183 6.28222L5.90865 3.85265C5.8109 3.6724 5.75208 3.45773 5.75208 3.24803C5.75208 2.56058 6.31458 2 7.0044 2C7.69392 2 8.25671 2.56058 8.25671 3.24803C8.25671 3.88677 7.76269 4.43277 7.12673 4.4911L7.26867 7.00174L10.4798 7.0032V8.17539L7.38632 8.17423L7.44544 8.96668L11.7181 8.9378L13.5423 13.1343ZM4.25788 11.4072C4.25788 13.2459 5.76277 14.7456 7.60773 14.7456C9.29583 14.7456 10.7355 13.4544 10.9312 11.7986L11.7487 13.4652C10.9731 14.9932 9.34968 16.0001 7.61797 16.0001C5.07442 16.0001 3 13.9327 3 11.3976C3 9.61816 4.08228 7.96414 5.6975 7.23089L5.80198 8.59034C4.84672 9.19029 4.25788 10.2727 4.25788 11.4072Z" fill="white"/>
    <mask id="path-3-outside-1_17422_629594" maskUnits="userSpaceOnUse" x="15" y="0" width="18" height="18" fill="black">
        <rect fill="white" x="15" width="18" height="18"/>
        <path d="M22.8877 1.46072L16.4607 7.88771C15.8464 8.50201 15.8464 9.49799 16.4607 10.1123L22.8877 16.5393C23.502 17.1536 24.498 17.1536 25.1123 16.5393L31.5393 10.1123C32.1536 9.49799 32.1536 8.50201 31.5393 7.88771L25.1123 1.46072C24.498 0.846426 23.502 0.846425 22.8877 1.46072Z"/>
    </mask>
    <path d="M22.8877 1.46072L16.4607 7.88771C15.8464 8.50201 15.8464 9.49799 16.4607 10.1123L22.8877 16.5393C23.502 17.1536 24.498 17.1536 25.1123 16.5393L31.5393 10.1123C32.1536 9.49799 32.1536 8.50201 31.5393 7.88771L25.1123 1.46072C24.498 0.846426 23.502 0.846425 22.8877 1.46072Z" fill="#E6E5E3"/>
    <path d="M22.8877 1.46072L16.4607 7.88771C15.8464 8.50201 15.8464 9.49799 16.4607 10.1123L22.8877 16.5393C23.502 17.1536 24.498 17.1536 25.1123 16.5393L31.5393 10.1123C32.1536 9.49799 32.1536 8.50201 31.5393 7.88771L25.1123 1.46072C24.498 0.846426 23.502 0.846425 22.8877 1.46072Z" stroke="#165C96" stroke-width="2" mask="url(#path-3-outside-1_17422_629594)"/>
    <path fill-rule="evenodd" clip-rule="evenodd" d="M22.8877 1.46072L16.4607 7.88771C15.8464 8.50201 15.8464 9.49799 16.4607 10.1123L22.8877 16.5393C23.502 17.1536 24.498 17.1536 25.1123 16.5393L31.5393 10.1123C32.1536 9.49799 32.1536 8.50201 31.5393 7.88771L25.1123 1.46072C24.498 0.846426 23.502 0.846425 22.8877 1.46072ZM22.8893 6.25139C22.8492 5.60983 23.3587 5.06747 24.0015 5.06747C24.6443 5.06747 25.1538 5.60983 25.1137 6.25139L24.918 9.38271C24.8878 9.86669 24.4864 10.2437 24.0015 10.2437C23.5166 10.2437 23.1152 9.86669 23.085 9.38271L22.8893 6.25139ZM23.0312 12.2925C23.0312 11.7565 23.4657 11.322 24.0017 11.322C24.5377 11.322 24.9723 11.7565 24.9723 12.2925C24.9723 12.8285 24.5377 13.2631 24.0017 13.2631C23.4657 13.2631 23.0312 12.8285 23.0312 12.2925Z" fill="black"/>
</svg>
