<svg width="24" height="24" viewBox="0 0 24 24" fill="none" xmlns="http://www.w3.org/2000/svg">
<rect x="3" y="3" width="18" height="18" rx="2" fill="#165C96"/>
<path fill-rule="evenodd" clip-rule="evenodd" d="M16.5423 16.1343L17.9272 15.6361L18.3103 16.5452L15.8355 17.5127L13.9504 13.1112L9.35468 13.11L9.08183 9.28222L8.90865 6.85265C8.8109 6.6724 8.75208 6.45773 8.75208 6.24803C8.75208 5.56058 9.31458 5 10.0044 5C10.6939 5 11.2567 5.56058 11.2567 6.24803C11.2567 6.88677 10.7627 7.43277 10.1267 7.4911L10.2687 10.0017L13.4798 10.0032V11.1754L10.3863 11.1742L10.4454 11.9667L14.7181 11.9378L16.5423 16.1343ZM7.25788 14.4072C7.25788 16.2459 8.76277 17.7456 10.6077 17.7456C12.2958 17.7456 13.7355 16.4544 13.9312 14.7986L14.7487 16.4652C13.9731 17.9932 12.3497 19.0001 10.618 19.0001C8.07442 19.0001 6 16.9327 6 14.3976C6 12.6182 7.08228 10.9641 8.6975 10.2309L8.80198 11.5903C7.84672 12.1903 7.25788 13.2727 7.25788 14.4072Z" fill="white"/>
</svg>
