<?xml version="1.0" encoding="UTF-8"?><!--Generator: Apple Native CoreSVG 232.5-->
<!DOCTYPE svg
    PUBLIC "-//W3C//DTD SVG 1.1//EN"
    "http://www.w3.org/Graphics/SVG/1.1/DTD/svg11.dtd">
<svg xmlns:xlink="http://www.w3.org/1999/xlink" height="16.5859" version="1.1"
    width="12.3125" xmlns="http://www.w3.org/2000/svg">
    <g>
        <rect height="16.5859" opacity="0" width="12.3125" x="0" y="0" />
        <path
            d="M0 15.9531C0 16.2969 0.28125 16.5781 0.625 16.5781C0.976562 16.5781 1.25781 16.2969 1.25781 15.9531L1.25781 1.67188C1.25781 1.42188 1.42188 1.25781 1.65625 1.25781L10.25 1.25781C10.4844 1.25781 10.6484 1.42188 10.6484 1.67188L10.6484 15.9531C10.6484 16.2969 10.9297 16.5781 11.2812 16.5781C11.625 16.5781 11.9062 16.2969 11.9062 15.9531L11.9062 1.59375C11.9062 0.640625 11.2578 0 10.2734 0L1.63281 0C0.65625 0 0 0.640625 0 1.59375Z"
            fill="#192026" fill-opacity="0.85" />
        <path
            d="M2.17188 16.1328C2.17188 16.2812 2.29688 16.3594 2.44531 16.2969L4.89844 15.2109C5.09375 15.125 5.17188 15.0625 5.17188 14.8594L5.17188 3.60156C5.17188 3.40625 5.09375 3.33594 4.90625 3.25781L2.44531 2.16406C2.29688 2.10156 2.17188 2.17969 2.17188 2.33594Z"
            fill="#192026" fill-opacity="0.85" />
    </g>
</svg>
