<svg width="24" height="24" viewBox="0 0 24 24" fill="none" xmlns="http://www.w3.org/2000/svg">
<path fill-rule="evenodd" clip-rule="evenodd" d="M18.4 10.7169L17.7782 5.85129C17.6203 4.97334 17.064 4.63075 16.2363 4.27146C14.88 3.78822 13.45 3.52748 12.0052 3.5C10.5581 3.52779 9.12588 3.7885 7.76717 4.27146C6.94978 4.62397 6.39344 4.9732 6.22517 5.85115L5.6001 10.7169V17.4483H6.69738V18.6207C6.69887 19.1023 7.10173 19.4923 7.59905 19.4936C8.09633 19.4922 8.4991 19.1021 8.50057 18.6206V17.4482H15.5324V18.6206C15.53 18.934 15.7013 19.2246 15.9812 19.382C16.2611 19.5393 16.6067 19.5393 16.8866 19.382C17.1665 19.2246 17.3378 18.934 17.3354 18.6206V17.4482H18.4001L18.4 10.7169ZM9.37103 4.73047H14.66C14.8838 4.73047 15.0652 4.90618 15.0652 5.12292C15.0652 5.33967 14.8838 5.51538 14.66 5.51538H9.37103C9.14721 5.51538 8.96576 5.33967 8.96576 5.12292C8.96576 4.90618 9.14721 4.73047 9.37103 4.73047ZM6.73682 10.574L7.25172 6.73271C7.29469 6.49052 7.51288 6.31437 7.76663 6.31702H16.3084C16.5614 6.31446 16.7787 6.49093 16.8201 6.73271L17.335 10.574C17.3419 10.6181 17.3419 10.6629 17.335 10.707V10.7336C17.3356 10.8658 17.2815 10.9926 17.1847 11.0858C17.0879 11.1789 16.9565 11.2306 16.8201 11.2292H7.22792C7.09122 11.2232 6.9626 11.1648 6.87045 11.0668C6.77831 10.9688 6.73023 10.8394 6.73682 10.707C6.72997 10.6629 6.72997 10.6181 6.73682 10.574ZM7.59942 15.3663C7.06909 15.3673 6.63838 14.9519 6.63739 14.4385C6.63639 13.9252 7.06549 13.5082 7.59582 13.5072C8.12616 13.5062 8.55691 13.9216 8.55796 14.4349C8.55862 14.6816 8.45795 14.9183 8.27816 15.093C8.09836 15.2677 7.85418 15.366 7.59942 15.3663ZM15.4741 14.4362C15.4745 13.9233 15.9039 13.5076 16.4338 13.5072C16.9636 13.5069 17.3937 13.922 17.3947 14.4349C17.3954 14.6822 17.2942 14.9195 17.1136 15.0943C16.9329 15.2691 16.6878 15.367 16.4324 15.3663C15.9027 15.3653 15.4738 14.9491 15.4741 14.4362Z" fill="#192026"/>
</svg>
