<svg fill="none" height="36" viewBox="0 0 36 36" width="36" xmlns="http://www.w3.org/2000/svg"><path d="m28.8411 30.4783c3.9022-3.1382 6.4142-7.9547 6.4142-13.3473 0-9.44438-7.6851-17.131-17.1276-17.131-9.44259 0-17.1277 7.68662-17.1277 17.131 0 5.9388 3.04823 11.1824 7.65532 14.261-1.53901.4668-2.44255 1.0328-2.44255 1.6287 0 1.6485 6.67233 2.9793 14.89363 2.9793s14.8936-1.3308 14.8936-2.9793c0-1.0825-2.8695-2.016-7.1589-2.5424z" fill="#000" opacity=".15"/><path d="m18.1287 33.0205c8.7739 0 15.8865-7.114 15.8865-15.8896 0-8.77565-7.1126-15.88969-15.8865-15.88969-8.77387 0-15.88651 7.11404-15.88651 15.88969 0 8.7756 7.11264 15.8896 15.88651 15.8896z" fill="#fff"/><g fill="#192026"><path d="m22.2288 12.3938c-.1489-.4668-.5759-.7747-1.0624-.7747h-6.0766c-.4865 0-.9135.3178-1.0624.7747l-1.8766 5.7798c-.149.4668.0099.9633.4071 1.2513l4.9149 3.5752c.1985.139.4269.2086.6553.2086s.4567-.0696.6553-.2086l4.9149-3.5752c.3972-.288.556-.7845.4071-1.2513z"/><path d="m33.9733 16.3862s-.0199 0-.0298.0199l-4.9149 3.5752c-.3972.288-.5561.7845-.4071 1.2513l1.8766 5.7798s.0198.0298.0198.0497c2.1844-2.7211 3.4951-6.1672 3.4951-9.931 0-.2483-.0298-.4966-.0397-.7449z"/><path d="m18.7828 28.3727c-.3872-.288-.9134-.288-1.3106 0l-4.9149 3.5752s-.0199.0199-.0397.0397c1.7475.6555 3.634 1.0329 5.6099 1.0329s3.8624-.3774 5.6099-1.0329c-.0099-.0099-.0198-.0298-.0397-.0397z"/><path d="m31.3935 8.40166c-2.095-3.17793-5.3021-5.55145-9.0751-6.58428v.03973l1.8766 5.77986c.1489.46676.5758.77462 1.0624.77462h6.0766.0496z"/><path d="m13.9376 1.8173c-3.773 1.03283-6.9801 3.40635-9.08506 6.59421h.05957 6.07659c.4865 0 .9135-.31779 1.0624-.77462l1.8766-5.77986s0-.02979 0-.04966z"/><path d="m2.31169 16.4061s-.01986 0-.02979-.0199c-.00993.2483-.03971.4867-.03971.7449 0 3.7539 1.31064 7.2099 3.49503 9.9211 0-.0199.01986-.0298.01986-.0398l1.8766-5.7798c.14893-.4668-.01986-.9633-.4071-1.2513z"/></g><path d="m23.827 2.29395c5.9575 2.29406 10.1873 8.06395 10.1873 14.83695 0 8.779-7.1093 15.8897-15.8866 15.8897-8.32054 0-15.15174-6.4056-15.82692-14.5589 2.08511 5.0449 7.04965 8.6002 12.84822 8.6002 7.6752 0 13.9007-6.2267 13.9007-13.9034 0-4.39945-2.0454-8.32221-5.2227-10.86455z" fill="#000" opacity=".15"/></svg>
