<svg fill="none" height="36" viewBox="0 0 36 36" width="36" xmlns="http://www.w3.org/2000/svg" xmlns:xlink="http://www.w3.org/1999/xlink"><clipPath id="a"><path d="m0 0h36v36h-36z"/></clipPath><g clip-path="url(#a)"><circle cx="18" cy="18" fill="#fff" opacity=".25" r="18"/><path d="m18 34c8.8366 0 16-7.1635 16-16 0-8.83657-7.1634-16-16-16-8.83656 0-16 7.16343-16 16 0 8.8365 7.16344 16 16 16z" fill="#fff"/><g fill="#192026"><path d="m22.1293 13.2302c-.15-.47-.58-.78-1.07-.78h-6.12c-.49 0-.92.32-1.07.78l-1.89 5.82c-.15.47.01.97.41 1.26l4.95 3.6c.2.14.43.21.66.21s.46-.07.66-.21l4.95-3.6c.4-.29.56-.79.41-1.26z"/><path d="m33.9572 17.2502s-.02 0-.03.02l-4.95 3.6c-.4.29-.56.79-.41 1.26l1.89 5.82s.02.03.02.05c2.2-2.74 3.52-6.21 3.52-10 0-.25-.03-.5-.04-.75z"/><path d="m18.6596 29.32c-.39-.29-.92-.29-1.32 0l-4.95 3.6s-.02.02-.04.04c1.76.66 3.66 1.04 5.65 1.04s3.89-.38 5.65-1.04c-.01-.01-.02-.03-.04-.04z"/><path d="m31.3588 9.21007c-2.11-3.2-5.34-5.58999-9.14-6.62999v.04l1.89 5.81999c.15.47.58.78 1.07.78h6.12.05z"/><path d="m13.7809 2.58007c-3.80004 1.04-7.03004 3.42999-9.15004 6.63999h.06 6.12004c.49 0 .92-.32 1.07-.78l1.89-5.81999s0-.03 0-.05z"/><path d="m2.07 17.2702s-.02 0-.03-.02c-.01.25-.04.49-.04.75 0 3.78 1.32 7.26 3.52 9.99 0-.02.02-.03.02-.04l1.89-5.82c.15-.47-.02-.97-.41-1.26z"/></g><path d="m23.7386 3.06006c6 2.31 10.26 8.11994 10.26 14.93994 0 8.84-7.16 16-16 16-8.38 0-15.26001-6.45-15.94001-14.66 2.1 5.08 7.1 8.66 12.94001 8.66 7.73 0 14-6.27 14-14 0-4.42995-2.06-8.37995-5.26-10.93994z" fill="#000" opacity=".15"/></g></svg>
