<svg width="32" height="32" viewBox="0 0 32 32" fill="none" xmlns="http://www.w3.org/2000/svg">
<circle cx="16" cy="16" r="12" fill="white"/>
<path fill-rule="evenodd" clip-rule="evenodd" d="M15.9974 29.3337C23.3612 29.3337 29.3307 23.3641 29.3307 16.0003C29.3307 8.63653 23.3612 2.66699 15.9974 2.66699C8.6336 2.66699 2.66406 8.63653 2.66406 16.0003C2.66406 23.3641 8.6336 29.3337 15.9974 29.3337ZM15.9976 28.0005C22.625 28.0005 27.9976 22.6279 27.9976 16.0005C27.9976 9.37306 22.625 4.00048 15.9976 4.00048C9.37014 4.00048 3.99755 9.37306 3.99755 16.0005C3.99755 22.6279 9.37014 28.0005 15.9976 28.0005ZM24.3307 10.667V14.667H17.9974V24.667H13.9974V14.667H7.66406V10.667H24.3307Z" fill="#192026"/>
</svg>
