<svg width="27" height="27" viewBox="0 0 27 27" fill="none" xmlns="http://www.w3.org/2000/svg">
<g clip-path="url(#clip0_2702_13956)">
<path fill-rule="evenodd" clip-rule="evenodd" d="M3 12.6774C3 7.33273 6.80558 3 11.5 3C16.1944 3 20 7.33273 20 12.6774H3Z" fill="#FFC72C"/>
<path fill-rule="evenodd" clip-rule="evenodd" d="M13.5818 5.99609H9.41809V7.02947H10.9835V9.55647H12.0168V7.02947H13.5818V5.99609Z" fill="black"/>
<mask id="mask0_2702_13956" style="mask-type:luminance" maskUnits="userSpaceOnUse" x="8" y="4" width="7" height="7">
<path fill-rule="evenodd" clip-rule="evenodd" d="M8 4.00015H14.9999V11.0001H8V4.00015Z" fill="white"/>
</mask>
<g mask="url(#mask0_2702_13956)">
<path fill-rule="evenodd" clip-rule="evenodd" d="M8.0017 7.38857C7.93958 9.41682 9.58327 11.0609 11.6111 10.9984C13.4411 10.9424 14.9422 9.44132 14.9982 7.61169C15.0603 5.58344 13.4166 3.93932 11.3888 4.00188C9.55877 4.05788 8.0577 5.55851 8.0017 7.38857M11.5 4.3063C13.3318 4.3063 14.8022 5.84673 14.6876 7.70348C14.5891 9.29423 13.2941 10.5888 11.7034 10.6872C9.84664 10.8023 8.3062 9.33186 8.3062 7.50005C8.3062 5.73561 9.73552 4.3063 11.5 4.3063" fill="#1C1E23"/>
</g>
<path d="M3 12H20V25C20 26.1046 19.1046 27 18 27H5C3.89543 27 3 26.1046 3 25V12Z" fill="white"/>
<path fill-rule="evenodd" clip-rule="evenodd" d="M14.474 18.1687L14.1848 16.0337C14.1092 15.6487 13.8511 15.4955 13.4685 15.338C12.8324 15.1271 12.1679 15.0135 11.4978 15.0012C10.8291 15.0139 10.1662 15.1274 9.53142 15.338C9.15326 15.4955 8.8908 15.6487 8.81073 16.0337L8.526 18.1687V21.1174H9.05764V21.6205C9.06097 21.7533 9.13587 21.8738 9.25338 21.9355C9.28007 21.9487 9.30676 21.9618 9.32901 21.9705C9.34933 21.9778 9.37014 21.9837 9.39129 21.988C9.42466 21.997 9.45909 22.0014 9.49363 22.0012H9.64488C9.87081 22.0153 10.0665 21.8461 10.0853 21.6205V21.1174H12.9575V21.6205C12.9608 21.7533 13.0357 21.8738 13.1533 21.9355C13.1799 21.9487 13.2066 21.9618 13.2289 21.9705C13.2492 21.9778 13.27 21.9837 13.2912 21.988C13.3245 21.997 13.359 22.0014 13.3935 22.0012H13.5447C13.7707 22.0153 13.9664 21.8461 13.9852 21.6205V21.1174H14.474V18.1687ZM10.1142 15.5218H12.9125C13.046 15.5219 13.1548 15.6289 13.1571 15.7624C13.1548 15.8959 13.046 16.003 12.9125 16.003H10.1142C9.98068 16.003 9.87183 15.8959 9.86954 15.7624C9.87184 15.6289 9.98069 15.5219 10.1142 15.5218V15.5218ZM9.61437 16.6631L9.41649 18.1229C9.41254 18.1417 9.41253 18.1611 9.41648 18.1799C9.41642 18.294 9.50674 18.3877 9.62079 18.3918H13.4265C13.5411 18.3935 13.6358 18.3026 13.6387 18.188V18.1229L13.4123 16.6631C13.3926 16.5626 13.3024 16.4915 13.2001 16.496H9.82651C9.72381 16.4903 9.63291 16.5619 9.61437 16.6631ZM9.69812 20.417C9.36028 20.4323 9.06981 20.1799 9.03769 19.8433C9.03755 19.6753 9.10417 19.5142 9.22289 19.3954C9.34161 19.2767 9.50267 19.2099 9.67061 19.21C10.0192 19.184 10.3248 19.4412 10.3586 19.7891C10.3548 19.9602 10.283 20.1226 10.159 20.2405C10.035 20.3583 9.86912 20.4219 9.69812 20.417ZM12.6123 19.8433C12.6445 20.1799 12.9349 20.4323 13.2728 20.417C13.4438 20.4219 13.6096 20.3583 13.7336 20.2405C13.8576 20.1226 13.9295 19.9602 13.9332 19.7891C13.8994 19.4412 13.5939 19.184 13.2453 19.21C13.0773 19.2099 12.9163 19.2767 12.7975 19.3954C12.6788 19.5142 12.6122 19.6753 12.6123 19.8433Z" fill="#1C1E23"/>
<path d="M24.8906 6.89062C25.1719 7.39062 24.8125 8 24.2344 8H16.75C16.1719 8 15.8125 7.375 16.0938 6.89062L19.8438 0.375C20.125 -0.125 20.8594 -0.109375 21.1406 0.375L24.8906 6.89062ZM20.5 5.53125C20.0938 5.53125 19.7812 5.85938 19.7812 6.25C19.7812 6.65625 20.0938 6.96875 20.5 6.96875C20.8906 6.96875 21.2188 6.65625 21.2188 6.25C21.2188 5.85938 20.8906 5.53125 20.5 5.53125ZM19.8125 2.95312L19.9219 5.07812C19.9375 5.1875 20.0156 5.25 20.1094 5.25H20.875C20.9688 5.25 21.0469 5.1875 21.0625 5.07812L21.1719 2.95312C21.1875 2.84375 21.0938 2.75 20.9844 2.75H20C19.8906 2.75 19.7969 2.84375 19.8125 2.95312Z" fill="#1C1E23"/>
</g>
<defs>
<clipPath id="clip0_2702_13956">
<rect width="27" height="27" fill="white"/>
</clipPath>
</defs>
</svg>
