<svg fill="none" height="26" viewBox="0 0 20 26" width="20" xmlns="http://www.w3.org/2000/svg"><path d="m19 10c0 4.0969-5.4844 11.3906-7.8891 14.4-.5765.7172-1.64527.7172-2.22184 0-2.40468-3.0094-7.88906-10.3031-7.88906-14.4 0-4.96875 4.03125-9 9-9 4.9688 0 9 4.03125 9 9z" fill="#fff"/><path d="m11.5006 24.7133.0009-.0012c1.2076-1.5112 3.1942-4.1051 4.8814-6.8419.8434-1.3683 1.6181-2.7818 2.1832-4.1206.5617-1.3304.9339-2.627.9339-3.7496 0-5.24489-4.2551-9.5-9.5-9.5-5.24489 0-9.5 4.25511-9.5 9.5 0 1.1226.372207 2.4192.93387 3.7496.56516 1.3388 1.33979 2.7523 2.18328 4.1206 1.68717 2.7368 3.67377 5.3307 4.8813 6.8419l.00092.0012c.77671.9661 2.22453.9661 3.00123 0z" stroke="#fff" stroke-opacity=".15"/><path clip-rule="evenodd" d="m10 17.5c4.1421 0 7.5-3.3579 7.5-7.5 0-4.14214-3.3579-7.5-7.5-7.5-4.14214 0-7.5 3.35786-7.5 7.5 0 4.1421 3.35786 7.5 7.5 7.5zm0-.75c3.7279 0 6.75-3.0221 6.75-6.75 0-3.72792-3.0221-6.75-6.75-6.75-3.72792 0-6.75 3.02208-6.75 6.75 0 3.7279 3.02208 6.75 6.75 6.75zm4.6875-9.75v2.25h-3.5625v5.625h-2.25v-5.625h-3.5625v-2.25z" fill="#192026" fill-rule="evenodd"/></svg>
