<svg fill="none" height="48" viewBox="0 0 48 48" width="48" xmlns="http://www.w3.org/2000/svg">
<path clip-rule="evenodd" d="M47.99136 23.87201C48.3432 36.72432 37.56816 47.65464 24.12432 47.99976C10.87188 48.07056 0.07122 37.38288 0.00035 24.1284C-0.07052 10.8737 10.61522 0.07123 23.86766 0.00034C37.11984 -0.06966 47.62824 10.62199 47.99136 23.87201ZM35.55432 11.70254L36.798 21.4338L36.79824 34.89648H34.66872V37.24104C34.67352 37.86792 34.33104 38.4492 33.77112 38.76384C33.21144 39.07872 32.52024 39.07872 31.96056 38.76384C31.40064 38.4492 31.05816 37.86792 31.06272 37.24104V34.89648H16.99913V37.24104C16.9962 38.20416 16.19066 38.9844 15.19608 38.98704C14.20145 38.9844 13.39574 38.2044 13.39274 37.24128V34.89672H11.19818V21.4338L12.44834 11.70226C12.78487 9.94634 13.89756 9.2479 15.53232 8.54287C18.24977 7.57694 21.11419 7.05552 24.0084 6.99996C26.898 7.05492 29.75808 7.57639 32.47056 8.54287C34.12584 9.26143 35.23848 9.94663 35.55432 11.70254ZM29.31792 9.4609H18.74006C18.29242 9.4609 17.92951 9.8123 17.92951 10.24579C17.92951 10.67928 18.29242 11.03071 18.74006 11.03071H29.31792C29.76552 11.03071 30.1284 10.67928 30.1284 10.24579C30.1284 9.8123 29.76552 9.4609 29.31792 9.4609ZM14.50145 13.46537L13.47163 21.14794C13.45793 21.23614 13.45793 21.32582 13.47163 21.414C13.45846 21.67872 13.55462 21.93763 13.7389 22.13357C13.92319 22.3295 14.18045 22.44634 14.45383 22.45829H33.63816C33.91104 22.46114 34.17384 22.35782 34.36728 22.17151C34.56096 21.9852 34.6692 21.73145 34.668 21.46716V21.414C34.68168 21.32582 34.68168 21.23614 34.668 21.14794L33.63816 13.46537C33.55536 12.98182 33.12096 12.62887 32.6148 12.63398H15.53126C15.02376 12.6287 14.58737 12.981 14.50145 13.46537ZM13.27277 28.87704C13.27476 29.90376 14.13617 30.7344 15.19682 30.73272C15.70634 30.732 16.19472 30.53544 16.55431 30.186C16.9139 29.83656 17.11522 29.36304 17.11392 28.86984C17.11181 27.84312 16.2503 27.01248 15.18965 27.0144C14.12897 27.01632 13.27078 27.85032 13.27277 28.87704ZM32.8656 27.0144C31.80576 27.01512 30.94704 27.84648 30.94632 28.87224C30.9456 29.898 31.80336 30.73056 32.86272 30.73272C33.37368 30.73392 33.864 30.53808 34.2252 30.18864C34.5864 29.83896 34.78872 29.36424 34.78752 28.86984C34.78536 27.84408 33.9252 27.01368 32.8656 27.0144Z" fill="#192026" fill-rule="evenodd"/>
</svg>
