<svg width="20" height="20" viewBox="0 0 20 20" fill="none" xmlns="http://www.w3.org/2000/svg">
<path fill-rule="evenodd" clip-rule="evenodd" d="M19.9964 9.94667C20.143 15.3018 15.6534 19.8561 10.0518 19.9999C4.52995 20.0294 0.0296764 15.5762 0.000146049 10.0535C-0.0293843 4.53071 4.42301 0.0296777 9.94486 0.000142401C15.4666 -0.0290238 19.8451 4.42583 19.9964 9.94667ZM14.8143 4.87606L15.3325 8.93075L15.3326 14.5402H14.4453V15.5171C14.4473 15.7783 14.3046 16.0205 14.0713 16.1516C13.8381 16.2828 13.5501 16.2828 13.3169 16.1516C13.0836 16.0205 12.9409 15.7783 12.9428 15.5171V14.5402H7.08297V15.5171C7.08175 15.9184 6.74611 16.2435 6.3317 16.2446C5.91727 16.2435 5.58156 15.9185 5.58031 15.5172V14.5403H4.66591V8.93075L5.18681 4.87594C5.32703 4.14431 5.79065 3.85329 6.4718 3.55953C7.60407 3.15706 8.79758 2.9398 10.0035 2.91665C11.2075 2.93955 12.3992 3.15683 13.5294 3.55953C14.2191 3.85893 14.6827 4.14443 14.8143 4.87606ZM12.2158 3.94204H7.80836C7.62184 3.94204 7.47063 4.08846 7.47063 4.26908C7.47063 4.4497 7.62184 4.59613 7.80836 4.59613H12.2158C12.4023 4.59613 12.5535 4.4497 12.5535 4.26908C12.5535 4.08846 12.4023 3.94204 12.2158 3.94204ZM6.04227 5.61057L5.61318 8.81164C5.60747 8.84839 5.60747 8.88576 5.61318 8.9225C5.60769 9.0328 5.64776 9.14068 5.72454 9.22232C5.80133 9.30396 5.90852 9.35264 6.02243 9.35762H14.0159C14.1296 9.35881 14.2391 9.31576 14.3197 9.23813C14.4004 9.1605 14.4455 9.05477 14.445 8.94465V8.9225C14.4507 8.88576 14.4507 8.84839 14.445 8.81164L14.0159 5.61057C13.9814 5.40909 13.8004 5.26203 13.5895 5.26416H6.47136C6.2599 5.26196 6.07807 5.40875 6.04227 5.61057ZM5.53032 12.0321C5.53115 12.4599 5.89007 12.806 6.33201 12.8053C6.54431 12.805 6.7478 12.7231 6.89763 12.5775C7.04746 12.4319 7.13134 12.2346 7.1308 12.0291C7.12992 11.6013 6.77096 11.2552 6.32902 11.256C5.88707 11.2568 5.52949 11.6043 5.53032 12.0321ZM13.694 11.256C13.2524 11.2563 12.8946 11.6027 12.8943 12.0301C12.894 12.4575 13.2514 12.8044 13.6928 12.8053C13.9057 12.8058 14.11 12.7242 14.2605 12.5786C14.411 12.4329 14.4953 12.2351 14.4948 12.0291C14.4939 11.6017 14.1355 11.2557 13.694 11.256Z" fill="#192026"/>
</svg>
