<svg width="73" height="73" viewBox="0 0 73 73" fill="none" xmlns="http://www.w3.org/2000/svg">
<path d="M36.1632 1.90317C38.0699 -0.00353216 41.1508 -0.00353166 43.0575 1.90317L70.6346 29.4803C72.5413 31.387 72.5413 34.4679 70.6346 36.3746C68.7279 38.2813 65.647 38.2813 63.7403 36.3746L60.5625 33.1968L45.826 50.3894C47.6357 56.4866 47.1725 63.1977 44.1886 69.1548L43.9731 69.5857C43.2729 70.9969 41.9371 71.9664 40.3967 72.2142C38.8563 72.4619 37.2727 71.9556 36.1632 70.8461L1.69172 36.3746C0.582169 35.2651 0.0758713 33.7031 0.323634 32.1411C0.571396 30.5791 1.55168 29.2541 2.95209 28.5647L3.38298 28.3492C9.34007 25.3653 16.0512 24.9021 22.1484 26.7118L39.341 11.9753L36.1632 8.79746C34.2565 6.89076 34.2565 3.80987 36.1632 1.90317ZM12.0332 53.6104L18.9274 60.5046L8.58601 70.8461C6.67931 72.7528 3.59842 72.7528 1.69172 70.8461C-0.214983 68.9394 -0.214985 65.8585 1.69172 63.9518L12.0332 53.6104Z" fill="#007AFF"/>
</svg>
