<svg fill="none" height="844" viewBox="0 0 390 844" width="390" xmlns="http://www.w3.org/2000/svg" xmlns:xlink="http://www.w3.org/1999/xlink"><clipPath id="a"><path d="m0 0h390v844h-390z"/></clipPath><g clip-path="url(#a)"><path d="m0 0h390v844h-390z" fill="#192026"/><g opacity=".15" stroke="#fff"><path d="m0 13.5h390"/><path d="m0 61.5h390"/><path d="m0 109.5h390"/><path d="m0 157.5h390"/><path d="m0 205.5h390"/><path d="m0 253.5h390"/><path d="m0 301.5h390"/><path d="m0 349.5h390"/><path d="m0 397.5h390"/><path d="m0 445.5h390"/><path d="m0 493.5h390"/><path d="m0 541.5h390"/><path d="m0 589.5h390"/><path d="m0 637.5h390"/><path d="m0 685.5h390"/><path d="m0 733.5h390"/><path d="m0 781.5h390"/><path d="m0 829.5h390"/><path d="m27.4998 0-.0001 844"/><path d="m75.5 0v844"/><path d="m123.5 0v844"/><path d="m171.5 0v844"/><path d="m219.5 0v844"/><path d="m267.5 0v844"/><path d="m315.5 0v844"/><path d="m363.5 0v844"/></g></g></svg>
