<svg width="29" height="18" viewBox="0 0 29 18" fill="none" xmlns="http://www.w3.org/2000/svg">
<rect width="29" height="18" rx="9" fill="#003DA5"/>
<rect x="0.5" y="0.5" width="28" height="17" rx="8.5" stroke="black" stroke-opacity="0.15"/>
<path d="M9.18075 8.4H11.0888C11.4248 8.4 11.7008 8.32 11.9168 8.16C12.1328 8 12.2408 7.74 12.2408 7.38C12.2408 7.18 12.2048 7.016 12.1328 6.888C12.0608 6.76 11.9648 6.66 11.8448 6.588C11.7248 6.516 11.5848 6.468 11.4248 6.444C11.2728 6.412 11.1128 6.396 10.9448 6.396H9.18075V8.4ZM7.29675 4.932H11.3288C11.7368 4.932 12.1088 4.968 12.4448 5.04C12.7808 5.112 13.0688 5.232 13.3088 5.4C13.5488 5.56 13.7328 5.776 13.8608 6.048C13.9968 6.32 14.0648 6.656 14.0648 7.056C14.0648 7.488 13.9648 7.848 13.7648 8.136C13.5728 8.424 13.2848 8.66 12.9008 8.844C13.4288 8.996 13.8208 9.264 14.0768 9.648C14.3408 10.024 14.4728 10.48 14.4728 11.016C14.4728 11.448 14.3888 11.824 14.2208 12.144C14.0528 12.456 13.8248 12.712 13.5368 12.912C13.2568 13.112 12.9328 13.26 12.5648 13.356C12.2048 13.452 11.8328 13.5 11.4488 13.5H7.29675V4.932ZM9.18075 12.036H11.1968C11.3808 12.036 11.5568 12.02 11.7248 11.988C11.8928 11.948 12.0408 11.888 12.1688 11.808C12.2968 11.72 12.3968 11.604 12.4688 11.46C12.5488 11.316 12.5888 11.132 12.5888 10.908C12.5888 10.468 12.4648 10.156 12.2168 9.972C11.9688 9.78 11.6408 9.684 11.2328 9.684H9.18075V12.036ZM16.246 4.932H18.13V11.916H22.306V13.5H16.246V4.932Z" fill="white"/>
</svg>
