<svg width="64" height="64" viewBox="0 0 64 64" fill="none" xmlns="http://www.w3.org/2000/svg">
<circle cx="32" cy="32" r="24" fill="white"/>
<path fill-rule="evenodd" clip-rule="evenodd" d="M31.9948 58.6673C46.7224 58.6673 58.6615 46.7282 58.6615 32.0007C58.6615 17.2731 46.7224 5.33398 31.9948 5.33398C17.2672 5.33398 5.32812 17.2731 5.32812 32.0007C5.32812 46.7282 17.2672 58.6673 31.9948 58.6673ZM32 56C45.2548 56 56 45.2548 56 32C56 18.7452 45.2548 8 32 8C18.7452 8 8 18.7452 8 32C8 45.2548 18.7452 56 32 56ZM48.6615 21.334V29.334H36V49.3333H28V29.334H15.3281V21.334H48.6615Z" fill="#192026"/>
</svg>
