<svg width="39" height="18" viewBox="0 0 39 18" fill="none" xmlns="http://www.w3.org/2000/svg">
<rect width="38.25" height="18" rx="9" fill="#7C878E"/>
<rect x="0.5" y="0.5" width="37.25" height="17" rx="8.5" stroke="black" stroke-opacity="0.15"/>
<path d="M10.0749 10.656C10.0749 10.944 10.1269 11.188 10.2309 11.388C10.3349 11.588 10.4709 11.752 10.6389 11.88C10.8149 12 11.0189 12.092 11.2509 12.156C11.4829 12.212 11.7229 12.24 11.9709 12.24C12.1389 12.24 12.3189 12.228 12.5109 12.204C12.7029 12.172 12.8829 12.116 13.0509 12.036C13.2189 11.956 13.3589 11.848 13.4709 11.712C13.5829 11.568 13.6389 11.388 13.6389 11.172C13.6389 10.94 13.5629 10.752 13.4109 10.608C13.2669 10.464 13.0749 10.344 12.8349 10.248C12.5949 10.152 12.3229 10.068 12.0189 9.996C11.7149 9.924 11.4069 9.844 11.0949 9.756C10.7749 9.676 10.4629 9.58 10.1589 9.468C9.85489 9.348 9.58289 9.196 9.34289 9.012C9.10289 8.828 8.90689 8.6 8.75489 8.328C8.61089 8.048 8.53889 7.712 8.53889 7.32C8.53889 6.88 8.63089 6.5 8.81489 6.18C9.00689 5.852 9.25489 5.58 9.55889 5.364C9.86289 5.148 10.2069 4.988 10.5909 4.884C10.9749 4.78 11.3589 4.728 11.7429 4.728C12.1909 4.728 12.6189 4.78 13.0269 4.884C13.4429 4.98 13.8109 5.14 14.1309 5.364C14.4509 5.588 14.7029 5.876 14.8869 6.228C15.0789 6.572 15.1749 6.992 15.1749 7.488H13.3509C13.3349 7.232 13.2789 7.02 13.1829 6.852C13.0949 6.684 12.9749 6.552 12.8229 6.456C12.6709 6.36 12.4949 6.292 12.2949 6.252C12.1029 6.212 11.8909 6.192 11.6589 6.192C11.5069 6.192 11.3549 6.208 11.2029 6.24C11.0509 6.272 10.9109 6.328 10.7829 6.408C10.6629 6.488 10.5629 6.588 10.4829 6.708C10.4029 6.828 10.3629 6.98 10.3629 7.164C10.3629 7.332 10.3949 7.468 10.4589 7.572C10.5229 7.676 10.6469 7.772 10.8309 7.86C11.0229 7.948 11.2829 8.036 11.6109 8.124C11.9469 8.212 12.3829 8.324 12.9189 8.46C13.0789 8.492 13.2989 8.552 13.5789 8.64C13.8669 8.72 14.1509 8.852 14.4309 9.036C14.7109 9.22 14.9509 9.468 15.1509 9.78C15.3589 10.084 15.4629 10.476 15.4629 10.956C15.4629 11.348 15.3869 11.712 15.2349 12.048C15.0829 12.384 14.8549 12.676 14.5509 12.924C14.2549 13.164 13.8829 13.352 13.4349 13.488C12.9949 13.624 12.4829 13.692 11.8989 13.692C11.4269 13.692 10.9669 13.632 10.5189 13.512C10.0789 13.4 9.68689 13.22 9.34289 12.972C9.00689 12.724 8.73889 12.408 8.53889 12.024C8.33889 11.64 8.24289 11.184 8.25089 10.656H10.0749ZM16.9589 4.932H18.8429V11.916H23.0189V13.5H16.9589V4.932ZM27.3631 7.236H27.3271L25.1551 10.152H27.3631V7.236ZM27.3631 11.556H23.8111V9.996L27.4591 5.1H28.9831V10.152H30.0991V11.556H28.9831V13.5H27.3631V11.556Z" fill="white"/>
</svg>
