<svg fill="none" height="108" viewBox="0 0 358 108" width="358" xmlns="http://www.w3.org/2000/svg"><path clip-rule="evenodd" d="m188.425 18.4651c-.387-.255-.618-.6889-.612-1.1518v-3.5959c-.025-1.0458-.763-1.9392-1.786-2.1635-2.149-.627-4.334-1.1286-6.541-1.5025-.341-.07178-.694-.06836-1.034.0101-1.956.4307-3.922.8113-5.859 1.3522-1.143.3105-2.347.9415-2.347 2.3037v3.5658c.011.4694-.225.9103-.622 1.1619-.7.4306-1.125 1.1929-1.124 2.0133v15.1647c.007.7088.331 1.3773.883 1.823l3.842 2.8045-3.1 5.7494h2.529l.441-.7913h11.869l.451.7913h2.508l-3.08-5.7494h.01l3.762-2.7745c.563-.451.892-1.1323.893-1.853v-15.1647c.001-.8048-.407-1.555-1.083-1.9933zm-7.575-5.6092c0-.2272.104-.4421.281-.5843.178-.1422.41-.1962.632-.1469l3.712.7813c.345.0673.594.3701.592.7212v2.2036c0 .2241-.099.4366-.272.5799-.172.1432-.4.2024-.621.1613l-3.712-.7212c-.354-.0712-.609-.3806-.612-.7412zm2.077 28.6972h-7.815l.662-1.202h6.481zm-3.923-20.9242c1.499-.0028 2.716 1.208 2.719 2.7044.002 1.4964-1.21 2.7117-2.709 2.7144-1.499.0028-2.716-1.208-2.719-2.7044-.002-.7187.283-1.4086.791-1.9177s1.198-.7957 1.918-.7967zm-6.832-7.0016c-.005-.3557.25-.6619.602-.7212l3.702-.7813c.221-.0489.452.0056.628.148s.277.3572.275.5832v2.2537c.002.3588-.25.6691-.602.7412l-3.712.7212c-.221.0411-.448-.0181-.621-.1613-.173-.1433-.272-.3558-.272-.5799zm.802 23.9494c-.818.002-1.557-.489-1.872-1.2436-.314-.7547-.141-1.624.438-2.2019.579-.5778 1.449-.7502 2.205-.4365s1.248 1.0515 1.246 1.8687c0 1.1119-.903 2.0133-2.017 2.0133zm.783 6.4201.692-1.2421h9.15l.692 1.2421zm11.257-6.4201c-.819.002-1.558-.489-1.872-1.2436-.314-.7547-.142-1.624.437-2.2019.579-.5778 1.45-.7502 2.205-.4365.756.3137 1.248 1.0515 1.246 1.8687 0 1.1119-.903 2.0133-2.016 2.0133z" fill="#fff" fill-rule="evenodd"/></svg>
