<svg fill="none" height="844" viewBox="0 0 390 844" width="390" xmlns="http://www.w3.org/2000/svg" xmlns:xlink="http://www.w3.org/1999/xlink"><filter id="a" color-interpolation-filters="sRGB" filterUnits="userSpaceOnUse" height="948" width="494" x="-149" y="-543"><feFlood flood-opacity="0" result="BackgroundImageFix"/><feColorMatrix in="SourceAlpha" result="hardAlpha" type="matrix" values="0 0 0 0 0 0 0 0 0 0 0 0 0 0 0 0 0 0 127 0"/><feOffset dy="16"/><feGaussianBlur stdDeviation="16"/><feComposite in2="hardAlpha" operator="out"/><feColorMatrix type="matrix" values="0 0 0 0 0 0 0 0 0 0 0 0 0 0 0 0 0 0 0.15 0"/><feBlend in2="BackgroundImageFix" mode="normal" result="effect1_dropShadow_8504_761239"/><feBlend in="SourceGraphic" in2="effect1_dropShadow_8504_761239" mode="normal" result="shape"/></filter><linearGradient id="b" gradientUnits="userSpaceOnUse" x1=".000003" x2="418.701" y1="454" y2="487.731"><stop offset="0" stop-opacity="0"/><stop offset="1" stop-opacity=".15"/></linearGradient><clipPath id="c"><path d="m0 0h390v844h-390z"/></clipPath><clipPath id="d"><path d="m-97 254h390v43c0 22.091-17.909 40-40 40h-310c-22.0914 0-40-17.909-40-40z"/></clipPath><mask id="e" fill="#000" height="85" maskUnits="userSpaceOnUse" width="390" x="-97" y="252"><path d="m-97 252h390v85h-390z" fill="#fff"/><path d="m-97 254h390v43c0 22.091-17.909 40-40 40h-310c-22.0914 0-40-17.909-40-40z" fill="#000"/></mask><g clip-path="url(#c)"><path d="m0 0h390v844h-390z" fill="#3e454d"/><path d="m0 0h390v844h-390z" fill="url(#b)"/><g filter="url(#a)"><rect fill="#000" height="844" rx="40" width="390" x="-97" y="-507"/><rect height="864" rx="50" stroke="#000" stroke-width="20" width="410" x="-107" y="-517"/><g clip-path="url(#d)"><path d="m-97 254h390v43c0 22.091-17.909 40-40 40h-310c-22.0914 0-40-17.909-40-40z" fill="#192026"/><g fill="#66b2ff"><path d="m188.75 274c0-.464.184-.909.513-1.237.328-.329.773-.513 1.237-.513s.909.184 1.237.513c.329.328.513.773.513 1.237s-.184.909-.513 1.237c-.328.329-.773.513-1.237.513s-.909-.184-1.237-.513c-.329-.328-.513-.773-.513-1.237zm5 0c0-.464.184-.909.513-1.237.328-.329.773-.513 1.237-.513s.909.184 1.237.513c.329.328.513.773.513 1.237s-.184.909-.513 1.237c-.328.329-.773.513-1.237.513s-.909-.184-1.237-.513c-.329-.328-.513-.773-.513-1.237zm6.75-1.75c.464 0 .909.184 1.237.513.329.328.513.773.513 1.237s-.184.909-.513 1.237c-.328.329-.773.513-1.237.513s-.909-.184-1.237-.513c-.329-.328-.513-.773-.513-1.237s.184-.909.513-1.237c.328-.329.773-.513 1.237-.513z"/><path d="m182.641 293h1.774l2.375 5.797h.093l2.375-5.797h1.774v8h-1.391v-5.496h-.074l-2.211 5.473h-1.039l-2.211-5.485h-.074v5.508h-1.391zm12.524 8.117c-.586 0-1.094-.129-1.524-.387-.43-.257-.763-.618-1-1.082-.234-.463-.351-1.005-.351-1.625 0-.619.117-1.162.351-1.628.237-.467.57-.829 1-1.086.43-.258.938-.387 1.524-.387.585 0 1.093.129 1.523.387.43.257.762.619.996 1.086.237.466.356 1.009.356 1.628 0 .62-.119 1.162-.356 1.625-.234.464-.566.825-.996 1.082-.43.258-.938.387-1.523.387zm.007-1.133c.318 0 .584-.087.797-.261.214-.177.373-.414.477-.711.107-.297.16-.628.16-.992 0-.368-.053-.7-.16-.997-.104-.299-.263-.537-.477-.714-.213-.177-.479-.266-.797-.266-.325 0-.596.089-.812.266-.214.177-.374.415-.481.714-.104.297-.156.629-.156.997 0 .364.052.695.156.992.107.297.267.534.481.711.216.174.487.261.812.261zm4.068 1.016v-6h1.371v1h.062c.11-.346.297-.613.563-.801.268-.19.574-.285.918-.285.078 0 .165.004.262.012.098.005.181.014.246.027v1.301c-.06-.021-.155-.039-.286-.055-.127-.018-.251-.027-.371-.027-.257 0-.489.056-.695.168-.203.109-.363.262-.48.457-.118.195-.176.42-.176.676v3.527zm6.77.117c-.601 0-1.121-.125-1.558-.375-.435-.252-.77-.609-1.004-1.07-.235-.464-.352-1.009-.352-1.637 0-.617.117-1.159.352-1.625.237-.469.567-.833.992-1.094.424-.263.923-.394 1.496-.394.37 0 .719.06 1.047.18.331.117.622.299.875.546.255.248.456.563.601.946.146.38.219.833.219 1.359v.434h-4.918v-.953h3.563c-.003-.271-.061-.512-.176-.723-.115-.214-.275-.382-.48-.504-.204-.122-.441-.184-.711-.184-.289 0-.543.071-.762.211-.219.138-.389.321-.512.547-.12.224-.181.47-.183.739v.832c0 .349.063.648.191.898.128.247.306.437.535.57.229.131.497.196.805.196.206 0 .392-.029.558-.086.167-.06.312-.147.434-.262s.215-.257.277-.426l1.321.149c-.084.349-.243.653-.477.914-.232.257-.529.458-.891.601-.362.141-.776.211-1.242.211z"/></g></g><path d="m-97 252h390v4h-390zm390 85h-390zm-390 0v-83zm390-83v83z" fill="#fff" fill-opacity=".15" mask="url(#e)"/><rect fill="#000" height="5" rx="2.5" transform="matrix(-1 0 0 1 167 324)" width="139"/></g></g></svg>
