<svg width="390" height="844" viewBox="0 0 390 844" fill="none" xmlns="http://www.w3.org/2000/svg">
<g clip-path="url(#clip0_8431_578497)">
<rect width="390" height="844" fill="#F5F4F2"/>
<rect width="390" height="844" fill="url(#paint0_linear_8431_578497)" fill-opacity="0.25"/>
<mask id="mask0_8431_578497" style="mask-type:alpha" maskUnits="userSpaceOnUse" x="0" y="454" width="390" height="390">
<rect y="454" width="390" height="390" fill="url(#paint1_linear_8431_578497)"/>
</mask>
<g mask="url(#mask0_8431_578497)">
<g filter="url(#filter0_b_8431_578497)">
<rect y="454" width="390" height="390" fill="white" fill-opacity="0.01"/>
</g>
</g>
<g filter="url(#filter1_d_8431_578497)">
<rect x="-97" y="-507" width="390" height="844" rx="40" fill="#E6E5E3"/>
<rect x="-107" y="-517" width="410" height="864" rx="50" stroke="#192026" stroke-width="20"/>
<g clip-path="url(#clip1_8431_578497)">
<mask id="path-5-outside-1_8431_578497" maskUnits="userSpaceOnUse" x="-97" y="252" width="390" height="85" fill="black">
<rect fill="white" x="-97" y="252" width="390" height="85"/>
<path d="M-97 254H293V297C293 319.091 275.091 337 253 337H-57C-79.0914 337 -97 319.091 -97 297V254Z"/>
</mask>
<path d="M-97 254H293V297C293 319.091 275.091 337 253 337H-57C-79.0914 337 -97 319.091 -97 297V254Z" fill="#F5F4F2"/>
<path d="M188.75 274C188.75 273.536 188.934 273.091 189.263 272.763C189.591 272.434 190.036 272.25 190.5 272.25C190.964 272.25 191.409 272.434 191.737 272.763C192.066 273.091 192.25 273.536 192.25 274C192.25 274.464 192.066 274.909 191.737 275.237C191.409 275.566 190.964 275.75 190.5 275.75C190.036 275.75 189.591 275.566 189.263 275.237C188.934 274.909 188.75 274.464 188.75 274ZM193.75 274C193.75 273.536 193.934 273.091 194.263 272.763C194.591 272.434 195.036 272.25 195.5 272.25C195.964 272.25 196.409 272.434 196.737 272.763C197.066 273.091 197.25 273.536 197.25 274C197.25 274.464 197.066 274.909 196.737 275.237C196.409 275.566 195.964 275.75 195.5 275.75C195.036 275.75 194.591 275.566 194.263 275.237C193.934 274.909 193.75 274.464 193.75 274ZM200.5 272.25C200.964 272.25 201.409 272.434 201.737 272.763C202.066 273.091 202.25 273.536 202.25 274C202.25 274.464 202.066 274.909 201.737 275.237C201.409 275.566 200.964 275.75 200.5 275.75C200.036 275.75 199.591 275.566 199.263 275.237C198.934 274.909 198.75 274.464 198.75 274C198.75 273.536 198.934 273.091 199.263 272.763C199.591 272.434 200.036 272.25 200.5 272.25Z" fill="#006CD9"/>
<path d="M182.641 293H184.415L186.79 298.797H186.883L189.258 293H191.032V301H189.641V295.504H189.567L187.356 300.977H186.317L184.106 295.492H184.032V301H182.641V293ZM195.165 301.117C194.579 301.117 194.071 300.988 193.641 300.73C193.211 300.473 192.878 300.112 192.641 299.648C192.407 299.185 192.29 298.643 192.29 298.023C192.29 297.404 192.407 296.861 192.641 296.395C192.878 295.928 193.211 295.566 193.641 295.309C194.071 295.051 194.579 294.922 195.165 294.922C195.75 294.922 196.258 295.051 196.688 295.309C197.118 295.566 197.45 295.928 197.684 296.395C197.921 296.861 198.04 297.404 198.04 298.023C198.04 298.643 197.921 299.185 197.684 299.648C197.45 300.112 197.118 300.473 196.688 300.73C196.258 300.988 195.75 301.117 195.165 301.117ZM195.172 299.984C195.49 299.984 195.756 299.897 195.969 299.723C196.183 299.546 196.342 299.309 196.446 299.012C196.553 298.715 196.606 298.384 196.606 298.02C196.606 297.652 196.553 297.32 196.446 297.023C196.342 296.724 196.183 296.486 195.969 296.309C195.756 296.132 195.49 296.043 195.172 296.043C194.847 296.043 194.576 296.132 194.36 296.309C194.146 296.486 193.986 296.724 193.879 297.023C193.775 297.32 193.723 297.652 193.723 298.02C193.723 298.384 193.775 298.715 193.879 299.012C193.986 299.309 194.146 299.546 194.36 299.723C194.576 299.897 194.847 299.984 195.172 299.984ZM199.24 301V295H200.611V296H200.673C200.783 295.654 200.97 295.387 201.236 295.199C201.504 295.009 201.81 294.914 202.154 294.914C202.232 294.914 202.319 294.918 202.416 294.926C202.514 294.931 202.597 294.94 202.662 294.953V296.254C202.602 296.233 202.507 296.215 202.376 296.199C202.249 296.181 202.125 296.172 202.005 296.172C201.748 296.172 201.516 296.228 201.31 296.34C201.107 296.449 200.947 296.602 200.83 296.797C200.712 296.992 200.654 297.217 200.654 297.473V301H199.24ZM206.01 301.117C205.409 301.117 204.889 300.992 204.452 300.742C204.017 300.49 203.682 300.133 203.448 299.672C203.213 299.208 203.096 298.663 203.096 298.035C203.096 297.418 203.213 296.876 203.448 296.41C203.685 295.941 204.015 295.577 204.44 295.316C204.864 295.053 205.363 294.922 205.936 294.922C206.306 294.922 206.655 294.982 206.983 295.102C207.314 295.219 207.605 295.401 207.858 295.648C208.113 295.896 208.314 296.211 208.459 296.594C208.605 296.974 208.678 297.427 208.678 297.953V298.387H203.76V297.434H207.323C207.32 297.163 207.262 296.922 207.147 296.711C207.032 296.497 206.872 296.329 206.667 296.207C206.463 296.085 206.226 296.023 205.956 296.023C205.667 296.023 205.413 296.094 205.194 296.234C204.975 296.372 204.805 296.555 204.682 296.781C204.562 297.005 204.501 297.251 204.499 297.52V298.352C204.499 298.701 204.562 299 204.69 299.25C204.818 299.497 204.996 299.687 205.225 299.82C205.454 299.951 205.722 300.016 206.03 300.016C206.236 300.016 206.422 299.987 206.588 299.93C206.755 299.87 206.9 299.783 207.022 299.668C207.144 299.553 207.237 299.411 207.299 299.242L208.62 299.391C208.536 299.74 208.377 300.044 208.143 300.305C207.911 300.562 207.614 300.763 207.252 300.906C206.89 301.047 206.476 301.117 206.01 301.117Z" fill="#006CD9"/>
</g>
<path d="M-97 252H293V256H-97V252ZM293 337H-97H293ZM-97 337V254V337ZM293 254V337V254Z" fill="#192026" fill-opacity="0.1" mask="url(#path-5-outside-1_8431_578497)"/>
<rect width="139" height="5" rx="2.5" transform="matrix(-1 0 0 1 167 324)" fill="black"/>
</g>
</g>
<defs>
<filter id="filter0_b_8431_578497" x="-16" y="438" width="422" height="422" filterUnits="userSpaceOnUse" color-interpolation-filters="sRGB">
<feFlood flood-opacity="0" result="BackgroundImageFix"/>
<feGaussianBlur in="BackgroundImageFix" stdDeviation="8"/>
<feComposite in2="SourceAlpha" operator="in" result="effect1_backgroundBlur_8431_578497"/>
<feBlend mode="normal" in="SourceGraphic" in2="effect1_backgroundBlur_8431_578497" result="shape"/>
</filter>
<filter id="filter1_d_8431_578497" x="-149" y="-543" width="494" height="948" filterUnits="userSpaceOnUse" color-interpolation-filters="sRGB">
<feFlood flood-opacity="0" result="BackgroundImageFix"/>
<feColorMatrix in="SourceAlpha" type="matrix" values="0 0 0 0 0 0 0 0 0 0 0 0 0 0 0 0 0 0 127 0" result="hardAlpha"/>
<feOffset dy="16"/>
<feGaussianBlur stdDeviation="16"/>
<feComposite in2="hardAlpha" operator="out"/>
<feColorMatrix type="matrix" values="0 0 0 0 0 0 0 0 0 0 0 0 0 0 0 0 0 0 0.15 0"/>
<feBlend mode="normal" in2="BackgroundImageFix" result="effect1_dropShadow_8431_578497"/>
<feBlend mode="normal" in="SourceGraphic" in2="effect1_dropShadow_8431_578497" result="shape"/>
</filter>
<linearGradient id="paint0_linear_8431_578497" x1="390" y1="844" x2="-28.701" y2="810.27" gradientUnits="userSpaceOnUse">
<stop stop-opacity="0.15"/>
<stop offset="1" stop-opacity="0"/>
</linearGradient>
<linearGradient id="paint1_linear_8431_578497" x1="195" y1="454" x2="195" y2="844" gradientUnits="userSpaceOnUse">
<stop stop-opacity="0"/>
<stop offset="0.55"/>
</linearGradient>
<clipPath id="clip0_8431_578497">
<rect width="390" height="844" fill="white"/>
</clipPath>
<clipPath id="clip1_8431_578497">
<path d="M-97 254H293V297C293 319.091 275.091 337 253 337H-57C-79.0914 337 -97 319.091 -97 297V254Z" fill="white"/>
</clipPath>
</defs>
</svg>
