<svg fill="none" height="36" viewBox="0 0 36 36" width="36" xmlns="http://www.w3.org/2000/svg">
<path clip-rule="evenodd" d="M 17.917969 3 C 9.6351885 3.04431 2.9557 9.7959382 3 18.080078 C 3.04429 26.364278 9.795355 33.0443 18.078125 33 C 26.480525 32.7844 33.214241 25.952622 32.994141 17.919922 C 32.767341 9.6386618 26.200669 2.95625 17.917969 3 z M 25.501953 11.75 C 25.822253 11.75 26.142576 11.871084 26.386719 12.115234 L 26.382812 12.115234 C 26.871113 12.603534 26.871112 13.396566 26.382812 13.884766 L 16.382812 23.884766 C 15.894513 24.373066 15.101581 24.373066 14.613281 23.884766 L 9.6132812 18.884766 C 9.1250013 18.396566 9.1250013 17.603534 9.6132812 17.115234 C 10.101601 16.626934 10.894512 16.626934 11.382812 17.115234 L 15.5 21.230469 L 24.617188 12.115234 C 24.861337 11.871084 25.181653 11.75 25.501953 11.75 z " fill="#192026" fill-rule="evenodd"/>
</svg>
