<svg width="51" height="24" viewBox="0 0 51 24" fill="none" xmlns="http://www.w3.org/2000/svg">
<rect width="51" height="24" rx="12" fill="#7C878E"/>
<rect x="0.5" y="0.5" width="50" height="23" rx="11.5" stroke="white" stroke-opacity="0.15"/>
<path d="M13.4332 14.208C13.4332 14.592 13.5025 14.9173 13.6412 15.184C13.7799 15.4507 13.9612 15.6693 14.1852 15.84C14.4199 16 14.6919 16.1227 15.0012 16.208C15.3105 16.2827 15.6305 16.32 15.9612 16.32C16.1852 16.32 16.4252 16.304 16.6812 16.272C16.9372 16.2293 17.1772 16.1547 17.4012 16.048C17.6252 15.9413 17.8119 15.7973 17.9612 15.616C18.1105 15.424 18.1852 15.184 18.1852 14.896C18.1852 14.5867 18.0839 14.336 17.8812 14.144C17.6892 13.952 17.4332 13.792 17.1132 13.664C16.7932 13.536 16.4305 13.424 16.0252 13.328C15.6199 13.232 15.2092 13.1253 14.7932 13.008C14.3665 12.9013 13.9505 12.7733 13.5452 12.624C13.1399 12.464 12.7772 12.2613 12.4572 12.016C12.1372 11.7707 11.8759 11.4667 11.6732 11.104C11.4812 10.7307 11.3852 10.2827 11.3852 9.76C11.3852 9.17333 11.5079 8.66667 11.7532 8.24C12.0092 7.80267 12.3399 7.44 12.7452 7.152C13.1505 6.864 13.6092 6.65067 14.1212 6.512C14.6332 6.37333 15.1452 6.304 15.6572 6.304C16.2545 6.304 16.8252 6.37333 17.3692 6.512C17.9239 6.64 18.4145 6.85333 18.8412 7.152C19.2679 7.45067 19.6039 7.83467 19.8492 8.304C20.1052 8.76267 20.2332 9.32267 20.2332 9.984H17.8012C17.7799 9.64267 17.7052 9.36 17.5772 9.136C17.4599 8.912 17.2999 8.736 17.0972 8.608C16.8945 8.48 16.6599 8.38933 16.3932 8.336C16.1372 8.28267 15.8545 8.256 15.5452 8.256C15.3425 8.256 15.1399 8.27733 14.9372 8.32C14.7345 8.36267 14.5479 8.43733 14.3772 8.544C14.2172 8.65067 14.0839 8.784 13.9772 8.944C13.8705 9.104 13.8172 9.30667 13.8172 9.552C13.8172 9.776 13.8599 9.95733 13.9452 10.096C14.0305 10.2347 14.1959 10.3627 14.4412 10.48C14.6972 10.5973 15.0439 10.7147 15.4812 10.832C15.9292 10.9493 16.5105 11.0987 17.2252 11.28C17.4385 11.3227 17.7319 11.4027 18.1052 11.52C18.4892 11.6267 18.8679 11.8027 19.2412 12.048C19.6145 12.2933 19.9345 12.624 20.2012 13.04C20.4785 13.4453 20.6172 13.968 20.6172 14.608C20.6172 15.1307 20.5159 15.616 20.3132 16.064C20.1105 16.512 19.8065 16.9013 19.4012 17.232C19.0065 17.552 18.5105 17.8027 17.9132 17.984C17.3265 18.1653 16.6439 18.256 15.8652 18.256C15.2359 18.256 14.6225 18.176 14.0252 18.016C13.4385 17.8667 12.9159 17.6267 12.4572 17.296C12.0092 16.9653 11.6519 16.544 11.3852 16.032C11.1185 15.52 10.9905 14.912 11.0012 14.208H13.4332ZM22.6118 6.576H25.1238V15.888H30.6918V18H22.6118V6.576ZM35.1402 11.328C35.3855 11.3493 35.6469 11.3493 35.9242 11.328C36.2015 11.3067 36.4575 11.248 36.6922 11.152C36.9375 11.0453 37.1349 10.896 37.2842 10.704C37.4442 10.512 37.5242 10.256 37.5242 9.936C37.5242 9.456 37.3642 9.088 37.0442 8.832C36.7242 8.576 36.3562 8.448 35.9402 8.448C35.3642 8.448 34.9269 8.64 34.6282 9.024C34.3402 9.39733 34.2015 9.872 34.2122 10.448H32.0522C32.0735 9.872 32.1749 9.34933 32.3562 8.88C32.5482 8.4 32.8095 7.98933 33.1402 7.648C33.4815 7.30667 33.8869 7.04533 34.3562 6.864C34.8255 6.672 35.3482 6.576 35.9242 6.576C36.3722 6.576 36.8202 6.64533 37.2682 6.784C37.7162 6.912 38.1162 7.10933 38.4682 7.376C38.8309 7.64267 39.1242 7.968 39.3482 8.352C39.5722 8.736 39.6842 9.17867 39.6842 9.68C39.6842 10.224 39.5509 10.704 39.2842 11.12C39.0282 11.536 38.6389 11.8187 38.1162 11.968V12C38.7349 12.1387 39.2202 12.4373 39.5722 12.896C39.9242 13.3547 40.1002 13.904 40.1002 14.544C40.1002 15.1307 39.9829 15.6533 39.7482 16.112C39.5242 16.5707 39.2202 16.9547 38.8362 17.264C38.4522 17.5733 38.0095 17.808 37.5082 17.968C37.0069 18.128 36.4842 18.208 35.9402 18.208C35.3109 18.208 34.7349 18.1173 34.2122 17.936C33.7002 17.7547 33.2629 17.4933 32.9002 17.152C32.5375 16.8 32.2549 16.3733 32.0522 15.872C31.8602 15.3707 31.7695 14.7947 31.7802 14.144H33.9402C33.9509 14.4427 33.9989 14.7307 34.0842 15.008C34.1695 15.2747 34.2922 15.5093 34.4522 15.712C34.6122 15.904 34.8095 16.0587 35.0442 16.176C35.2895 16.2933 35.5775 16.352 35.9082 16.352C36.4202 16.352 36.8522 16.1973 37.2042 15.888C37.5562 15.568 37.7322 15.136 37.7322 14.592C37.7322 14.1653 37.6469 13.84 37.4762 13.616C37.3162 13.392 37.1082 13.232 36.8522 13.136C36.5962 13.0293 36.3135 12.9707 36.0042 12.96C35.7055 12.9387 35.4175 12.928 35.1402 12.928V11.328Z" fill="white"/>
</svg>
