<svg width="56" height="24" viewBox="0 0 56 24" fill="none" xmlns="http://www.w3.org/2000/svg">
<rect width="56" height="24" rx="12" fill="#00843D"/>
<rect x="0.5" y="0.5" width="55" height="23" rx="11.5" stroke="white" stroke-opacity="0.15"/>
<path d="M17.3678 16.704C16.9198 17.28 16.4238 17.6853 15.8798 17.92C15.3358 18.144 14.7865 18.256 14.2318 18.256C13.3571 18.256 12.5678 18.1067 11.8638 17.808C11.1705 17.4987 10.5838 17.0773 10.1038 16.544C9.62381 16.0107 9.25581 15.3867 8.99981 14.672C8.74381 13.9467 8.61581 13.168 8.61581 12.336C8.61581 11.4827 8.74381 10.6933 8.99981 9.968C9.25581 9.232 9.62381 8.592 10.1038 8.048C10.5838 7.504 11.1705 7.07733 11.8638 6.768C12.5678 6.45867 13.3571 6.304 14.2318 6.304C14.8185 6.304 15.3838 6.39467 15.9278 6.576C16.4825 6.74667 16.9785 7.00267 17.4158 7.344C17.8638 7.68533 18.2318 8.10667 18.5198 8.608C18.8078 9.10933 18.9838 9.68533 19.0478 10.336H16.6478C16.4985 9.696 16.2105 9.216 15.7838 8.896C15.3571 8.576 14.8398 8.416 14.2318 8.416C13.6665 8.416 13.1865 8.528 12.7918 8.752C12.3971 8.96533 12.0771 9.25867 11.8318 9.632C11.5865 9.99467 11.4051 10.4107 11.2878 10.88C11.1811 11.3493 11.1278 11.8347 11.1278 12.336C11.1278 12.816 11.1811 13.2853 11.2878 13.744C11.4051 14.192 11.5865 14.5973 11.8318 14.96C12.0771 15.3227 12.3971 15.616 12.7918 15.84C13.1865 16.0533 13.6665 16.16 14.2318 16.16C15.0638 16.16 15.7038 15.952 16.1518 15.536C16.6105 15.1093 16.8771 14.496 16.9518 13.696H14.4238V11.824H19.2238V18H17.6238L17.3678 16.704ZM21.7524 6.576H24.2644V15.888H29.8324V18H21.7524V6.576ZM35.2248 12.272C35.2248 12.7627 35.0595 13.1733 34.7288 13.504C34.4088 13.8347 33.9981 14 33.4968 14C32.9955 14 32.5795 13.8347 32.2488 13.504C31.9288 13.1733 31.7688 12.7627 31.7688 12.272C31.7688 11.7707 31.9288 11.36 32.2488 11.04C32.5795 10.7093 32.9955 10.544 33.4968 10.544C33.9981 10.544 34.4088 10.7093 34.7288 11.04C35.0595 11.36 35.2248 11.7707 35.2248 12.272ZM40.3426 11.2H42.8866C43.3346 11.2 43.7026 11.0933 43.9906 10.88C44.2786 10.6667 44.4226 10.32 44.4226 9.84C44.4226 9.57333 44.3746 9.35467 44.2786 9.184C44.1826 9.01333 44.0546 8.88 43.8946 8.784C43.7346 8.688 43.5479 8.624 43.3346 8.592C43.1319 8.54933 42.9186 8.528 42.6946 8.528H40.3426V11.2ZM37.8306 6.576H43.2066C43.7506 6.576 44.2466 6.624 44.6946 6.72C45.1426 6.816 45.5266 6.976 45.8466 7.2C46.1666 7.41333 46.4119 7.70133 46.5826 8.064C46.7639 8.42667 46.8546 8.87467 46.8546 9.408C46.8546 9.984 46.7212 10.464 46.4546 10.848C46.1986 11.232 45.8146 11.5467 45.3026 11.792C46.0066 11.9947 46.5292 12.352 46.8706 12.864C47.2226 13.3653 47.3986 13.9733 47.3986 14.688C47.3986 15.264 47.2866 15.7653 47.0626 16.192C46.8386 16.608 46.5346 16.9493 46.1506 17.216C45.7772 17.4827 45.3452 17.68 44.8546 17.808C44.3746 17.936 43.8786 18 43.3666 18H37.8306V6.576ZM40.3426 16.048H43.0306C43.2759 16.048 43.5106 16.0267 43.7346 15.984C43.9586 15.9307 44.1559 15.8507 44.3266 15.744C44.4972 15.6267 44.6306 15.472 44.7266 15.28C44.8332 15.088 44.8866 14.8427 44.8866 14.544C44.8866 13.9573 44.7212 13.5413 44.3906 13.296C44.0599 13.04 43.6226 12.912 43.0786 12.912H40.3426V16.048Z" fill="white"/>
</svg>
