<svg width="42" height="18" viewBox="0 0 42 18" fill="none" xmlns="http://www.w3.org/2000/svg">
<rect width="42" height="18" rx="9" fill="#00843D"/>
<rect x="0.5" y="0.5" width="41" height="17" rx="8.5" stroke="white" stroke-opacity="0.15"/>
<path d="M12.8032 12.528C12.4672 12.96 12.0952 13.264 11.6872 13.44C11.2792 13.608 10.8672 13.692 10.4512 13.692C9.7952 13.692 9.2032 13.58 8.6752 13.356C8.1552 13.124 7.7152 12.808 7.3552 12.408C6.9952 12.008 6.7192 11.54 6.5272 11.004C6.3352 10.46 6.2392 9.876 6.2392 9.252C6.2392 8.612 6.3352 8.02 6.5272 7.476C6.7192 6.924 6.9952 6.444 7.3552 6.036C7.7152 5.628 8.1552 5.308 8.6752 5.076C9.2032 4.844 9.7952 4.728 10.4512 4.728C10.8912 4.728 11.3152 4.796 11.7232 4.932C12.1392 5.06 12.5112 5.252 12.8392 5.508C13.1752 5.764 13.4512 6.08 13.6672 6.456C13.8832 6.832 14.0152 7.264 14.0632 7.752H12.2632C12.1512 7.272 11.9352 6.912 11.6152 6.672C11.2952 6.432 10.9072 6.312 10.4512 6.312C10.0272 6.312 9.6672 6.396 9.3712 6.564C9.0752 6.724 8.8352 6.944 8.6512 7.224C8.4672 7.496 8.3312 7.808 8.2432 8.16C8.1632 8.512 8.1232 8.876 8.1232 9.252C8.1232 9.612 8.1632 9.964 8.2432 10.308C8.3312 10.644 8.4672 10.948 8.6512 11.22C8.8352 11.492 9.0752 11.712 9.3712 11.88C9.6672 12.04 10.0272 12.12 10.4512 12.12C11.0752 12.12 11.5552 11.964 11.8912 11.652C12.2352 11.332 12.4352 10.872 12.4912 10.272H10.5952V8.868H14.1952V13.5H12.9952L12.8032 12.528ZM16.0917 4.932H17.9757V11.916H22.1517V13.5H16.0917V4.932ZM26.196 9.204C26.196 9.572 26.072 9.88 25.824 10.128C25.584 10.376 25.276 10.5 24.9 10.5C24.524 10.5 24.212 10.376 23.964 10.128C23.724 9.88 23.604 9.572 23.604 9.204C23.604 8.828 23.724 8.52 23.964 8.28C24.212 8.032 24.524 7.908 24.9 7.908C25.276 7.908 25.584 8.032 25.824 8.28C26.072 8.52 26.196 8.828 26.196 9.204ZM30.0343 11.916H31.7143C31.9863 11.916 32.2503 11.872 32.5063 11.784C32.7623 11.696 32.9903 11.552 33.1903 11.352C33.3903 11.144 33.5503 10.876 33.6703 10.548C33.7903 10.22 33.8503 9.82 33.8503 9.348C33.8503 8.916 33.8063 8.528 33.7183 8.184C33.6383 7.832 33.5023 7.532 33.3103 7.284C33.1183 7.036 32.8623 6.848 32.5423 6.72C32.2303 6.584 31.8423 6.516 31.3783 6.516H30.0343V11.916ZM28.1503 4.932H31.8463C32.3983 4.932 32.9103 5.02 33.3823 5.196C33.8623 5.372 34.2743 5.636 34.6183 5.988C34.9703 6.34 35.2423 6.78 35.4343 7.308C35.6343 7.836 35.7343 8.456 35.7343 9.168C35.7343 9.792 35.6543 10.368 35.4943 10.896C35.3343 11.424 35.0903 11.88 34.7623 12.264C34.4423 12.648 34.0383 12.952 33.5503 13.176C33.0703 13.392 32.5023 13.5 31.8463 13.5H28.1503V4.932Z" fill="white"/>
</svg>
