<svg width="56" height="24" viewBox="0 0 56 24" fill="none" xmlns="http://www.w3.org/2000/svg">
<rect width="56" height="24" rx="12" fill="#00843D"/>
<rect x="0.5" y="0.5" width="55" height="23" rx="11.5" stroke="white" stroke-opacity="0.15"/>
<path d="M17.8131 16.704C17.3651 17.28 16.8691 17.6853 16.3251 17.92C15.7811 18.144 15.2318 18.256 14.6771 18.256C13.8025 18.256 13.0131 18.1067 12.3091 17.808C11.6158 17.4987 11.0291 17.0773 10.5491 16.544C10.0691 16.0107 9.70113 15.3867 9.44513 14.672C9.18913 13.9467 9.06113 13.168 9.06113 12.336C9.06113 11.4827 9.18913 10.6933 9.44513 9.968C9.70113 9.232 10.0691 8.592 10.5491 8.048C11.0291 7.504 11.6158 7.07733 12.3091 6.768C13.0131 6.45867 13.8025 6.304 14.6771 6.304C15.2638 6.304 15.8291 6.39467 16.3731 6.576C16.9278 6.74667 17.4238 7.00267 17.8611 7.344C18.3091 7.68533 18.6771 8.10667 18.9651 8.608C19.2531 9.10933 19.4291 9.68533 19.4931 10.336H17.0931C16.9438 9.696 16.6558 9.216 16.2291 8.896C15.8025 8.576 15.2851 8.416 14.6771 8.416C14.1118 8.416 13.6318 8.528 13.2371 8.752C12.8425 8.96533 12.5225 9.25867 12.2771 9.632C12.0318 9.99467 11.8505 10.4107 11.7331 10.88C11.6265 11.3493 11.5731 11.8347 11.5731 12.336C11.5731 12.816 11.6265 13.2853 11.7331 13.744C11.8505 14.192 12.0318 14.5973 12.2771 14.96C12.5225 15.3227 12.8425 15.616 13.2371 15.84C13.6318 16.0533 14.1118 16.16 14.6771 16.16C15.5091 16.16 16.1491 15.952 16.5971 15.536C17.0558 15.1093 17.3225 14.496 17.3971 13.696H14.8691V11.824H19.6691V18H18.0691L17.8131 16.704ZM22.1978 6.576H24.7098V15.888H30.2778V18H22.1978V6.576ZM35.6701 12.272C35.6701 12.7627 35.5048 13.1733 35.1741 13.504C34.8541 13.8347 34.4435 14 33.9421 14C33.4408 14 33.0248 13.8347 32.6941 13.504C32.3741 13.1733 32.2141 12.7627 32.2141 12.272C32.2141 11.7707 32.3741 11.36 32.6941 11.04C33.0248 10.7093 33.4408 10.544 33.9421 10.544C34.4435 10.544 34.8541 10.7093 35.1741 11.04C35.5048 11.36 35.6701 11.7707 35.6701 12.272ZM38.2759 6.576H46.8199V8.688H40.7879V11.136H46.3239V13.088H40.7879V15.888H46.9479V18H38.2759V6.576Z" fill="white"/>
</svg>
