<svg width="40" height="24" viewBox="0 0 40 24" fill="none" xmlns="http://www.w3.org/2000/svg">
<rect width="40" height="24" rx="12" fill="#008400"/>
<rect x="0.5" y="0.5" width="39" height="23" rx="11.5" stroke="black" stroke-opacity="0.15"/>
<path d="M18.2975 16.704C17.8495 17.28 17.3535 17.6853 16.8095 17.92C16.2655 18.144 15.7162 18.256 15.1615 18.256C14.2868 18.256 13.4975 18.1067 12.7935 17.808C12.1002 17.4987 11.5135 17.0773 11.0335 16.544C10.5535 16.0107 10.1855 15.3867 9.9295 14.672C9.6735 13.9467 9.5455 13.168 9.5455 12.336C9.5455 11.4827 9.6735 10.6933 9.9295 9.968C10.1855 9.232 10.5535 8.592 11.0335 8.048C11.5135 7.504 12.1002 7.07733 12.7935 6.768C13.4975 6.45867 14.2868 6.304 15.1615 6.304C15.7482 6.304 16.3135 6.39467 16.8575 6.576C17.4122 6.74667 17.9082 7.00267 18.3455 7.344C18.7935 7.68533 19.1615 8.10667 19.4495 8.608C19.7375 9.10933 19.9135 9.68533 19.9775 10.336H17.5775C17.4282 9.696 17.1402 9.216 16.7135 8.896C16.2868 8.576 15.7695 8.416 15.1615 8.416C14.5962 8.416 14.1162 8.528 13.7215 8.752C13.3268 8.96533 13.0068 9.25867 12.7615 9.632C12.5162 9.99467 12.3348 10.4107 12.2175 10.88C12.1108 11.3493 12.0575 11.8347 12.0575 12.336C12.0575 12.816 12.1108 13.2853 12.2175 13.744C12.3348 14.192 12.5162 14.5973 12.7615 14.96C13.0068 15.3227 13.3268 15.616 13.7215 15.84C14.1162 16.0533 14.5962 16.16 15.1615 16.16C15.9935 16.16 16.6335 15.952 17.0815 15.536C17.5402 15.1093 17.8068 14.496 17.8815 13.696H15.3535V11.824H20.1535V18H18.5535L18.2975 16.704ZM22.6821 6.576H25.1941V15.888H30.7621V18H22.6821V6.576Z" fill="white"/>
</svg>
