<svg width="29" height="18" viewBox="0 0 29 18" fill="none" xmlns="http://www.w3.org/2000/svg">
<rect width="29" height="18" rx="9" fill="#7C878E"/>
<rect x="0.5" y="0.5" width="28" height="17" rx="8.5" stroke="black" stroke-opacity="0.15"/>
<path d="M8.97138 10.656C8.97138 10.944 9.02338 11.188 9.12738 11.388C9.23138 11.588 9.36738 11.752 9.53538 11.88C9.71138 12 9.91538 12.092 10.1474 12.156C10.3794 12.212 10.6194 12.24 10.8674 12.24C11.0354 12.24 11.2154 12.228 11.4074 12.204C11.5994 12.172 11.7794 12.116 11.9474 12.036C12.1154 11.956 12.2554 11.848 12.3674 11.712C12.4794 11.568 12.5354 11.388 12.5354 11.172C12.5354 10.94 12.4594 10.752 12.3074 10.608C12.1634 10.464 11.9714 10.344 11.7314 10.248C11.4914 10.152 11.2194 10.068 10.9154 9.996C10.6114 9.924 10.3034 9.844 9.99138 9.756C9.67138 9.676 9.35938 9.58 9.05538 9.468C8.75138 9.348 8.47938 9.196 8.23938 9.012C7.99938 8.828 7.80338 8.6 7.65137 8.328C7.50738 8.048 7.43538 7.712 7.43538 7.32C7.43538 6.88 7.52738 6.5 7.71138 6.18C7.90338 5.852 8.15138 5.58 8.45538 5.364C8.75938 5.148 9.10338 4.988 9.48738 4.884C9.87138 4.78 10.2554 4.728 10.6394 4.728C11.0874 4.728 11.5154 4.78 11.9234 4.884C12.3394 4.98 12.7074 5.14 13.0274 5.364C13.3474 5.588 13.5994 5.876 13.7834 6.228C13.9754 6.572 14.0714 6.992 14.0714 7.488H12.2474C12.2314 7.232 12.1754 7.02 12.0794 6.852C11.9914 6.684 11.8714 6.552 11.7194 6.456C11.5674 6.36 11.3914 6.292 11.1914 6.252C10.9994 6.212 10.7874 6.192 10.5554 6.192C10.4034 6.192 10.2514 6.208 10.0994 6.24C9.94738 6.272 9.80738 6.328 9.67938 6.408C9.55938 6.488 9.45938 6.588 9.37938 6.708C9.29938 6.828 9.25938 6.98 9.25938 7.164C9.25938 7.332 9.29138 7.468 9.35538 7.572C9.41938 7.676 9.54338 7.772 9.72738 7.86C9.91938 7.948 10.1794 8.036 10.5074 8.124C10.8434 8.212 11.2794 8.324 11.8154 8.46C11.9754 8.492 12.1954 8.552 12.4754 8.64C12.7634 8.72 13.0474 8.852 13.3274 9.036C13.6074 9.22 13.8474 9.468 14.0474 9.78C14.2554 10.084 14.3594 10.476 14.3594 10.956C14.3594 11.348 14.2834 11.712 14.1314 12.048C13.9794 12.384 13.7514 12.676 13.4474 12.924C13.1514 13.164 12.7794 13.352 12.3314 13.488C11.8914 13.624 11.3794 13.692 10.7954 13.692C10.3234 13.692 9.86338 13.632 9.41538 13.512C8.97538 13.4 8.58338 13.22 8.23938 12.972C7.90338 12.724 7.63538 12.408 7.43538 12.024C7.23538 11.64 7.13938 11.184 7.14738 10.656H8.97138ZM15.8553 4.932H17.7393V11.916H21.9153V13.5H15.8553V4.932Z" fill="white"/>
</svg>
