<svg width="40" height="24" viewBox="0 0 40 24" fill="none" xmlns="http://www.w3.org/2000/svg">
<rect width="40" height="24" rx="12" fill="#FFC72C"/>
<rect x="0.5" y="0.5" width="39" height="23" rx="11.5" stroke="white" stroke-opacity="0.3"/>
<path fill-rule="evenodd" clip-rule="evenodd" d="M26.3995 11.2169L25.7777 6.35129C25.6198 5.47334 25.0635 5.13075 24.2358 4.77146C22.8795 4.28822 21.4495 4.02748 20.0047 4C18.5576 4.02779 17.1254 4.2885 15.7667 4.77146C14.9493 5.12397 14.393 5.4732 14.2247 6.35115L13.5996 11.2169V17.9483H14.6969V19.1207C14.6984 19.6023 15.1012 19.9923 15.5986 19.9936C16.0958 19.9922 16.4986 19.6021 16.5001 19.1206V17.9482H23.5319V19.1206C23.5296 19.434 23.7009 19.7246 23.9808 19.882C24.2607 20.0393 24.6062 20.0393 24.8861 19.882C25.166 19.7246 25.3373 19.434 25.3349 19.1206V17.9482H26.3996L26.3995 11.2169ZM17.3705 5.23052H22.6595C22.8833 5.23052 23.0647 5.40623 23.0647 5.62297C23.0647 5.83972 22.8833 6.01543 22.6595 6.01543H17.3705C17.1467 6.01543 16.9652 5.83972 16.9652 5.62297C16.9652 5.40623 17.1467 5.23052 17.3705 5.23052ZM14.7364 11.0739L15.2513 7.23263C15.2943 6.99044 15.5124 6.81429 15.7662 6.81691H24.3079C24.561 6.81438 24.7782 6.99085 24.8196 7.23263L25.3345 11.0739C25.3414 11.118 25.3414 11.1629 25.3345 11.2069V11.2335C25.3352 11.3657 25.281 11.4925 25.1842 11.5857C25.0874 11.6789 24.9561 11.7305 24.8196 11.7291H15.2275C15.0908 11.7231 14.9622 11.6647 14.87 11.5667C14.7779 11.4688 14.7298 11.3393 14.7364 11.2069C14.7295 11.1629 14.7295 11.118 14.7364 11.0739ZM15.5986 15.8664C15.0684 15.8673 14.6379 15.4519 14.6369 14.9385C14.6359 14.4252 15.0648 14.0082 15.595 14.0072C16.1251 14.0063 16.5557 14.4216 16.5567 14.935C16.5574 15.1816 16.4568 15.4183 16.277 15.593C16.0973 15.7677 15.8532 15.8661 15.5986 15.8664ZM23.4737 14.9362C23.474 14.4233 23.9033 14.0076 24.433 14.0072C24.9626 14.0069 25.3925 14.4221 25.3935 14.935C25.3942 15.1822 25.293 15.4195 25.1125 15.5943C24.9319 15.7691 24.6869 15.867 24.4316 15.8664C23.9021 15.8653 23.4733 15.4491 23.4737 14.9362Z" fill="#192026"/>
</svg>
