<svg width="16" height="12" viewBox="0 0 16 12" fill="none" xmlns="http://www.w3.org/2000/svg">
<path d="M12.5 1.5C12.5 2.32843 11.8284 3 11 3C10.1716 3 9.5 2.32843 9.5 1.5C9.5 0.671573 10.1716 0 11 0C11.8284 0 12.5 0.671573 12.5 1.5Z" fill="white"/>
<path d="M9 6C9 4.89543 9.89543 4 11 4C12.1046 4 13 4.89543 13 6V11.3846C13 11.7245 12.7245 12 12.3846 12H9.61538C9.27552 12 9 11.7245 9 11.3846V6Z" fill="white"/>
<path d="M6.5 1.5C6.5 2.32843 5.82843 3 5 3C4.17157 3 3.5 2.32843 3.5 1.5C3.5 0.671573 4.17157 0 5 0C5.82843 0 6.5 0.671573 6.5 1.5Z" fill="white"/>
<path d="M3 6C3 4.89543 3.89543 4 5 4C6.10457 4 7 4.89543 7 6V11.3846C7 11.7245 6.72448 12 6.38462 12H3.61538C3.27552 12 3 11.7245 3 11.3846V6Z" fill="white"/>
</svg>
