<svg fill="none" height="108" viewBox="0 0 358 108" width="358" xmlns="http://www.w3.org/2000/svg"><g fill="#fff"><path d="m177.33 11.5393c-.337.0001-.66-.1334-.898-.3716-.239-.2382-.373-.5614-.372-.8982 0-.7012.568-1.26953 1.27-1.2695.701.00003 1.27.56842 1.27 1.2696 0 .7011-.569 1.2696-1.27 1.2697z"/><path d="m180.7 11.5394c.701 0 1.27-.5684 1.27-1.2695 0-.70111-.569-1.26946-1.27-1.26946-.702 0-1.27.56835-1.27 1.26946 0 .3367.134.6596.372.8977.238.238.561.3718.898.3718z"/><path clip-rule="evenodd" d="m185.71 37.0897c2.034-.456 3.485-2.2551 3.5-4.3399v-16.3299c-.05-2.4791-2.091-4.4534-4.57-4.4199h-11.28c-2.483-.0446-4.535 1.9269-4.59 4.4099v16.3399c.015 2.0848 1.466 3.8839 3.5 4.3399l-5.27 7.91h3.06l3.77-5.53h10.4l3.77 5.53h3zm-9.68-23.3898c.016-.4078.352-.73.76-.7297h4.46c.404.005.734.3257.75.7297v1.2995l-.001.0305c-.016.4137-.365.7357-.779.7191l-4.43-.01c-.199.0027-.391-.0737-.533-.2124-.143-.1387-.225-.3284-.227-.5272zm-4.648 19.7647c.31.7471 1.039 1.2341 1.848 1.2341 1.104-.0001 2-.8951 2-1.9992 0-.8087-.487-1.5377-1.235-1.8471-.747-.3094-1.607-.1384-2.179.4334s-.744 1.4317-.434 2.1788zm2.108-9.3943c-.068.0032-.137.0032-.205 0-.578-.0272-1.121-.2826-1.51-.7102s-.592-.9923-.565-1.5698v-2.94c-.035-.6156.194-1.217.629-1.654s1.035-.6682 1.651-.6359h11c.615-.0322 1.216.1991 1.651.636.435.437.663 1.0383.629 1.6539v2.94c.003.0682.003.1365 0 .2049-.028.5775-.283 1.1206-.711 1.5097-.427.3892-.992.5926-1.569.5654zm9.19 8.6139c-.003 1.1077.891 2.0086 2 2.0142h.02c1.108-.0056 2.002-.9065 2-2.0142-.003-1.1077-.902-2.0042-2.01-2.0042-1.109 0-2.008.8965-2.01 2.0042z" fill-rule="evenodd"/></g></svg>
