<svg fill="none" height="108" viewBox="0 0 358 108" width="358" xmlns="http://www.w3.org/2000/svg"><path clip-rule="evenodd" d="m181.123 38.4406c-1.302.8102-2.952.8102-4.253 0-1.143-.65-2.554-.6091-3.658.1061-1.29.7399-2.886.6989-4.136-.1061-1.092-.645-2.449-.645-3.541 0-.587.3783-1.268.5879-1.967.6055v-3.1853c.652-.0042 1.294-.1644 1.872-.4671 1.741-1.0261 2.86-.536 3.841-.106.481.2106.929.4067 1.401.4032v-7.4312l-2.191-5.3611c-.161-.3412-.18-.7324-.053-1.0875.128-.3552.392-.6452.733-.8063.039-.0181.078-.0344.118-.049l1.339-.5733v-4.6708h2.52v-2.4419h3.615v-3.2698h4.466v3.2698h3.615v2.4419h2.563v4.6392l1.34.5732c.738.2708 1.117 1.0881.846 1.8257-.014.0397-.031.0787-.049.1171l-2.201 5.3609v7.4313c.466 0 .904-.1989 1.375-.413.969-.4402 2.078-.9445 3.867.0839.576.3076 1.218.4714 1.871.4777v3.1849c-.697-.028-1.375-.2367-1.967-.6056-1.095-.6337-2.446-.6337-3.541 0-1.25.805-2.846.846-4.136.1062-1.122-.7089-2.547-.7292-3.689-.0526zm-6.072-23.2281v2.4099h-2.562v1.8684l6.507-2.8345 6.508 2.8345v-1.8684h-2.574v-2.4099zm1.712 28.1325c1.351.771 3.009.771 4.36 0 1.121-.6731 2.534-.6232 3.604.1274 1.29.7399 2.886.6989 4.137-.1062 1.081-.6387 2.433-.6015 3.477.0956.609.3803 1.324.5586 2.041.5095v-3.333c-.658.0528-1.315-.1112-1.871-.467-1.319-.8387-2.552-.7114-4.253.2229-1.167.5006-2.502.4259-3.605-.2017-1.499-.8281-2.361-.6264-3.934.1167-1.107.5741-2.424.5741-3.53 0-1.574-.7431-2.393-.9448-3.892-.1167-1.111.6264-2.451.7009-3.626.2017-1.68-.9342-2.902-1.1041-4.253-.2229-.56.3446-1.214.5075-1.871.4666v3.3337c.689.0242 1.37-.157 1.956-.5204 1.058-.7022 2.425-.7393 3.52-.0956 1.25.8051 2.846.846 4.136.1062 1.067-.7639 2.49-.81 3.604-.1168z" fill="#fff" fill-rule="evenodd"/></svg>
