<svg width="24" height="24" viewBox="0 0 24 24" fill="none" xmlns="http://www.w3.org/2000/svg">
<g clip-path="url(#clip0_2702_14006)">
<rect width="24" height="24" rx="12" fill="white"/>
<path fill-rule="evenodd" clip-rule="evenodd" d="M19.6551 6.65186H4.34509V10.4534H10.0996V19.7449H13.9006V10.4534H19.6551V6.65186Z" fill="black"/>
<mask id="mask0_2702_14006" style="mask-type:luminance" maskUnits="userSpaceOnUse" x="0" y="0" width="24" height="24">
<path fill-rule="evenodd" clip-rule="evenodd" d="M0 0H24V24H0V0Z" fill="white"/>
</mask>
<g mask="url(#mask0_2702_14006)">
<path fill-rule="evenodd" clip-rule="evenodd" d="M0.00584568 11.6186C-0.207154 18.5716 5.42835 24.2076 12.3813 23.9941C18.6558 23.8016 23.8018 18.6556 23.9943 12.3816C24.2073 5.42815 18.5718 -0.207353 11.6183 0.00564732C5.34435 0.198147 0.198346 5.34415 0.00584568 11.6186M11.9998 1.04965C18.2808 1.04965 23.3223 6.33115 22.9283 12.6971C22.5908 18.1516 18.1518 22.5906 12.6973 22.9281C6.33085 23.3221 1.04985 18.2806 1.04985 12.0001C1.04985 5.95015 5.94985 1.04965 11.9998 1.04965" fill="#1C1E23"/>
</g>
</g>
<defs>
<clipPath id="clip0_2702_14006">
<rect width="24" height="24" fill="white"/>
</clipPath>
</defs>
</svg>
