<svg width="25" height="25" viewBox="0 0 25 25" xmlns="http://www.w3.org/2000/svg">
    <path d="M13.4906 19.6C15.0938 17.5938 18.75 12.7312 18.75 10C18.75 6.6875 16.0625 4 12.75 4C9.4375 4 6.75 6.6875 6.75 10C6.75 12.7312 10.4062 17.5938 12.0094 19.6C12.3938 20.0781 13.1062 20.0781 13.4906 19.6ZM12.75 8C13.2804 8 13.7891 8.21071 14.1642 8.58579C14.5393 8.96086 14.75 9.46957 14.75 10C14.75 10.5304 14.5393 11.0391 14.1642 11.4142C13.7891 11.7893 13.2804 12 12.75 12C12.2196 12 11.7109 11.7893 11.3358 11.4142C10.9607 11.0391 10.75 10.5304 10.75 10C10.75 9.46957 10.9607 8.96086 11.3358 8.58579C11.7109 8.21071 12.2196 8 12.75 8Z" />
</svg>
