<svg width="51" height="24" viewBox="0 0 51 24" fill="none" xmlns="http://www.w3.org/2000/svg">
<rect width="51" height="24" rx="12" fill="#7C878E"/>
<rect x="0.5" y="0.5" width="50" height="23" rx="11.5" stroke="white" stroke-opacity="0.15"/>
<path d="M13.4332 14.208C13.4332 14.592 13.5025 14.9173 13.6412 15.184C13.7799 15.4507 13.9612 15.6693 14.1852 15.84C14.4199 16 14.6919 16.1227 15.0012 16.208C15.3105 16.2827 15.6305 16.32 15.9612 16.32C16.1852 16.32 16.4252 16.304 16.6812 16.272C16.9372 16.2293 17.1772 16.1547 17.4012 16.048C17.6252 15.9413 17.8119 15.7973 17.9612 15.616C18.1105 15.424 18.1852 15.184 18.1852 14.896C18.1852 14.5867 18.0839 14.336 17.8812 14.144C17.6892 13.952 17.4332 13.792 17.1132 13.664C16.7932 13.536 16.4305 13.424 16.0252 13.328C15.6199 13.232 15.2092 13.1253 14.7932 13.008C14.3665 12.9013 13.9505 12.7733 13.5452 12.624C13.1399 12.464 12.7772 12.2613 12.4572 12.016C12.1372 11.7707 11.8759 11.4667 11.6732 11.104C11.4812 10.7307 11.3852 10.2827 11.3852 9.76C11.3852 9.17333 11.5079 8.66667 11.7532 8.24C12.0092 7.80267 12.3399 7.44 12.7452 7.152C13.1505 6.864 13.6092 6.65067 14.1212 6.512C14.6332 6.37333 15.1452 6.304 15.6572 6.304C16.2545 6.304 16.8252 6.37333 17.3692 6.512C17.9239 6.64 18.4145 6.85333 18.8412 7.152C19.2679 7.45067 19.6039 7.83467 19.8492 8.304C20.1052 8.76267 20.2332 9.32267 20.2332 9.984H17.8012C17.7799 9.64267 17.7052 9.36 17.5772 9.136C17.4599 8.912 17.2999 8.736 17.0972 8.608C16.8945 8.48 16.6599 8.38933 16.3932 8.336C16.1372 8.28267 15.8545 8.256 15.5452 8.256C15.3425 8.256 15.1399 8.27733 14.9372 8.32C14.7345 8.36267 14.5479 8.43733 14.3772 8.544C14.2172 8.65067 14.0839 8.784 13.9772 8.944C13.8705 9.104 13.8172 9.30667 13.8172 9.552C13.8172 9.776 13.8599 9.95733 13.9452 10.096C14.0305 10.2347 14.1959 10.3627 14.4412 10.48C14.6972 10.5973 15.0439 10.7147 15.4812 10.832C15.9292 10.9493 16.5105 11.0987 17.2252 11.28C17.4385 11.3227 17.7319 11.4027 18.1052 11.52C18.4892 11.6267 18.8679 11.8027 19.2412 12.048C19.6145 12.2933 19.9345 12.624 20.2012 13.04C20.4785 13.4453 20.6172 13.968 20.6172 14.608C20.6172 15.1307 20.5159 15.616 20.3132 16.064C20.1105 16.512 19.8065 16.9013 19.4012 17.232C19.0065 17.552 18.5105 17.8027 17.9132 17.984C17.3265 18.1653 16.6439 18.256 15.8652 18.256C15.2359 18.256 14.6225 18.176 14.0252 18.016C13.4385 17.8667 12.9159 17.6267 12.4572 17.296C12.0092 16.9653 11.6519 16.544 11.3852 16.032C11.1185 15.52 10.9905 14.912 11.0012 14.208H13.4332ZM22.6118 6.576H25.1238V15.888H30.6918V18H22.6118V6.576ZM32.0842 11.104C32.0629 10.464 32.1375 9.872 32.3082 9.328C32.4789 8.77333 32.7349 8.29333 33.0762 7.888C33.4175 7.472 33.8442 7.152 34.3562 6.928C34.8789 6.69333 35.4762 6.576 36.1482 6.576C36.6602 6.576 37.1455 6.656 37.6042 6.816C38.0735 6.976 38.4842 7.20533 38.8362 7.504C39.1882 7.80267 39.4655 8.17067 39.6682 8.608C39.8815 9.04533 39.9882 9.536 39.9882 10.08C39.9882 10.6453 39.8975 11.1307 39.7162 11.536C39.5349 11.9413 39.2949 12.304 38.9962 12.624C38.6975 12.9333 38.3562 13.216 37.9722 13.472C37.5989 13.728 37.2202 13.984 36.8362 14.24C36.4522 14.4853 36.0789 14.752 35.7162 15.04C35.3535 15.328 35.0335 15.664 34.7562 16.048H40.0522V18H31.8282C31.8282 17.3493 31.9189 16.784 32.1002 16.304C32.2922 15.824 32.5482 15.3973 32.8682 15.024C33.1882 14.64 33.5615 14.288 33.9882 13.968C34.4255 13.648 34.8842 13.3227 35.3642 12.992C35.6095 12.8213 35.8709 12.6507 36.1482 12.48C36.4255 12.2987 36.6762 12.1013 36.9002 11.888C37.1349 11.6747 37.3269 11.4347 37.4762 11.168C37.6362 10.9013 37.7162 10.5973 37.7162 10.256C37.7162 9.712 37.5562 9.29067 37.2362 8.992C36.9269 8.68267 36.5269 8.528 36.0362 8.528C35.7055 8.528 35.4229 8.608 35.1882 8.768C34.9642 8.91733 34.7829 9.12 34.6442 9.376C34.5055 9.62133 34.4042 9.89867 34.3402 10.208C34.2869 10.5067 34.2602 10.8053 34.2602 11.104H32.0842Z" fill="white"/>
</svg>
