<svg width="24" height="24" viewBox="0 0 24 24" fill="none" xmlns="http://www.w3.org/2000/svg">
<path d="M11.1649 3.76939C10.9964 3.76944 10.8349 3.70272 10.7158 3.5836C10.5966 3.46448 10.5297 3.30292 10.5298 3.13448C10.5299 2.78391 10.8142 2.49974 11.1649 2.49976C11.5157 2.49977 11.8 2.78397 11.8 3.13454C11.8 3.48512 11.5156 3.76934 11.1649 3.76939Z" fill="#192026"/>
<path d="M12.8499 3.76943C13.2006 3.76943 13.4849 3.48526 13.4849 3.1347C13.4849 2.78415 13.2006 2.49998 12.8499 2.49998C12.4992 2.49998 12.2149 2.78415 12.2149 3.1347C12.2149 3.30305 12.2818 3.4645 12.4009 3.58354C12.52 3.70258 12.6815 3.76944 12.8499 3.76943Z" fill="#192026"/>
<path fill-rule="evenodd" clip-rule="evenodd" d="M15.3548 16.5446C16.372 16.3166 17.0974 15.4171 17.1048 14.3747V6.20972C17.0802 4.97018 16.0595 3.98302 14.8198 3.99974H9.17996C7.93834 3.97744 6.91236 4.96319 6.885 6.20472V14.3747C6.89236 15.4171 7.6178 16.3166 8.63497 16.5446L6 20.4996H7.52997L9.41494 17.7346H14.6148L16.4998 20.4996H17.9998L15.3548 16.5446ZM10.5149 4.84969C10.523 4.64579 10.6908 4.48469 10.8949 4.48485H13.1248C13.327 4.48735 13.4919 4.64771 13.4998 4.84969V5.49944L13.4996 5.51469C13.4913 5.72155 13.3168 5.88254 13.1099 5.87427L10.8949 5.86928C10.7955 5.87062 10.6995 5.83241 10.6283 5.76305C10.557 5.69369 10.5162 5.59887 10.5149 5.49944V4.84969ZM8.19101 14.7321C8.34581 15.1056 8.71046 15.3491 9.11494 15.3491C9.66721 15.3491 10.1149 14.9015 10.1149 14.3495C10.1149 13.9452 9.87126 13.5807 9.49757 13.426C9.12388 13.2712 8.69376 13.3568 8.40776 13.6427C8.12176 13.9286 8.03621 14.3585 8.19101 14.7321ZM9.24492 10.0349C9.21081 10.0365 9.17661 10.0365 9.1425 10.0349C8.85374 10.0213 8.5822 9.89359 8.38762 9.6798C8.19304 9.46601 8.09136 9.18368 8.10495 8.89492V7.42492C8.08746 7.1171 8.20175 6.81638 8.41928 6.5979C8.63681 6.37941 8.93703 6.2638 9.24492 6.27995H14.7448C15.0527 6.26386 15.3529 6.37949 15.5704 6.59796C15.7879 6.81643 15.9022 7.11712 15.8848 7.42492V8.89492C15.8864 8.92903 15.8864 8.96317 15.8848 8.99734C15.8712 9.2861 15.7435 9.55764 15.5297 9.75222C15.3159 9.9468 15.0336 10.0485 14.7448 10.0349H9.24492ZM13.8398 14.3418C13.8384 14.8957 14.2857 15.3462 14.8398 15.3489H14.8498C15.4039 15.3462 15.8512 14.8957 15.8498 14.3418C15.8484 13.788 15.3988 13.3397 14.8448 13.3397C14.2907 13.3397 13.8411 13.788 13.8398 14.3418Z" fill="#192026"/>
</svg>
