<svg width="40" height="24" viewBox="0 0 40 24" fill="none" xmlns="http://www.w3.org/2000/svg">
<rect width="40" height="24" rx="12" fill="#80276C"/>
<rect x="0.5" y="0.5" width="39" height="23" rx="11.5" stroke="black" stroke-opacity="0.15"/>
<path d="M16.7669 10.416C16.7242 10.128 16.6282 9.86667 16.4789 9.632C16.3295 9.38667 16.1429 9.17333 15.9189 8.992C15.6949 8.81067 15.4389 8.672 15.1509 8.576C14.8735 8.46933 14.5802 8.416 14.2709 8.416C13.7055 8.416 13.2255 8.528 12.8309 8.752C12.4362 8.96533 12.1162 9.25867 11.8709 9.632C11.6255 9.99467 11.4442 10.4107 11.3269 10.88C11.2202 11.3493 11.1669 11.8347 11.1669 12.336C11.1669 12.816 11.2202 13.2853 11.3269 13.744C11.4442 14.192 11.6255 14.5973 11.8709 14.96C12.1162 15.3227 12.4362 15.616 12.8309 15.84C13.2255 16.0533 13.7055 16.16 14.2709 16.16C15.0389 16.16 15.6362 15.9253 16.0629 15.456C16.5002 14.9867 16.7669 14.368 16.8629 13.6H19.2949C19.2309 14.3147 19.0655 14.96 18.7989 15.536C18.5322 16.112 18.1802 16.6027 17.7429 17.008C17.3055 17.4133 16.7935 17.7227 16.2069 17.936C15.6202 18.1493 14.9749 18.256 14.2709 18.256C13.3962 18.256 12.6069 18.1067 11.9029 17.808C11.2095 17.4987 10.6229 17.0773 10.1429 16.544C9.66288 16.0107 9.29488 15.3867 9.03888 14.672C8.78288 13.9467 8.65488 13.168 8.65488 12.336C8.65488 11.4827 8.78288 10.6933 9.03888 9.968C9.29488 9.232 9.66288 8.592 10.1429 8.048C10.6229 7.504 11.2095 7.07733 11.9029 6.768C12.6069 6.45867 13.3962 6.304 14.2709 6.304C14.9002 6.304 15.4922 6.39467 16.0469 6.576C16.6122 6.75733 17.1135 7.024 17.5509 7.376C17.9989 7.71733 18.3669 8.144 18.6549 8.656C18.9429 9.168 19.1242 9.75467 19.1989 10.416H16.7669ZM24.0223 11.744H26.7743C27.3503 11.744 27.7823 11.616 28.0703 11.36C28.3583 11.104 28.5023 10.688 28.5023 10.112C28.5023 9.55733 28.3583 9.15733 28.0703 8.912C27.7823 8.656 27.3503 8.528 26.7743 8.528H24.0223V11.744ZM21.5103 6.576H27.6703C28.1823 6.576 28.6409 6.66133 29.0463 6.832C29.4623 6.992 29.8143 7.216 30.1023 7.504C30.4009 7.792 30.6249 8.128 30.7743 8.512C30.9343 8.88533 31.0143 9.29067 31.0143 9.728C31.0143 10.4 30.8703 10.9813 30.5823 11.472C30.3049 11.9627 29.8463 12.336 29.2063 12.592V12.624C29.5156 12.7093 29.7716 12.8427 29.9743 13.024C30.1769 13.1947 30.3423 13.4027 30.4703 13.648C30.5983 13.8827 30.6889 14.144 30.7423 14.432C30.8063 14.72 30.8489 15.008 30.8703 15.296C30.8809 15.4773 30.8916 15.6907 30.9023 15.936C30.9129 16.1813 30.9289 16.432 30.9503 16.688C30.9823 16.944 31.0249 17.1893 31.0783 17.424C31.1423 17.648 31.2329 17.84 31.3503 18H28.8383C28.6996 17.6373 28.6143 17.2053 28.5823 16.704C28.5503 16.2027 28.5023 15.7227 28.4383 15.264C28.3529 14.6667 28.1716 14.2293 27.8943 13.952C27.6169 13.6747 27.1636 13.536 26.5343 13.536H24.0223V18H21.5103V6.576Z" fill="white"/>
</svg>
