<svg width="28" height="24" viewBox="0 0 28 24" fill="none" xmlns="http://www.w3.org/2000/svg">
<path fill-rule="evenodd" clip-rule="evenodd" d="M15.0215 16.0636C15.6591 18.0529 17.5336 19.5001 19.7364 19.5001C21.5918 19.5001 23.3312 18.4214 24.1622 16.7842L23.2864 14.9986C23.0766 16.7727 21.5341 18.1561 19.7255 18.1561C17.8679 18.1561 16.3321 16.7372 16.1537 14.9314L15.0215 16.0636ZM27.5678 15.8958L26.084 16.4296L24.1295 11.9334L19.5517 11.9643L19.4884 11.1152L22.8028 11.1165V9.86057L19.3623 9.85901L19.2102 7.16903C19.8916 7.10654 20.4209 6.52154 20.4209 5.83717C20.4209 5.10062 19.8179 4.5 19.0792 4.5C18.3401 4.5 17.7374 5.10062 17.7374 5.83717C17.7374 6.06186 17.8004 6.29186 17.9051 6.48498L18.0907 9.08809L18.383 13.1893L23.307 13.1905L25.3267 17.9064L27.9783 16.8699L27.5678 15.8958Z" fill="white"/>
<path fill-rule="evenodd" clip-rule="evenodd" d="M7.9092 4.46072L1.48221 10.8877C0.86791 11.502 0.867909 12.498 1.48221 13.1123L7.9092 19.5393C8.5235 20.1536 9.51947 20.1536 10.1338 19.5393L16.5608 13.1123C17.1751 12.498 17.1751 11.502 16.5608 10.8877L10.1338 4.46072C9.51947 3.84643 8.5235 3.84642 7.9092 4.46072ZM7.91076 9.25139C7.87067 8.60983 8.38019 8.06747 9.023 8.06747C9.66581 8.06747 10.1753 8.60983 10.1352 9.25139L9.93952 12.3827C9.90927 12.8667 9.50792 13.2437 9.023 13.2437C8.53807 13.2437 8.13672 12.8667 8.10647 12.3827L7.91076 9.25139ZM8.05264 15.2925C8.05264 14.7565 8.48717 14.322 9.02319 14.322C9.55921 14.322 9.99374 14.7565 9.99374 15.2925C9.99374 15.8285 9.55921 16.2631 9.02319 16.2631C8.48717 16.2631 8.05264 15.8285 8.05264 15.2925Z" fill="white"/>
</svg>
