<svg width="29" height="18" viewBox="0 0 29 18" fill="none" xmlns="http://www.w3.org/2000/svg">
<rect width="29" height="18" rx="9" fill="#ED8B00"/>
<rect x="0.5" y="0.5" width="28" height="17" rx="8.5" stroke="black" stroke-opacity="0.15"/>
<path d="M8.36344 9.252C8.36344 9.612 8.40344 9.964 8.48344 10.308C8.57144 10.644 8.70744 10.948 8.89144 11.22C9.07544 11.492 9.31544 11.712 9.61144 11.88C9.90744 12.04 10.2674 12.12 10.6914 12.12C11.1154 12.12 11.4754 12.04 11.7714 11.88C12.0674 11.712 12.3074 11.492 12.4914 11.22C12.6754 10.948 12.8074 10.644 12.8874 10.308C12.9754 9.964 13.0194 9.612 13.0194 9.252C13.0194 8.876 12.9754 8.512 12.8874 8.16C12.8074 7.808 12.6754 7.496 12.4914 7.224C12.3074 6.944 12.0674 6.724 11.7714 6.564C11.4754 6.396 11.1154 6.312 10.6914 6.312C10.2674 6.312 9.90744 6.396 9.61144 6.564C9.31544 6.724 9.07544 6.944 8.89144 7.224C8.70744 7.496 8.57144 7.808 8.48344 8.16C8.40344 8.512 8.36344 8.876 8.36344 9.252ZM6.47944 9.252C6.47944 8.612 6.57544 8.02 6.76744 7.476C6.95944 6.924 7.23544 6.444 7.59544 6.036C7.95544 5.628 8.39544 5.308 8.91544 5.076C9.44344 4.844 10.0354 4.728 10.6914 4.728C11.3554 4.728 11.9474 4.844 12.4674 5.076C12.9874 5.308 13.4274 5.628 13.7874 6.036C14.1474 6.444 14.4234 6.924 14.6154 7.476C14.8074 8.02 14.9034 8.612 14.9034 9.252C14.9034 9.876 14.8074 10.46 14.6154 11.004C14.4234 11.54 14.1474 12.008 13.7874 12.408C13.4274 12.808 12.9874 13.124 12.4674 13.356C11.9474 13.58 11.3554 13.692 10.6914 13.692C10.0354 13.692 9.44344 13.58 8.91544 13.356C8.39544 13.124 7.95544 12.808 7.59544 12.408C7.23544 12.008 6.95944 11.54 6.76744 11.004C6.57544 10.46 6.47944 9.876 6.47944 9.252ZM16.6913 4.932H18.5753V11.916H22.7513V13.5H16.6913V4.932Z" fill="white"/>
</svg>
