<svg width="51" height="24" viewBox="0 0 51 24" fill="none" xmlns="http://www.w3.org/2000/svg">
<rect width="51" height="24" rx="12" fill="#7C878E"/>
<rect x="0.5" y="0.5" width="50" height="23" rx="11.5" stroke="black" stroke-opacity="0.15"/>
<path d="M10.7613 14.208C10.7613 14.592 10.8306 14.9173 10.9693 15.184C11.108 15.4507 11.2893 15.6693 11.5133 15.84C11.748 16 12.02 16.1227 12.3293 16.208C12.6386 16.2827 12.9586 16.32 13.2893 16.32C13.5133 16.32 13.7533 16.304 14.0093 16.272C14.2653 16.2293 14.5053 16.1547 14.7293 16.048C14.9533 15.9413 15.14 15.7973 15.2893 15.616C15.4386 15.424 15.5133 15.184 15.5133 14.896C15.5133 14.5867 15.412 14.336 15.2093 14.144C15.0173 13.952 14.7613 13.792 14.4413 13.664C14.1213 13.536 13.7586 13.424 13.3533 13.328C12.948 13.232 12.5373 13.1253 12.1213 13.008C11.6946 12.9013 11.2786 12.7733 10.8733 12.624C10.468 12.464 10.1053 12.2613 9.78531 12.016C9.46531 11.7707 9.20398 11.4667 9.00131 11.104C8.80931 10.7307 8.71331 10.2827 8.71331 9.76C8.71331 9.17333 8.83598 8.66667 9.08131 8.24C9.33731 7.80267 9.66798 7.44 10.0733 7.152C10.4786 6.864 10.9373 6.65067 11.4493 6.512C11.9613 6.37333 12.4733 6.304 12.9853 6.304C13.5826 6.304 14.1533 6.37333 14.6973 6.512C15.252 6.64 15.7426 6.85333 16.1693 7.152C16.596 7.45067 16.932 7.83467 17.1773 8.304C17.4333 8.76267 17.5613 9.32267 17.5613 9.984H15.1293C15.108 9.64267 15.0333 9.36 14.9053 9.136C14.788 8.912 14.628 8.736 14.4253 8.608C14.2226 8.48 13.988 8.38933 13.7213 8.336C13.4653 8.28267 13.1826 8.256 12.8733 8.256C12.6706 8.256 12.468 8.27733 12.2653 8.32C12.0626 8.36267 11.876 8.43733 11.7053 8.544C11.5453 8.65067 11.412 8.784 11.3053 8.944C11.1986 9.104 11.1453 9.30667 11.1453 9.552C11.1453 9.776 11.188 9.95733 11.2733 10.096C11.3586 10.2347 11.524 10.3627 11.7693 10.48C12.0253 10.5973 12.372 10.7147 12.8093 10.832C13.2573 10.9493 13.8386 11.0987 14.5533 11.28C14.7666 11.3227 15.06 11.4027 15.4333 11.52C15.8173 11.6267 16.196 11.8027 16.5693 12.048C16.9426 12.2933 17.2626 12.624 17.5293 13.04C17.8066 13.4453 17.9453 13.968 17.9453 14.608C17.9453 15.1307 17.844 15.616 17.6413 16.064C17.4386 16.512 17.1346 16.9013 16.7293 17.232C16.3346 17.552 15.8386 17.8027 15.2413 17.984C14.6546 18.1653 13.972 18.256 13.1933 18.256C12.564 18.256 11.9506 18.176 11.3533 18.016C10.7666 17.8667 10.244 17.6267 9.78531 17.296C9.33731 16.9653 8.97998 16.544 8.71331 16.032C8.44665 15.52 8.31865 14.912 8.32931 14.208H10.7613ZM19.9399 6.576H22.4519V15.888H28.0199V18H19.9399V6.576ZM39.9293 18H37.4333L35.4973 10.224H35.4653L33.5613 18H31.0173L27.9933 6.576H30.5053L32.3133 14.352H32.3453L34.3293 6.576H36.6813L38.6333 14.448H38.6653L40.5373 6.576H43.0013L39.9293 18Z" fill="white"/>
</svg>
