<svg width="40" height="24" viewBox="0 0 40 24" fill="none" xmlns="http://www.w3.org/2000/svg">
<rect width="40" height="24" rx="12" fill="#ED8B00"/>
<rect x="0.5" y="0.5" width="39" height="23" rx="11.5" stroke="white" stroke-opacity="0.15"/>
<path d="M11.9013 12.336C11.9013 12.816 11.9546 13.2853 12.0613 13.744C12.1786 14.192 12.3599 14.5973 12.6053 14.96C12.8506 15.3227 13.1706 15.616 13.5653 15.84C13.9599 16.0533 14.4399 16.16 15.0053 16.16C15.5706 16.16 16.0506 16.0533 16.4453 15.84C16.8399 15.616 17.1599 15.3227 17.4053 14.96C17.6506 14.5973 17.8266 14.192 17.9333 13.744C18.0506 13.2853 18.1093 12.816 18.1093 12.336C18.1093 11.8347 18.0506 11.3493 17.9333 10.88C17.8266 10.4107 17.6506 9.99467 17.4053 9.632C17.1599 9.25867 16.8399 8.96533 16.4453 8.752C16.0506 8.528 15.5706 8.416 15.0053 8.416C14.4399 8.416 13.9599 8.528 13.5653 8.752C13.1706 8.96533 12.8506 9.25867 12.6053 9.632C12.3599 9.99467 12.1786 10.4107 12.0613 10.88C11.9546 11.3493 11.9013 11.8347 11.9013 12.336ZM9.38925 12.336C9.38925 11.4827 9.51725 10.6933 9.77325 9.968C10.0293 9.232 10.3973 8.592 10.8773 8.048C11.3573 7.504 11.9439 7.07733 12.6373 6.768C13.3413 6.45867 14.1306 6.304 15.0053 6.304C15.8906 6.304 16.6799 6.45867 17.3733 6.768C18.0666 7.07733 18.6533 7.504 19.1333 8.048C19.6133 8.592 19.9813 9.232 20.2373 9.968C20.4933 10.6933 20.6213 11.4827 20.6213 12.336C20.6213 13.168 20.4933 13.9467 20.2373 14.672C19.9813 15.3867 19.6133 16.0107 19.1333 16.544C18.6533 17.0773 18.0666 17.4987 17.3733 17.808C16.6799 18.1067 15.8906 18.256 15.0053 18.256C14.1306 18.256 13.3413 18.1067 12.6373 17.808C11.9439 17.4987 11.3573 17.0773 10.8773 16.544C10.3973 16.0107 10.0293 15.3867 9.77325 14.672C9.51725 13.9467 9.38925 13.168 9.38925 12.336ZM22.8384 6.576H25.3504V15.888H30.9184V18H22.8384V6.576Z" fill="white"/>
</svg>
