<svg width="51" height="24" viewBox="0 0 51 24" fill="none" xmlns="http://www.w3.org/2000/svg">
<rect width="51" height="24" rx="12" fill="#7C878E"/>
<rect x="0.5" y="0.5" width="50" height="23" rx="11.5" stroke="black" stroke-opacity="0.15"/>
<path d="M13.4332 14.208C13.4332 14.592 13.5025 14.9173 13.6412 15.184C13.7799 15.4507 13.9612 15.6693 14.1852 15.84C14.4199 16 14.6919 16.1227 15.0012 16.208C15.3105 16.2827 15.6305 16.32 15.9612 16.32C16.1852 16.32 16.4252 16.304 16.6812 16.272C16.9372 16.2293 17.1772 16.1547 17.4012 16.048C17.6252 15.9413 17.8119 15.7973 17.9612 15.616C18.1105 15.424 18.1852 15.184 18.1852 14.896C18.1852 14.5867 18.0839 14.336 17.8812 14.144C17.6892 13.952 17.4332 13.792 17.1132 13.664C16.7932 13.536 16.4305 13.424 16.0252 13.328C15.6199 13.232 15.2092 13.1253 14.7932 13.008C14.3665 12.9013 13.9505 12.7733 13.5452 12.624C13.1399 12.464 12.7772 12.2613 12.4572 12.016C12.1372 11.7707 11.8759 11.4667 11.6732 11.104C11.4812 10.7307 11.3852 10.2827 11.3852 9.76C11.3852 9.17333 11.5079 8.66667 11.7532 8.24C12.0092 7.80267 12.3399 7.44 12.7452 7.152C13.1505 6.864 13.6092 6.65067 14.1212 6.512C14.6332 6.37333 15.1452 6.304 15.6572 6.304C16.2545 6.304 16.8252 6.37333 17.3692 6.512C17.9239 6.64 18.4145 6.85333 18.8412 7.152C19.2679 7.45067 19.6039 7.83467 19.8492 8.304C20.1052 8.76267 20.2332 9.32267 20.2332 9.984H17.8012C17.7799 9.64267 17.7052 9.36 17.5772 9.136C17.4599 8.912 17.2999 8.736 17.0972 8.608C16.8945 8.48 16.6599 8.38933 16.3932 8.336C16.1372 8.28267 15.8545 8.256 15.5452 8.256C15.3425 8.256 15.1399 8.27733 14.9372 8.32C14.7345 8.36267 14.5479 8.43733 14.3772 8.544C14.2172 8.65067 14.0839 8.784 13.9772 8.944C13.8705 9.104 13.8172 9.30667 13.8172 9.552C13.8172 9.776 13.8599 9.95733 13.9452 10.096C14.0305 10.2347 14.1959 10.3627 14.4412 10.48C14.6972 10.5973 15.0439 10.7147 15.4812 10.832C15.9292 10.9493 16.5105 11.0987 17.2252 11.28C17.4385 11.3227 17.7319 11.4027 18.1052 11.52C18.4892 11.6267 18.8679 11.8027 19.2412 12.048C19.6145 12.2933 19.9345 12.624 20.2012 13.04C20.4785 13.4453 20.6172 13.968 20.6172 14.608C20.6172 15.1307 20.5159 15.616 20.3132 16.064C20.1105 16.512 19.8065 16.9013 19.4012 17.232C19.0065 17.552 18.5105 17.8027 17.9132 17.984C17.3265 18.1653 16.6439 18.256 15.8652 18.256C15.2359 18.256 14.6225 18.176 14.0252 18.016C13.4385 17.8667 12.9159 17.6267 12.4572 17.296C12.0092 16.9653 11.6519 16.544 11.3852 16.032C11.1185 15.52 10.9905 14.912 11.0012 14.208H13.4332ZM22.6118 6.576H25.1238V15.888H30.6918V18H22.6118V6.576ZM37.7642 18H35.4922V10.736H32.6762V9.024C33.0709 9.03467 33.4495 9.008 33.8122 8.944C34.1855 8.86933 34.5162 8.74667 34.8042 8.576C35.1029 8.39467 35.3535 8.16 35.5562 7.872C35.7589 7.584 35.8922 7.22667 35.9562 6.8H37.7642V18Z" fill="white"/>
</svg>
