<svg width="24" height="24" viewBox="0 0 24 24" fill="none" xmlns="http://www.w3.org/2000/svg">
<path fill-rule="evenodd" clip-rule="evenodd" d="M3.5 9.67742C3.5 4.33273 7.30558 0 12 0C16.6944 0 20.5 4.33273 20.5 9.67742H3.5Z" fill="#FFC72C"/>
<path fill-rule="evenodd" clip-rule="evenodd" d="M14.0818 2.99609H9.91809V4.02947H11.4835V6.55647H12.5168V4.02947H14.0818V2.99609Z" fill="black"/>
<mask id="mask0_2702_14005" style="mask-type:luminance" maskUnits="userSpaceOnUse" x="8" y="1" width="8" height="7">
<path fill-rule="evenodd" clip-rule="evenodd" d="M8.5 1.00015H15.4999V8.00009H8.5V1.00015Z" fill="white"/>
</mask>
<g mask="url(#mask0_2702_14005)">
<path fill-rule="evenodd" clip-rule="evenodd" d="M8.5017 4.38857C8.43958 6.41682 10.0833 8.06094 12.1111 7.99838C13.9411 7.94238 15.4422 6.44132 15.4982 4.61169C15.5603 2.58344 13.9166 0.939318 11.8888 1.00188C10.0588 1.05788 8.5577 2.55851 8.5017 4.38857M12 1.3063C13.8318 1.3063 15.3022 2.84673 15.1876 4.70348C15.0891 6.29423 13.7941 7.5888 12.2034 7.68723C10.3466 7.8023 8.8062 6.33186 8.8062 4.50005C8.8062 2.73561 10.2355 1.3063 12 1.3063" fill="#1C1E23"/>
</g>
<path d="M3.5 9H20.5V22C20.5 23.1046 19.6046 24 18.5 24H5.5C4.39543 24 3.5 23.1046 3.5 22V9Z" fill="white"/>
<path fill-rule="evenodd" clip-rule="evenodd" d="M14.974 15.1687L14.6848 13.0337C14.6092 12.6487 14.3511 12.4955 13.9685 12.338C13.3324 12.1271 12.6679 12.0135 11.9978 12.0012C11.3291 12.0139 10.6662 12.1274 10.0314 12.338C9.65326 12.4955 9.3908 12.6487 9.31073 13.0337L9.026 15.1687V18.1174H9.55764V18.6205C9.56097 18.7533 9.63587 18.8738 9.75338 18.9355C9.78007 18.9487 9.80676 18.9618 9.82901 18.9705C9.84933 18.9778 9.87014 18.9837 9.89129 18.988C9.92466 18.997 9.95909 19.0014 9.99363 19.0012H10.1449C10.3708 19.0153 10.5665 18.8461 10.5853 18.6205V18.1174H13.4575V18.6205C13.4608 18.7533 13.5357 18.8738 13.6533 18.9355C13.6799 18.9487 13.7066 18.9618 13.7289 18.9705C13.7492 18.9778 13.77 18.9837 13.7912 18.988C13.8245 18.997 13.859 19.0014 13.8935 19.0012H14.0447C14.2707 19.0153 14.4664 18.8461 14.4852 18.6205V18.1174H14.974V15.1687ZM10.6142 12.5218H13.4125C13.546 12.5219 13.6548 12.6289 13.6571 12.7624C13.6548 12.8959 13.546 13.003 13.4125 13.003H10.6142C10.4807 13.003 10.3718 12.8959 10.3695 12.7624C10.3718 12.6289 10.4807 12.5219 10.6142 12.5218V12.5218ZM10.1144 13.6631L9.91649 15.1229C9.91254 15.1417 9.91253 15.1611 9.91648 15.1799C9.91642 15.294 10.0067 15.3877 10.1208 15.3918H13.9265C14.0411 15.3935 14.1358 15.3026 14.1387 15.188V15.1229L13.9123 13.6631C13.8926 13.5626 13.8024 13.4915 13.7001 13.496H10.3265C10.2238 13.4903 10.1329 13.5619 10.1144 13.6631ZM10.1981 17.417C9.86028 17.4323 9.56981 17.1799 9.53769 16.8433C9.53755 16.6753 9.60417 16.5142 9.72289 16.3954C9.84161 16.2767 10.0027 16.2099 10.1706 16.21C10.5192 16.184 10.8248 16.4412 10.8586 16.7891C10.8548 16.9602 10.783 17.1226 10.659 17.2405C10.535 17.3583 10.3691 17.4219 10.1981 17.417ZM13.1123 16.8433C13.1445 17.1799 13.4349 17.4323 13.7728 17.417C13.9438 17.4219 14.1096 17.3583 14.2336 17.2405C14.3576 17.1226 14.4295 16.9602 14.4332 16.7891C14.3994 16.4412 14.0939 16.184 13.7453 16.21C13.5773 16.2099 13.4163 16.2767 13.2975 16.3954C13.1788 16.5142 13.1122 16.6753 13.1123 16.8433Z" fill="#1C1E23"/>
</svg>
