<svg fill="none" height="24" viewBox="0 0 24 24" width="24" xmlns="http://www.w3.org/2000/svg"><path d="m15.808 1h-7.60491c-.54352 0-1.06364.22121-1.44064.61272l-5.20309 5.4032c-.35887.37267-.55936.86992-.55936 1.38729v7.40479c0 .5304.21071 1.0391.58579 1.4142l5.19199 5.192c.37507.3751.88378.5858 1.41421.5858h7.60491c.5435 0 1.0636-.2212 1.4407-.6127l5.203-5.4032c.3589-.3727.5594-.8699.5594-1.3873v-7.40481c0-.53043-.2107-1.03914-.5858-1.41421l-5.192-5.19199c-.375-.37508-.8838-.58579-1.4142-.58579z" fill="#fff" stroke="#fff" stroke-width="2"/><path clip-rule="evenodd" d="m16.2222 2h-8.44442l-5.77778 6v8.2222l5.77778 5.7778h8.44442l5.7778-6v-8.22222zm-7.42877 4.91205-2.02865 2.06142 3.20658 3.19193-3.20658 3.2583 2.02865 1.995 3.20657-3.2584 3.2066 3.2584 2.0286-1.995-3.2065-3.2583 3.2065-3.19193-2.0286-2.06142-3.2066 3.19185z" fill="#da291c" fill-rule="evenodd"/></svg>
