<svg width="18" height="18" viewBox="0 0 18 18" fill="none" xmlns="http://www.w3.org/2000/svg">
<path d="M9 3C8.58516 3 8.25 3.33516 8.25 3.75V3.825C6.53906 4.17188 5.25 5.68594 5.25 7.5V8.00859C5.25 9.13594 4.86563 10.2305 4.1625 11.1117L3.93281 11.3977C3.81328 11.5453 3.75 11.7281 3.75 11.918C3.75 12.3773 4.12266 12.75 4.58203 12.75H13.4156C13.875 12.75 14.2477 12.3773 14.2477 11.918C14.2477 11.7281 14.1844 11.5453 14.0648 11.3977L13.8352 11.1117C13.1344 10.2305 12.75 9.13594 12.75 8.00859V7.5C12.75 5.68594 11.4609 4.17188 9.75 3.825V3.75C9.75 3.33516 9.41484 3 9 3ZM7.54688 13.875C7.71328 14.5219 8.30156 15 9 15C9.69844 15 10.2867 14.5219 10.4531 13.875H7.54688Z" fill="#192026"/>
</svg>
