<svg width="24" height="25" viewBox="0 0 24 25" fill="none" xmlns="http://www.w3.org/2000/svg">
<path d="M12 4.5C11.4469 4.5 11 4.94687 11 5.5V5.6C8.71875 6.0625 7 8.08125 7 10.5V11.1781C7 12.6812 6.4875 14.1406 5.55 15.3156L5.24375 15.6969C5.08438 15.8937 5 16.1375 5 16.3906C5 17.0031 5.49687 17.5 6.10938 17.5H17.8875C18.5 17.5 18.9969 17.0031 18.9969 16.3906C18.9969 16.1375 18.9125 15.8937 18.7531 15.6969L18.4469 15.3156C17.5125 14.1406 17 12.6812 17 11.1781V10.5C17 8.08125 15.2812 6.0625 13 5.6V5.5C13 4.94687 12.5531 4.5 12 4.5ZM10.0625 19C10.2844 19.8625 11.0687 20.5 12 20.5C12.9313 20.5 13.7156 19.8625 13.9375 19H10.0625Z" fill="#006CD9"/>
</svg>
