<svg width="18" height="18" viewBox="0 0 18 18" fill="none" xmlns="http://www.w3.org/2000/svg">
<mask id="path-1-inside-1_2150_130768" fill="white">
<path fill-rule="evenodd" clip-rule="evenodd" d="M9.04662 17.9999C14.0881 17.8705 18.1287 13.7716 17.9967 8.952C17.8606 3.98325 13.92 -0.0261215 8.95037 0.000128161C3.98071 0.0267099 -0.0264459 4.07764 0.000131444 9.04813C0.0267088 14.0186 4.07696 18.0265 9.04662 17.9999"/>
</mask>
<path fill-rule="evenodd" clip-rule="evenodd" d="M9.04662 17.9999C14.0881 17.8705 18.1287 13.7716 17.9967 8.952C17.8606 3.98325 13.92 -0.0261215 8.95037 0.000128161C3.98071 0.0267099 -0.0264459 4.07764 0.000131444 9.04813C0.0267088 14.0186 4.07696 18.0265 9.04662 17.9999" fill="#008EAA"/>
<path d="M17.9967 8.952L18.9963 8.92462L18.9963 8.92462L17.9967 8.952ZM8.95037 0.000128161L8.94509 -0.999858L8.94502 -0.999858L8.95037 0.000128161ZM9.07227 18.9995C14.6273 18.857 19.1446 14.3354 18.9963 8.92462L16.9971 8.97938C17.1129 13.2079 13.5488 16.884 9.02096 17.0002L9.07227 18.9995ZM18.9963 8.92462C18.8462 3.44122 14.4867 -1.02913 8.94509 -0.999858L8.95565 1.00011C13.3532 0.976886 16.8751 4.52527 16.9971 8.97938L18.9963 8.92462ZM8.94502 -0.999858C3.42293 -0.970321 -1.02938 3.53087 -0.999854 9.05348L1.00012 9.04278C0.976492 4.62441 4.5385 1.02374 8.95572 1.00011L8.94502 -0.999858ZM-0.999854 9.05348C-0.970325 14.5761 3.52987 19.0294 9.05196 18.9999L9.04127 16.9999C4.62404 17.0235 1.02374 13.4612 1.00012 9.04278L-0.999854 9.05348Z" fill="black" fill-opacity="0.15" mask="url(#path-1-inside-1_2150_130768)"/>
<path fill-rule="evenodd" clip-rule="evenodd" d="M9.7961 12.9152C9.30801 13.2191 8.68927 13.2191 8.20118 12.9152C7.77245 12.6715 7.24336 12.6868 6.82954 12.955C6.34577 13.2325 5.74736 13.2171 5.27851 12.9152C4.86906 12.6734 4.36018 12.6734 3.95073 12.9152C3.7304 13.0571 3.47519 13.1357 3.21308 13.1423V11.9478C3.45766 11.9462 3.69829 11.8862 3.91484 11.7726C4.56787 11.3879 4.98737 11.5716 5.3554 11.7329C5.53567 11.8118 5.7036 11.8854 5.88058 11.8841V9.09738L5.0592 7.08697C4.9987 6.95903 4.99158 6.81233 5.03941 6.67915C5.08725 6.54596 5.18611 6.43721 5.31426 6.37681C5.32862 6.37002 5.34329 6.3639 5.35826 6.35843L5.86064 6.14344V4.39188H6.80563V3.47616H8.1613V2.25H9.83597V3.47616H11.1917V4.39188H12.1526V6.13159L12.655 6.34654C12.932 6.44808 13.0741 6.75458 12.9725 7.03116C12.967 7.04606 12.9608 7.0607 12.9541 7.07509L12.1285 9.08543V11.8722C12.3034 11.8722 12.4675 11.7976 12.6442 11.7173C13.0075 11.5522 13.4237 11.3631 14.0943 11.7488C14.3103 11.8641 14.5511 11.9255 14.7961 11.9279V13.1222C14.5346 13.1117 14.2804 13.0335 14.0584 12.8951C13.6478 12.6575 13.1412 12.6575 12.7306 12.8951C12.2618 13.197 11.6633 13.2124 11.1796 12.9349C10.7588 12.6691 10.2243 12.6615 9.7961 12.9152ZM7.51926 4.2047V5.10838H6.55832V5.80904L8.99854 4.7461L11.439 5.80904V5.10838H10.4738V4.2047H7.51926ZM8.16129 14.7544C8.66776 15.0435 9.28963 15.0435 9.79609 14.7544C10.2165 14.502 10.7463 14.5207 11.1478 14.8021C11.6316 15.0796 12.23 15.0643 12.6989 14.7623C13.1042 14.5228 13.6112 14.5368 14.0027 14.7982C14.2314 14.9408 14.4993 15.0076 14.7683 14.9892V13.7394C14.5215 13.7592 14.275 13.6977 14.0665 13.5642C13.5721 13.2497 13.1095 13.2975 12.4716 13.6478C12.034 13.8355 11.5337 13.8075 11.1199 13.5722C10.5577 13.2617 10.2345 13.3373 9.64459 13.616C9.22966 13.8312 8.73572 13.8312 8.32079 13.616C7.73067 13.3373 7.42364 13.2617 6.86145 13.5722C6.44466 13.8071 5.94214 13.835 5.50179 13.6478C4.87179 13.2975 4.41323 13.2338 3.90687 13.5642C3.69662 13.6935 3.45149 13.7546 3.20508 13.7392V14.9893C3.46361 14.9984 3.719 14.9305 3.93875 14.7942C4.33551 14.5309 4.84805 14.517 5.25856 14.7583C5.72741 15.0603 6.32583 15.0756 6.8096 14.7982C7.20974 14.5117 7.74339 14.4944 8.16129 14.7544Z" fill="white"/>
</svg>
