<svg width="24" height="25" viewBox="0 0 24 25" fill="none" xmlns="http://www.w3.org/2000/svg">
<path opacity="0.5" d="M12.7891 19.625C12.5653 19.782 12.2934 19.875 12 19.875C11.7066 19.875 11.4347 19.782 11.2109 19.625H12.7891ZM12 5.125C12.2079 5.125 12.375 5.29205 12.375 5.5V6.11133L12.876 6.21289C14.8714 6.61755 16.375 8.38437 16.375 10.5V11.1777C16.375 12.8229 16.9362 14.4201 17.958 15.7051L17.96 15.707L18.2656 16.0879L18.2676 16.0898C18.3349 16.173 18.3721 16.2775 18.3721 16.3906C18.3721 16.6579 18.1549 16.8749 17.8877 16.875H6.10938C5.84205 16.875 5.625 16.6579 5.625 16.3906C5.625 16.2775 5.66218 16.173 5.72949 16.0898L5.73145 16.0879L6.03711 15.707L6.03809 15.7051C7.06364 14.4197 7.625 12.823 7.625 11.1777V10.5C7.625 8.38437 9.12861 6.61755 11.124 6.21289L11.625 6.11133V5.5C11.625 5.29205 11.7921 5.125 12 5.125Z" stroke="#192026" stroke-width="1.25"/>
</svg>
