<svg width="39" height="18" viewBox="0 0 39 18" fill="none" xmlns="http://www.w3.org/2000/svg">
<rect width="38.25" height="18" rx="9" fill="#7C878E"/>
<rect x="0.5" y="0.5" width="37.25" height="17" rx="8.5" stroke="white" stroke-opacity="0.15"/>
<path d="M8.07098 10.656C8.07098 10.944 8.12298 11.188 8.22698 11.388C8.33098 11.588 8.46698 11.752 8.63498 11.88C8.81098 12 9.01498 12.092 9.24698 12.156C9.47898 12.212 9.71898 12.24 9.96698 12.24C10.135 12.24 10.315 12.228 10.507 12.204C10.699 12.172 10.879 12.116 11.047 12.036C11.215 11.956 11.355 11.848 11.467 11.712C11.579 11.568 11.635 11.388 11.635 11.172C11.635 10.94 11.559 10.752 11.407 10.608C11.263 10.464 11.071 10.344 10.831 10.248C10.591 10.152 10.319 10.068 10.015 9.996C9.71098 9.924 9.40298 9.844 9.09098 9.756C8.77098 9.676 8.45898 9.58 8.15498 9.468C7.85098 9.348 7.57898 9.196 7.33898 9.012C7.09898 8.828 6.90298 8.6 6.75098 8.328C6.60698 8.048 6.53498 7.712 6.53498 7.32C6.53498 6.88 6.62698 6.5 6.81098 6.18C7.00298 5.852 7.25098 5.58 7.55498 5.364C7.85898 5.148 8.20298 4.988 8.58698 4.884C8.97098 4.78 9.35498 4.728 9.73898 4.728C10.187 4.728 10.615 4.78 11.023 4.884C11.439 4.98 11.807 5.14 12.127 5.364C12.447 5.588 12.699 5.876 12.883 6.228C13.075 6.572 13.171 6.992 13.171 7.488H11.347C11.331 7.232 11.275 7.02 11.179 6.852C11.091 6.684 10.971 6.552 10.819 6.456C10.667 6.36 10.491 6.292 10.291 6.252C10.099 6.212 9.88698 6.192 9.65498 6.192C9.50298 6.192 9.35098 6.208 9.19898 6.24C9.04698 6.272 8.90698 6.328 8.77898 6.408C8.65898 6.488 8.55898 6.588 8.47898 6.708C8.39898 6.828 8.35898 6.98 8.35898 7.164C8.35898 7.332 8.39098 7.468 8.45498 7.572C8.51898 7.676 8.64298 7.772 8.82698 7.86C9.01898 7.948 9.27898 8.036 9.60698 8.124C9.94298 8.212 10.379 8.324 10.915 8.46C11.075 8.492 11.295 8.552 11.575 8.64C11.863 8.72 12.147 8.852 12.427 9.036C12.707 9.22 12.947 9.468 13.147 9.78C13.355 10.084 13.459 10.476 13.459 10.956C13.459 11.348 13.383 11.712 13.231 12.048C13.079 12.384 12.851 12.676 12.547 12.924C12.251 13.164 11.879 13.352 11.431 13.488C10.991 13.624 10.479 13.692 9.89498 13.692C9.42298 13.692 8.96298 13.632 8.51498 13.512C8.07498 13.4 7.68298 13.22 7.33898 12.972C7.00298 12.724 6.73498 12.408 6.53498 12.024C6.33498 11.64 6.23898 11.184 6.24698 10.656H8.07098ZM14.955 4.932H16.839V11.916H21.015V13.5H14.955V4.932ZM29.947 13.5H28.075L26.623 7.668H26.599L25.171 13.5H23.263L20.995 4.932H22.879L24.235 10.764H24.259L25.747 4.932H27.511L28.975 10.836H28.999L30.403 4.932H32.251L29.947 13.5Z" fill="white"/>
</svg>
